<?xml version="1.0" standalone="no"?><!DOCTYPE svg PUBLIC "-//W3C//DTD SVG 1.1//EN" "http://www.w3.org/Graphics/SVG/1.1/DTD/svg11.dtd"><svg t="1670398394977" class="icon" viewBox="0 0 1024 1024" version="1.1" xmlns="http://www.w3.org/2000/svg" p-id="2042" xmlns:xlink="http://www.w3.org/1999/xlink" width="200" height="200"><path d="M114.461538 856.615385V243.692308c0-42.092308 34.215385-76.307692 76.307693-76.307693h621.538461c42.092308 0 76.307692 34.215385 76.307693 76.307693v612.923077L712.369231 671.015385H292.553846L114.461538 856.615385z" fill="#FFFFFF" p-id="2043"></path><path d="M918.153846 930.584615L699.692308 700.553846H305.107692L84.923077 930.092308V243.692308c0-58.338462 47.507692-105.846154 105.846154-105.846154h621.538461c58.338462 0 105.846154 47.507692 105.846154 105.846154v686.892307zM292.553846 671.015385h419.815385L888.615385 856.615385V243.692308c0-42.092308-34.215385-76.307692-76.307693-76.307693H190.769231c-42.092308 0-76.307692 34.215385-76.307693 76.307693v612.923077l178.092308-185.6z" fill="#1C1B55" p-id="2044"></path><path d="M194.461538 514.461538h46.769231c5.415385 0 9.846154 4.430769 9.846154 9.846154v30.769231c0 5.415385-4.430769 9.846154-9.846154 9.846154h-46.769231c-5.415385 0-9.846154-4.430769-9.846153-9.846154v-30.769231c0-5.415385 4.430769-9.846154 9.846153-9.846154z" fill="#D4F1FF" p-id="2045"></path><path d="M241.230769 594.461538h-46.769231c-21.661538 0-39.384615-17.723077-39.384615-39.384615v-30.769231c0-21.661538 17.723077-39.384615 39.384615-39.384615h46.769231c21.661538 0 39.384615 17.723077 39.384616 39.384615v30.769231c0 21.661538-17.723077 39.384615-39.384616 39.384615z m-46.769231-80c-5.415385 0-9.846154 4.430769-9.846153 9.846154v30.769231c0 5.415385 4.430769 9.846154 9.846153 9.846154h46.769231c5.415385 0 9.846154-4.430769 9.846154-9.846154v-30.769231c0-5.415385-4.430769-9.846154-9.846154-9.846154h-46.769231z" fill="#1C1B55" p-id="2046"></path><path d="M763.076923 513.230769h18.461539c12.184615 0 22.153846 9.969231 22.153846 22.153846v6.153847c0 12.184615-9.969231 22.153846-22.153846 22.153846h-18.461539c-12.184615 0-22.153846-9.969231-22.153846-22.153846v-6.153847c0-12.184615 9.969231-22.153846 22.153846-22.153846z" fill="#D4F1FF" p-id="2047"></path><path d="M796.307692 593.230769h-48c-20.307692 0-36.923077-16.615385-36.923077-36.923077v-35.692307c0-20.307692 16.615385-36.923077 36.923077-36.923077h48c20.307692 0 36.923077 16.615385 36.923077 36.923077v35.692307c0 20.307692-16.615385 36.923077-36.923077 36.923077z m-48-80c-4.061538 0-7.384615 3.323077-7.384615 7.384616v35.692307c0 4.061538 3.323077 7.384615 7.384615 7.384616h48c4.061538 0 7.384615-3.323077 7.384616-7.384616v-35.692307c0-4.061538-3.323077-7.384615-7.384616-7.384616h-48z" fill="#1C1B55" p-id="2048"></path><path d="M278.153846 772.923077h75.076923v62.523077c0 10.953846-8.984615 19.938462-19.938461 19.938461h-35.2c-10.953846 0-19.938462-8.984615-19.938462-19.938461V772.923077z" fill="#7FCDF3" p-id="2049"></path><path d="M333.292308 881.969231h-35.2c-25.6 0-46.523077-20.923077-46.523077-46.523077v-89.107692h128.246154v89.107692c0 25.6-20.923077 46.523077-46.523077 46.523077zM278.153846 772.923077v62.523077c0 10.953846 8.984615 19.938462 19.938462 19.938461h35.2c10.953846 0 19.938462-8.984615 19.938461-19.938461V772.923077h-75.076923z" fill="#1C1B55" p-id="2050"></path><path d="M644.923077 772.923077h75.076923v62.523077c0 10.953846-8.984615 19.938462-19.938462 19.938461h-35.2c-10.953846 0-19.938462-8.984615-19.938461-19.938461V772.923077z" fill="#7FCDF3" p-id="2051"></path><path d="M700.061538 881.969231h-35.2c-25.6 0-46.523077-20.923077-46.523076-46.523077v-89.107692h128.246153v89.107692c0 25.6-20.923077 46.523077-46.523077 46.523077zM644.923077 772.923077v62.523077c0 10.953846 8.984615 19.938462 19.938461 19.938461h35.2c10.953846 0 19.938462-8.984615 19.938462-19.938461V772.923077h-75.076923z" fill="#1C1B55" p-id="2052"></path><path d="M486.153846 769.476923l248.123077 5.661539c20.430769 0.492308 37.292308-15.630769 37.784615-36.061539V639.261538c0-15.753846-5.292308-31.015385-15.015384-43.446153L660.923077 473.723077c-13.538462-17.230769-34.215385-27.2-56.123077-27.2H379.076923c-22.892308 0-44.307692 10.953846-57.723077 29.415385l-88.615384 121.96923c-8.738462 11.938462-13.415385 26.461538-13.415385 41.23077v93.538461c0 20.430769 16.492308 36.923077 36.923077 36.923077H486.153846z" fill="#FFFFFF" p-id="2053"></path><path d="M735.015385 804.676923H733.538462l-247.753847-5.661538H256.246154c-36.676923 0-66.461538-29.784615-66.461539-66.461539v-93.538461c0-21.169231 6.646154-41.476923 19.076923-58.584616l88.615385-121.969231c18.953846-26.092308 49.476923-41.6 81.6-41.6h225.6c31.138462 0 60.061538 14.030769 79.261539 38.523077l96.123076 122.092308c13.784615 17.476923 21.415385 39.384615 21.415385 61.661539V739.569231c-0.861538 36.307692-30.523077 65.107692-66.461538 65.107692zM379.076923 446.523077c-22.769231 0-44.307692 10.953846-57.723077 29.415385l-88.615384 121.96923c-8.738462 12.061538-13.415385 26.338462-13.415385 41.23077v93.538461c0 20.307692 16.615385 36.923077 36.923077 36.923077h230.030769l247.876923 5.661538h0.861539c19.938462 0 36.430769-16 36.923077-36.061538V639.384615c0-15.630769-5.292308-31.138462-15.015385-43.446153L660.8 473.846154c-13.661538-17.353846-34.092308-27.323077-56.123077-27.323077H379.076923z" fill="#1C1B55" p-id="2054"></path><path d="M663.138462 629.415385H331.323077c-18.461538 0-36.676923-6.153846-51.446154-17.353847l-45.169231-34.461538 17.846154-23.507692 45.169231 34.461538c9.6 7.261538 21.538462 11.323077 33.476923 11.323077h331.815385c13.415385 0 26.338462-4.8 36.307692-13.661538l36.184615-31.507693 19.446154 22.276923-36.184615 31.507693c-15.384615 13.538462-35.2 20.923077-55.630769 20.923077z" fill="#1C1B55" p-id="2055"></path><path d="M221.538462 738.461538h548.061538c0 19.446154-15.753846 35.2-35.2 35.2H255.015385c-18.461538 0-33.476923-15.015385-33.476923-33.476923V738.461538z" fill="#D4F1FF" p-id="2056"></path><path d="M296 696m-25.230769 0a25.230769 25.230769 0 1 0 50.461538 0 25.230769 25.230769 0 1 0-50.461538 0Z" fill="#FFF7A6" p-id="2057"></path><path d="M296 743.384615c-26.092308 0-47.384615-21.292308-47.384615-47.384615s21.292308-47.384615 47.384615-47.384615 47.384615 21.292308 47.384615 47.384615-21.292308 47.384615-47.384615 47.384615z m0-72.615384c-13.907692 0-25.230769 11.323077-25.230769 25.230769s11.323077 25.230769 25.230769 25.230769 25.230769-11.323077 25.230769-25.230769-11.323077-25.230769-25.230769-25.230769z" fill="#1C1B55" p-id="2058"></path><path d="M694.769231 698.461538m-25.230769 0a25.230769 25.230769 0 1 0 50.461538 0 25.230769 25.230769 0 1 0-50.461538 0Z" fill="#FFF7A6" p-id="2059"></path><path d="M694.769231 745.846154c-26.092308 0-47.384615-21.292308-47.384616-47.384616s21.292308-47.384615 47.384616-47.384615 47.384615 21.292308 47.384615 47.384615-21.292308 47.384615-47.384615 47.384616z m0-72.615385c-13.907692 0-25.230769 11.323077-25.230769 25.230769s11.323077 25.230769 25.230769 25.23077 25.230769-11.323077 25.230769-25.23077-11.323077-25.230769-25.230769-25.230769z" fill="#1C1B55" p-id="2060"></path><path d="M728.861538 560.246154l-71.138461-89.476923c-8.246154-8.984615-16.738462-15.261538-25.230769-18.830769s-19.323077-5.415385-32.369231-5.538462H380.307692c-10.092308-0.984615-20.553846 1.107692-31.138461 6.4s-18.830769 11.2-24.615385 17.969231l-64.246154 89.476923 36.553846 27.938461c7.015385 4.676923 12.307692 7.507692 15.876924 8.615385 3.815385 1.230769 8.861538 2.338462 15.015384 3.323077H649.846154c12.184615 0.738462 22.153846-0.123077 29.784615-2.215385 7.630769-2.215385 24-14.769231 49.230769-37.661538z" fill="#7FCDF3" p-id="2061"></path><path d="M456.492308 446.030769h-80.123077c-12.061538 0.123077-23.015385 3.076923-32.738462 9.107693s-15.876923 11.076923-18.338461 15.384615l-64.492308 89.723077 195.692308-114.215385z" fill="#D4F1FF" p-id="2062"></path><path d="M740.923077 522.830769c0-1.846154 0.615385-3.323077 1.846154-4.553846s1.969231-1.846154 2.338461-1.846154l34.707693 47.261539H764.307692l-23.384615-29.661539v-11.2z" fill="#7FCDF3" p-id="2063"></path><path d="M111.015385 225.476923h802.338461" fill="#7FCDF3" p-id="2064"></path><path d="M893.784615 240.246154h-76.307692v-29.538462h76.307692v29.538462z m-100.923077 0h-76.307692v-29.538462h76.307692v29.538462z m-100.923076 0h-76.307693v-29.538462h76.307693v29.538462z m-100.923077 0h-76.307693v-29.538462h76.307693v29.538462z m-100.923077 0h-76.307693v-29.538462h76.307693v29.538462z m-100.923077 0h-76.307693v-29.538462h76.307693v29.538462z m-100.923077 0h-76.307692v-29.538462h76.307692v29.538462z m-100.923077 0h-76.307692v-29.538462h76.307692v29.538462z" fill="#1C1B55" p-id="2065"></path><path d="M439.384615 675.692308h114.461539c3.446154 0 6.153846 2.707692 6.153846 6.153846v19.692308c0 3.446154-2.707692 6.153846-6.153846 6.153846h-114.461539c-3.446154 0-6.153846-2.707692-6.153846-6.153846v-19.692308c0-3.446154 2.707692-6.153846 6.153846-6.153846z" fill="#D4F1FF" p-id="2066"></path><path d="M568.615385 737.230769H424.615385c-11.569231 0-20.923077-9.353846-20.923077-20.923077v-49.230769c0-11.569231 9.353846-20.923077 20.923077-20.923077h144c11.569231 0 20.923077 9.353846 20.923077 20.923077v49.230769c0 11.569231-9.353846 20.923077-20.923077 20.923077z m-135.384616-29.538461h126.769231v-32H433.230769v32z" fill="#1C1B55" p-id="2067"></path><path d="M111.015385 295.630769h802.338461" fill="#7FCDF3" p-id="2068"></path><path d="M893.784615 310.4h-76.307692v-29.538462h76.307692v29.538462z m-100.923077 0h-76.307692v-29.538462h76.307692v29.538462z m-100.923076 0h-76.307693v-29.538462h76.307693v29.538462z m-100.923077 0h-76.307693v-29.538462h76.307693v29.538462z m-100.923077 0h-76.307693v-29.538462h76.307693v29.538462z m-100.923077 0h-76.307693v-29.538462h76.307693v29.538462z m-100.923077 0h-76.307692v-29.538462h76.307692v29.538462z m-100.923077 0h-76.307692v-29.538462h76.307692v29.538462z" fill="#1C1B55" p-id="2069"></path><path d="M111.015385 379.323077h802.338461" fill="#7FCDF3" p-id="2070"></path><path d="M111.015385 364.553846h802.338461v29.538462H111.015385z" fill="#1C1B55" p-id="2071"></path><path d="M448 345.846154h107.076923v18.461538h-107.076923z" fill="#7FCDF3" p-id="2072"></path><path d="M584.615385 393.846154H418.461538v-77.538462h166.153847v77.538462z m-136.615385-29.538462h107.076923v-18.461538h-107.076923v18.461538z" fill="#1C1B55" p-id="2073"></path></svg>