<?xml version="1.0" standalone="no"?><!DOCTYPE svg PUBLIC "-//W3C//DTD SVG 1.1//EN" "http://www.w3.org/Graphics/SVG/1.1/DTD/svg11.dtd"><svg t="1670398387871" class="icon" viewBox="0 0 1024 1024" version="1.1" xmlns="http://www.w3.org/2000/svg" p-id="1891" xmlns:xlink="http://www.w3.org/1999/xlink" width="200" height="200"><path d="M225.107692 663.138462L112.615385 841.353846c-15.138462 24-8 55.753846 16 71.015385 8.246154 5.169231 17.723077 8 27.446153 8h715.569231c28.430769 0 51.446154-23.015385 51.446154-51.446154 0-9.476923-2.584615-18.707692-7.507692-26.707692l-108.430769-178.215385c-9.353846-15.384615-25.969231-24.738462-43.938462-24.738462H268.676923c-17.723077-0.123077-34.092308 8.984615-43.569231 23.876924z" fill="#D4F1FF" p-id="1892"></path><path d="M871.753846 935.015385H156.061538c-12.553846 0-24.738462-3.569231-35.323076-10.215385-15.015385-9.476923-25.353846-24.123077-29.292308-41.353846s-0.861538-34.953846 8.615384-49.969231l112.492308-178.215385c12.184615-19.323077 33.107692-30.892308 56-30.892307h494.646154c23.015385 0 44.676923 12.184615 56.615385 31.753846l108.430769 178.215385c6.276923 10.338462 9.6 22.276923 9.6 34.461538 0.123077 36.430769-29.661538 66.215385-66.092308 66.215385z m-603.076923-281.107693c-12.676923 0-24.246154 6.4-31.015385 17.107693L125.046154 849.230769c-5.292308 8.246154-6.892308 18.092308-4.8 27.692308 2.215385 9.6 7.876923 17.723077 16.246154 22.892308 5.907692 3.692308 12.676923 5.661538 19.56923 5.661538h715.569231c20.184615 0 36.676923-16.492308 36.676923-36.676923 0-6.769231-1.846154-13.292308-5.292307-19.076923l-108.43077-178.215385c-6.646154-10.830769-18.584615-17.6-31.384615-17.6H268.676923z m-43.569231 9.23077z" fill="#1C1B55" p-id="1893"></path><path d="M723.432615 914.046769l-28.295384-0.611692c0.836923-39.169231-4.537846-50.761846-6.978462-53.921231-3.003077-4.108308-13.366154-4.124308-27.517538-0.049231l-7.825231-27.213538c27.572923-7.974154 47.060923-4.524308 58.096 10.372923 9.267692 12.553846 13.197538 35.225846 12.520615 71.422769zM729.965538 913.960615c-0.742154-37.084308 2.619077-63.106462 9.984-79.536 8.192-18.710154 24.273231-30.444308 46.35077-34.086153l4.667077 27.926153c-12.814769 2.007385-20.802462 7.747692-25.289847 17.686154-3.844923 8.534154-8.221538 27.100308-7.501538 67.394462l-28.210462 0.615384z" fill="#1C1B55" p-id="1894"></path><path d="M290.830769 903.384615H151.261538c-17.969231 0-32.492308-14.523077-32.492307-32.492307 0-6.030769 1.723077-12.061538 4.923077-17.23077l49.476923-79.507692c16.246154 30.646154 30.030769 52.184615 41.353846 64.615385s36.8 33.969231 76.307692 64.615384z" fill="#FFFFFF" p-id="1895"></path><path d="M331.569231 744.492308c85.784615 49.969231 169.476923 65.353846 251.2 46.153846s149.784615-63.138462 204.430769-131.692308c8.369231 47.753846 2.215385 79.753846-18.584615 95.630769-27.076923 20.8-102.030769 30.030769-147.446154 42.584616-97.353846 27.076923-193.846154 9.6-289.6-52.676923z" fill="#80CFF5" p-id="1896"></path><path d="M804.718769 859.917538l-28.295384-0.611692c0.836923-39.169231-4.537846-50.761846-6.978462-53.921231-3.003077-4.108308-13.366154-4.124308-27.517538-0.050461l-7.825231-27.212308c27.572923-7.974154 47.060923-4.525538 58.096 10.371692 9.267692 12.553846 13.197538 35.227077 12.520615 71.424zM811.251692 859.831385c-0.742154-37.085538 2.620308-63.106462 9.984-79.537231 8.192-18.707692 24.273231-30.444308 46.35077-34.084923l4.667076 27.926154c-12.814769 2.007385-20.802462 7.747692-25.289846 17.686153-3.844923 8.534154-8.221538 27.100308-7.501538 67.394462l-28.210462 0.615385z" fill="#1C1B55" p-id="1897"></path><path d="M243.553231 878.781538l-28.241231-1.602461c4.32-74.081231 2.912-124.196923-4.118154-148.873846-6.865231-24.073846-15.990154-38.116923-26.289231-40.728616-12.054154-2.980923-31.011692 8.214154-53.44123 31.497847L110.973538 699.532308c31.054769-32.275692 57.415385-45.222154 80.652308-39.321846 21.345231 5.293538 36.546462 25.081846 46.665846 60.4 8.130462 28.055385 9.772308 79.758769 5.261539 158.172307zM250.432 876.574769c-1.961846-72.162462 4-94.540308 8.819692-104.994461 8.323692-18.595692 24.397538-30.452923 46.473846-34.09477l4.667077 27.927385c-12.683077 2.120615-20.679385 7.739077-25.166769 17.676308-3.089231 7.000615-8.022154 28.196923-6.347077 92.729846l-28.446769 0.755692z" fill="#1C1B55" p-id="1898"></path><path d="M181.969231 449.723077a330.584615 330.215385 0 1 0 661.169231 0 330.584615 330.215385 0 1 0-661.169231 0Z" fill="#FFFFFF" p-id="1899"></path><path d="M512.553846 794.707692c-92.184615 0-178.953846-35.938462-244.184615-101.046154-65.230769-65.107692-101.169231-151.753846-101.169231-243.938461 0-92.184615 35.938462-178.830769 101.169231-243.938462C333.6 140.676923 420.369231 104.738462 512.553846 104.738462s178.953846 35.938462 244.184616 101.046153c65.230769 65.107692 101.169231 151.753846 101.16923 243.938462 0 92.184615-35.938462 178.830769-101.16923 243.938461-65.230769 65.107692-152 101.046154-244.184616 101.046154z m0-660.430769c-84.307692 0-163.692308 32.861538-223.261538 92.430769C229.6 286.276923 196.861538 365.538462 196.861538 449.723077c0 84.307692 32.861538 163.446154 92.43077 223.015385 59.692308 59.569231 138.953846 92.430769 223.261538 92.430769s163.692308-32.861538 223.261539-92.430769c59.692308-59.569231 92.430769-138.830769 92.430769-223.015385 0-84.307692-32.861538-163.446154-92.430769-223.015385-59.569231-59.569231-138.953846-92.430769-223.261539-92.430769z" fill="#1C1B55" p-id="1900"></path><path d="M335.569231 632c0.738462 1.6 1.353846 3.076923 2.215384 4.553846 49.353846 101.046154 194.215385 131.815385 323.692308 68.676923s194.461538-196.307692 145.107692-297.353846c-21.415385-43.938462-60.923077-74.584615-109.415384-90.092308 1.6 11.446154 2.461538 23.138462 2.461538 35.076923 0 155.815385-141.907692 282.092308-317.046154 282.092308-16 0.123077-31.630769-0.861538-47.015384-2.953846z" fill="#FFF7A6" p-id="1901"></path><path d="M166.584615 282.707692l-26.707692-12.8c35.446154-73.846154 91.2-135.261538 161.6-177.6l15.261539 25.353846c-65.476923 39.261538-117.292308 96.369231-150.153847 165.046154zM777.212308 675.809231c-82.953846-53.784615-125.046154-127.507692-125.046154-219.323077 0-92.8 42.830769-158.769231 127.138461-195.938462l11.938462 27.076923c-73.723077 32.492308-109.538462 87.753846-109.538462 168.861539 0 40.615385 9.353846 77.415385 27.692308 109.538461 18.461538 32.246154 46.646154 60.8 83.938462 84.923077l-16.123077 24.861539zM327.489231 728.24l-19.446154-22.276923c48.369231-42.092308 85.169231-84.676923 109.169231-126.523077 23.507692-40.984615 35.446154-82.338462 35.446154-122.830769s-11.938462-81.969231-35.446154-122.830769c-24-41.846154-60.8-84.307692-109.169231-126.523077l19.446154-22.276923c50.953846 44.307692 89.723077 89.353846 115.446154 134.030769 26.092308 45.538462 39.384615 91.815385 39.384615 137.6s-13.292308 92.184615-39.384615 137.6c-25.723077 44.553846-64.492308 89.723077-115.446154 134.030769zM588.781538 772.424615c-21.046154-138.092308-36.553846-245.292308-46.153846-318.4-9.723077-73.969231-9.723077-181.907692-0.123077-320.984615l29.415385 2.092308c-9.476923 137.107692-9.6 243.076923-0.123077 315.076923 9.6 72.861538 25.107692 179.815385 46.153846 317.784615l-29.169231 4.430769z" fill="#1C1B55" p-id="1902"></path><path d="M553.907692 327.753846c-31.876923 0-62.030769-13.046154-89.96923-38.769231-30.276923-27.938462-58.584615-72.123077-84.184616-131.2l27.076923-11.692307c23.876923 55.261538 49.846154 96 77.169231 121.230769 25.846154 23.876923 52.307692 33.723077 80.984615 30.276923 28.8-3.569231 49.723077-15.138462 63.753847-35.446154 14.646154-21.169231 22.030769-52.184615 22.030769-92.430769h29.538461c0 46.4-9.230769 83.076923-27.323077 109.292308-18.953846 27.2-47.384615 43.323077-84.553846 47.876923-4.8 0.615385-9.723077 0.861538-14.523077 0.861538zM496.184615 775.876923h-29.538461c0-52.430769 8.369231-94.276923 24.861538-124.553846 17.476923-32.123077 44.061538-52.061538 79.138462-59.2 35.2-7.261538 65.846154-0.492308 91.2 20.184615 24.123077 19.569231 43.323077 52.184615 57.107692 96.738462l-28.184615 8.738461c-12.061538-38.892308-28.061538-66.707692-47.630769-82.584615-18.461538-15.015385-40.246154-19.692308-66.584616-14.153846-26.461538 5.415385-45.907692 20.061538-59.2 44.430769-14.030769 25.846154-21.169231 62.892308-21.169231 110.4zM191.2 534.4l-7.507692-28.553846c138.953846-36.553846 249.969231-61.538462 329.96923-74.092308 80.861538-12.8 192.615385-11.692308 332.43077 3.2l-3.076923 29.415385c-137.230769-14.646154-246.4-15.753846-324.676923-3.446154-79.138462 12.307692-189.169231 37.169231-327.138462 73.476923z" fill="#1C1B55" p-id="1903"></path><path d="M572.043077 891.072c-0.8-36.205538 3.252923-58.870154 12.520615-71.424 11.035077-14.897231 30.523077-18.345846 58.096-10.371692l-7.82523 27.212307c-14.150154-4.073846-24.515692-4.059077-27.516308 0.049231-2.32 3.169231-7.704615 14.883692-6.978462 53.922462l-28.296615 0.611692zM565.510154 890.985846l-28.342154-0.502154c0.72-40.294154-3.656615-58.859077-7.501538-67.394461-4.487385-9.937231-12.475077-15.677538-25.16677-17.676308l4.676923-28.049231c22.075077 3.640615 38.157538 15.376 46.472616 34.093539 7.363692 16.430769 10.603077 42.443077 9.860923 79.528615z" fill="#1C1B55" p-id="1904"></path></svg>