<?xml version="1.0" standalone="no"?><!DOCTYPE svg PUBLIC "-//W3C//DTD SVG 1.1//EN" "http://www.w3.org/Graphics/SVG/1.1/DTD/svg11.dtd"><svg t="1670398578385" class="icon" viewBox="0 0 1039 1024" version="1.1" xmlns="http://www.w3.org/2000/svg" p-id="2550" xmlns:xlink="http://www.w3.org/1999/xlink" width="202.9296875" height="200"><path d="M337.261538 733.784615c36.923077 77.538462 100.430769 119.384615 190.646154 125.661539s159.507692-35.569231 208.123077-125.661539h-398.769231z" fill="#FFFFFF" p-id="2551"></path><path d="M545.138462 886.646154c-6.276923 0-12.553846-0.246154-18.953847-0.615385-99.938462-6.892308-171.569231-54.276923-212.8-140.676923L295.292308 707.323077h485.415384l-21.16923 39.261538c-26.584615 49.107692-59.692308 85.907692-98.584616 109.292308-34.215385 20.430769-73.107692 30.769231-115.815384 30.769231zM337.261538 733.784615c18.338462 38.523077 43.692308 68.676923 75.2 89.476923 31.630769 20.923077 70.523077 33.107692 115.323077 36.184616 44.8 3.076923 84.923077-5.784615 119.384616-26.584616 34.707692-20.8 64.615385-54.153846 88.861538-99.076923h-398.769231z" fill="#1C1B55" p-id="2552"></path><path d="M560.030769 884.184615h-0.123077c-5.046154-0.123077-9.476923-3.569231-10.584615-8.615384l-23.138462-100.061539-21.046153 96.246154c-1.107692 5.169231-5.784615 8.861538-11.076924 8.738462-5.292308-0.123077-9.723077-4.061538-10.584615-9.23077l-15.507692-93.538461-20.553846 77.538461c-1.230769 4.430769-5.046154 7.753846-9.6 8.246154-4.553846 0.492308-8.984615-1.969231-11.076923-6.153846L363.476923 729.846154c-2.707692-5.538462-0.492308-12.184615 5.046154-14.892308 5.538462-2.707692 12.184615-0.492308 14.892308 5.046154l50.092307 101.046154 26.215385-98.953846c1.353846-5.046154 6.030769-8.492308 11.2-8.246154 5.169231 0.246154 9.6 4.061538 10.461538 9.230769l14.523077 87.507692 19.2-88.123077c1.107692-5.046154 5.538462-8.738462 10.707693-8.738461h0.123077c5.169231 0 9.6 3.569231 10.830769 8.615385l24.123077 104.615384 27.815384-104.984615c1.230769-4.8 5.661538-8.246154 10.707693-8.246154s9.353846 3.323077 10.707692 8.123077l24.369231 89.353846 25.723077-89.476923c1.723077-5.907692 7.876923-9.230769 13.661538-7.630769 5.907692 1.723077 9.230769 7.876923 7.630769 13.661538L644.830769 855.261538c-1.353846 4.8-5.661538 8-10.584615 8h-0.123077c-4.923077 0-9.353846-3.323077-10.584615-8.123076l-24-87.753847-28.676924 108.43077c-1.353846 5.046154-5.784615 8.369231-10.830769 8.36923z" fill="#1C1B55" p-id="2553"></path><path d="M258.369231 733.538462l12.430769 17.723076L258.369231 921.230769h65.723077V733.538462z" fill="#D4F1FF" p-id="2554"></path><path d="M350.676923 947.815385h-120.984615L243.6 758.769231l-36.430769-51.815385H350.676923v240.861539z m-92.307692-26.584616h65.723077V733.538462H258.369231l12.430769 17.723076L258.369231 921.230769z" fill="#1C1B55" p-id="2555"></path><path d="M692.830769 354.215385L739.969231 656h51.076923l-37.784616-287.876923L692.830769 294.153846z" fill="#D4F1FF" p-id="2556"></path><path d="M821.446154 682.584615h-104.123077l-50.953846-326.153846V219.569231l112.369231 137.6 42.707692 325.415384zM739.969231 656h51.076923l-37.784616-287.876923L692.830769 294.153846v60.061539L739.969231 656z" fill="#1C1B55" p-id="2557"></path><path d="M300.707692 495.630769L278.061538 658.830769h48.738462l14.646154-152.369231-14.646154-53.538461z" fill="#D4F1FF" p-id="2558"></path><path d="M350.923077 685.415385h-103.384615l27.56923-199.015385 60.923077-99.815385 32.369231 117.538462-17.476923 181.292308zM278.061538 658.830769h48.738462l14.769231-152.369231-14.769231-53.538461-25.969231 42.707692L278.061538 658.830769z" fill="#1C1B55" p-id="2559"></path><path d="M86.061538 421.292308c32.615385-34.707692 62.4-55.753846 89.476924-63.138462s74.830769-7.384615 143.138461 0c-10.707692-13.907692-21.046154-22.769231-31.261538-26.461538-8.615385-3.2-52.8 7.015385-111.876923-7.876923-7.138462-1.846154-15.138462-11.076923-24.123077-27.938462 47.753846-17.107692 80.861538-23.876923 99.446153-20.553846s51.692308 22.153846 99.692308 56.369231c-2.707692-25.107692-7.261538-43.938462-13.907692-56.369231S313.507692 249.846154 287.538462 236.307692c38.892308 3.076923 62.523077 9.6 70.76923 19.692308 8.369231 10.092308 15.753846 35.323077 22.4 75.569231 36.8-9.476923 61.784615-12.061538 74.953846-7.876923s36.430769 22.4 69.784616 54.523077c-30.769231-8.246154-54.030769-12.430769-69.784616-12.43077s-40.738462 4.184615-74.953846 12.43077c61.292308 12.184615 104.738462 28.8 130.338462 49.96923s39.630769 52.061538 42.215384 92.676923l-158.646153-119.384615c23.015385 50.338462 36.8 86.892308 41.476923 109.661539 4.676923 22.892308 6.892308 64.369231 6.646154 124.8-14.523077-36.553846-25.846154-61.169231-34.215385-73.6-23.015385-34.584615-43.076923-43.938462-50.215385-67.938462-6.030769-20.061538-8.615385-44.307692-7.876923-72.984615-37.661538 15.015385-58.584615 33.969231-63.015384 56.861538-4.061538 21.046154-22.523077 41.230769-55.507693 60.430769-6.153846-34.092308-6.153846-57.6 0-70.523077s29.784615-38.523077 70.769231-77.046153c-35.815385 8.984615-61.292308 14.523077-76.430769 16.615384-11.815385 1.6-40.369231-8.369231-92.8-6.153846-9.846154 0.369231-25.723077 7.015385-47.384616 19.692308z" fill="#FFF7A6" p-id="2560"></path><path d="M455.661538 718.646154c-5.415385 0-10.338462-3.323077-12.307692-8.369231l-25.353846-64.492308c-16.984615-43.2-26.584615-61.169231-31.507692-68.676923-5.415385-8.123077-10.953846-15.261538-18.338462-23.507692-0.123077-0.123077-0.246154-0.246154-0.369231-0.492308-0.615385-0.615385-1.107692-1.230769-1.723077-1.846154-1.353846-1.476923-3.2-3.569231-5.16923-5.661538-5.292308-5.907692-8.738462-9.846154-10.338462-11.692308-8.738462-10.707692-14.153846-20.553846-17.6-31.876923-3.323077-11.076923-5.661538-23.261538-7.261538-36.430769-6.030769 5.169231-10.707692 11.076923-12.061539 17.723077-5.661538 29.292308-27.938462 54.892308-68.184615 78.4l-16.369231 9.6c-3.692308 2.215385-8.369231 2.461538-12.307692 0.615385s-6.769231-5.415385-7.507693-9.723077l-3.446153-18.707693c-7.384615-40.738462-6.646154-68.307692 2.215384-86.76923 2.953846-6.030769 7.876923-13.292308 15.138462-22.153847-3.692308 0-7.630769-0.369231-11.938462-0.984615-1.476923-0.246154-6.030769-0.861538-10.338461-1.476923-3.446154-0.492308-6.769231-0.984615-8.246154-1.230769-20.676923-2.830769-38.030769-3.569231-57.969231-2.83077-0.369231 0-8.615385 0.492308-35.076923 16.123077L19.969231 491.076923c-5.661538 3.323077-13.046154 1.969231-17.107693-3.2s-3.815385-12.553846 0.738462-17.353846l63.138462-67.446154c29.415385-31.384615 56.861538-52.553846 83.323076-64-6.646154-6.030769-14.030769-15.507692-22.153846-30.646154l-7.261538-13.661538c-1.846154-3.446154-2.092308-7.507692-0.738462-11.076923 1.353846-3.569231 4.307692-6.4 7.876923-7.753846l14.523077-5.169231c52.184615-18.584615 87.630769-25.6 111.261539-22.030769l-36.8-19.076924c-5.661538-2.953846-8.369231-9.353846-6.646154-15.507692 1.723077-6.030769 7.507692-10.092308 13.784615-9.6l65.353846 5.046154c48.861538 3.815385 75.569231 12.553846 89.353847 29.415385 9.353846 11.323077 16.492308 30.276923 22.892307 60.307692 27.815385-5.415385 47.630769-5.661538 62.03077-1.107692 17.723077 5.661538 42.461538 24.369231 80.123076 60.676923l37.292308 35.815384c4.430769 4.184615 5.292308 10.830769 2.338462 16.123077-2.953846 5.292308-9.107692 7.876923-15.015385 6.276923l-42.953846-11.56923c0.861538 0.615385 1.6 1.230769 2.461538 1.96923 31.384615 25.846154 48.738462 63.384615 51.815385 111.384616l1.846154 28.8c0.369231 5.169231-2.338462 10.092308-7.015385 12.553846-4.553846 2.461538-10.092308 2.092308-14.276923-1.107692L455.046154 480c3.076923 9.6 5.415385 18.092308 6.892308 25.476923 5.046154 24.861538 7.507692 67.446154 7.138461 130.215385l-0.246154 69.292307c0 6.4-4.553846 11.815385-10.830769 13.046154-0.738462 0.492308-1.6 0.615385-2.338462 0.615385zM387.6 535.507692c0.123077 0.123077 0.246154 0.246154 0.246154 0.369231 8.123077 9.230769 14.523077 17.353846 20.676923 26.461539 8.369231 12.430769 19.815385 37.292308 34.092308 73.723076 0.246154-60.061538-1.969231-102.030769-6.646154-124.8-3.076923-15.138462-10.338462-36.553846-21.415385-63.753846-2.215385-5.538462-0.615385-11.938462 4.184616-15.507692 4.676923-3.692308 11.323077-3.692308 16.123076-0.123077l118.4 88.984615c-2.584615-40.369231-16.738462-71.630769-42.215384-92.676923-16.123077-13.292308-39.630769-24.984615-70.030769-34.707692-13.661538 1.723077-31.753846 5.169231-54.03077 10.584615-3.938462 0.984615-8 0.123077-11.2-2.338461-3.2-2.461538-5.046154-6.276923-5.16923-10.215385l-0.492308-25.96923c-0.123077-4.061538 1.723077-7.876923 4.8-10.461539 3.076923-2.584615 7.138462-3.692308 11.076923-2.830769 21.169231 4.184615 40.615385 8.984615 57.723077 14.276923 4.430769-0.369231 8.492308-0.615385 11.938461-0.615385 15.630769 0 39.138462 4.184615 69.784616 12.43077-33.230769-32-56.615385-50.338462-69.784616-54.523077-11.446154-3.692308-32.123077-2.215385-61.292307 4.553846-3.569231 0.861538-7.261538 0.123077-10.215385-1.846154-3.076923-1.969231-5.169231-5.169231-5.784615-8.738462-5.907692-32-12.676923-52.8-19.938462-61.661538-8.369231-10.215385-31.507692-16.738462-70.769231-19.692308 25.969231 13.415385 42.461538 26.584615 49.107693 39.015385 3.446154 6.4 6.4 14.646154 8.738461 24.492308 1.230769 5.292308-0.861538 10.830769-5.292307 14.030769-4.553846 3.076923-10.461538 3.2-15.015385 0.123077-34.215385-22.892308-59.076923-35.938462-74.092308-38.646154-18.461538-3.323077-51.815385 3.569231-99.446154 20.553846 9.107692 16.984615 16.984615 26.092308 24.123077 27.938462 7.138462 1.846154 13.907692 3.2 20.676923 4.430769 6.523077 1.107692 11.2 6.892308 10.953847 13.415384s-5.169231 12.061538-11.692308 12.8c-7.507692 0.861538-14.276923 2.092308-19.938462 3.692308-26.953846 7.261538-57.107692 28.553846-89.476923 63.138462 32.492308-19.2 43.815385-19.569231 47.507693-19.815385 21.661538-0.861538 40.369231 0 62.646153 2.953846 1.6 0.246154 4.923077 0.738462 8.492308 1.230769 4.184615 0.615385 8.369231 1.230769 9.846154 1.353847 5.784615 0.738462 9.107692 0.861538 11.692308 0.492307 7.384615-0.984615 17.476923-2.953846 29.784615-5.538461 5.784615-1.230769 11.569231 1.476923 14.4 6.646154 2.830769 5.169231 1.969231 11.569231-2.215385 15.753846-19.938462 20.307692-32.246154 34.953846-36.430769 43.692307-6.153846 12.8-6.153846 36.553846 0 70.523077 32.738462-19.076923 51.446154-39.384615 55.507693-60.430769 3.569231-18.584615 18.215385-34.707692 43.56923-48 4.061538-2.092308 8.861538-1.969231 12.923077 0.246154 3.938462 2.338462 6.4 6.523077 6.646154 11.076923 0.615385 19.938462 3.323077 37.784615 7.753846 52.8 2.338462 7.876923 6.153846 14.646154 12.676923 22.523077 2.707692 3.446154 14.892308 16.861538 16.492308 18.584615z" fill="#1C1B55" p-id="2561"></path><path d="M423.292308 282.215385c23.507692-39.261538 48.123077-63.384615 74.092307-72.369231s70.769231-8.984615 134.892308 0c-19.569231-12.061538-35.692308-20.061538-48.492308-24.123077-12.8-4.061538-36.553846-8.492308-71.261538-13.538462 25.723077-22.030769 53.661538-31.876923 83.815385-29.292307 30.153846 2.584615 55.138462 16.861538 75.2 42.830769 8.984615-29.046154 28.553846-50.092308 58.584615-62.892308 30.030769-12.8 62.153846-12.8 96.246154 0-31.384615 16.492308-52.061538 28.8-62.030769 37.046154-9.969231 8.246154-21.415385 22.4-34.338462 42.707692 54.276923-9.230769 97.6-6.769231 129.969231 7.261539 32.369231 14.153846 64.738462 43.569231 97.230769 88.492308-36.8 4.430769-62.646154 4.430769-77.538462 0s-64.861538-26.830769-149.661538-67.323077c41.723077 30.892308 73.723077 61.169231 96.246154 90.830769 22.523077 29.661538 40.369231 79.138462 53.415384 148.430769-59.692308-49.969231-102.276923-89.846154-127.753846-119.630769-25.476923-29.784615-46.030769-64-61.661538-102.4-30.892308 97.230769-50.215385 166.646154-58.092308 208.492308s-7.753846 75.815385 0 102.030769c-49.846154-58.953846-73.107692-119.015385-69.907692-180.307693 3.2-61.169231 29.538462-104.615385 79.138461-130.338461-35.938462 14.030769-62.276923 22.4-79.138461 24.984615-16.738462 2.584615-63.015385 5.661538-138.953846 9.107693z" fill="#80CFF5" p-id="2562"></path><path d="M652.953846 624.492308l-41.107692-48.615385c-54.030769-64-79.753846-130.953846-76.184616-198.769231 1.476923-28.430769 7.507692-53.907692 18.092308-76.061538-23.261538 2.338462-65.846154 4.923077-129.353846 7.876923l-49.353846 2.215385 25.353846-42.461539c21.907692-36.553846 44.923077-61.538462 69.907692-75.569231l-19.815384-2.830769 44.553846-38.153846c31.261538-26.830769 66.092308-38.769231 103.384615-35.569231 24.492308 2.092308 46.523077 10.461538 65.723077 24.861539 13.415385-18.461538 32-32.861538 55.384616-42.83077 36.430769-15.507692 75.446154-15.630769 115.938461-0.492307l55.630769 20.8-52.676923 27.56923c-20.430769 10.707692-34.092308 18.461538-43.2 24.123077 28.676923 0.615385 53.907692 5.661538 75.2 14.892308 37.169231 16.123077 72.492308 48 108.184616 97.353846l26.461538 36.553846-44.8 5.415385c-41.353846 4.923077-69.415385 4.676923-88.246154-0.861538-3.815385-1.107692-9.230769-3.076923-16.369231-6.03077 21.169231 33.353846 37.538462 81.846154 49.969231 147.446154l13.784616 72.984616-56.738462-47.753847c-61.415385-51.446154-104.246154-91.569231-130.953846-122.830769-13.046154-15.261538-24.861538-31.630769-35.569231-49.107692-19.323077 63.753846-32 111.753846-37.784615 142.769231-7.015385 37.415385-7.261538 67.569231-0.615385 89.6l18.215385 61.046153-23.015385 12.43077z m-40.738461-363.446154L590.676923 290.707692c-16.984615 23.261538-26.461538 52.8-28.307692 87.63077-3.2 60.923077 20.307692 121.6 69.907692 180.307692-7.753846-26.092308-7.753846-60.430769 0-102.030769 6.892308-36.553846 22.769231-95.261538 47.384615-174.4l0.369231-1.107693 9.723077-31.138461 14.769231 29.046154c13.292308 25.969231 29.292308 50.092308 47.507692 71.507692 25.353846 29.661538 68.307692 69.907692 127.753846 119.630769-13.046154-68.923077-31.015385-118.769231-53.415384-148.430769-7.261538-9.6-15.507692-19.323077-24.738462-28.923077l15.138462-21.292308c33.107692 15.138462 54.276923 24.123077 63.015384 26.707693 14.892308 4.430769 40.984615 4.430769 77.538462 0-32.369231-44.676923-64.984615-74.461538-97.230769-88.492308-26.092308-11.323077-59.815385-15.138462-100.307693-11.323077l-31.261538 2.953846 19.569231-24.492308c5.784615-7.261538 11.2-13.046154 16.246154-17.107692 9.846154-8.246154 30.769231-20.676923 62.030769-37.046154-33.969231-12.676923-66.338462-12.676923-96.246154 0-23.261538 9.969231-40.369231 24.984615-51.076923 44.676923l-8.246154 15.384616-12.676923-12.061539c-17.353846-16.492308-38.276923-25.969231-61.907692-27.938461-30.030769-2.584615-58.215385 7.261538-83.815385 29.292307 11.2 1.6 21.292308 3.2 30.276923 4.676924l-1.846154 26.338461c-17.969231 0.615385-32.615385 2.830769-43.569231 6.523077-25.723077 8.861538-50.584615 33.230769-74.092307 72.369231 75.569231-3.446154 122.338462-6.523077 139.076923-9.107693 4.184615-0.615385 8.984615-1.6 14.276923-2.953846l35.692308-8.861538z" fill="#1C1B55" p-id="2563"></path><path d="M823.538462 732.307692l-12.307693 13.169231 12.307693 184.861539h-64.738462L746.615385 733.538462z" fill="#D4F1FF" p-id="2564"></path><path d="M851.969231 956.923077h-118.030769l-15.507693-249.6 167.015385-2.584615-46.892308 50.461538 13.415385 201.723077z m-93.169231-26.584615h64.615385l-12.307693-184.861539 12.307693-13.169231-76.923077 1.23077 12.307692 196.8zM705.384615 812.8h-0.492307L351.907692 797.907692c-6.769231-0.246154-12.061538-6.030769-11.815384-12.8 0.246154-6.769231 6.030769-12.061538 12.8-11.815384l352.984615 14.892307c6.769231 0.246154 12.061538 6.030769 11.815385 12.8-0.369231 6.646154-5.784615 11.815385-12.307693 11.815385z" fill="#1C1B55" p-id="2565"></path><path d="M434.492308 266.338462c20.430769-29.661538 41.846154-48.738462 64-57.107693s67.2-7.507692 135.015384 2.461539c-17.723077-12.061538-32.738462-20.184615-44.923077-24.246154-12.184615-4.184615-37.169231-9.723077-74.830769-16.492308 17.476923-11.323077 31.138462-18.584615 40.861539-21.907692 31.876923-10.707692 66.215385-6.153846 76.676923 0 21.415385 12.553846 33.723077 23.507692 36.8 32.861538 22.030769-33.969231 44.553846-54.892308 67.815384-62.76923s52.307692-7.876923 87.507693 0c-47.138462 2.338462-76.307692 8.861538-87.507693 19.323076-16.861538 15.876923-46.030769 60.553846-60.061538 60.676924-14.030769 0.246154-42.338462-36.553846-64.246154-39.876924-14.646154-2.215385-24.123077-1.107692-28.676923 3.323077 20.307692 7.630769 34.338462 14.030769 42.215385 19.323077 11.692308 7.876923 29.169231 23.876923 31.138461 29.907693 1.969231 6.030769-5.292308 11.446154-17.723077 11.446153-58.953846 0-96.492308-7.507692-130.461538 0-18.830769 4.061538-43.323077 18.461538-73.6 43.076924zM612.092308 272.861538c-13.661538 42.461538-22.523077 79.015385-26.584616 109.907693-4.061538 30.892308-0.369231 72.738462 11.323077 125.538461-23.630769-61.292308-34.092308-107.692308-31.261538-139.323077 2.830769-31.630769 18.338462-63.753846 46.523077-96.123077z" fill="#D4F1FF" p-id="2566"></path><path d="M310.676923 734.646154l-10.338461 186.461538h22.892307V734.646154zM715.107692 353.723077l8.615385 193.723077-40.246154-253.415385zM795.846154 734.276923l5.169231 194.707692h23.261538l-14.153846-183.753846 14.153846-10.953846z" fill="#80CFF5" p-id="2567"></path></svg>