<?xml version="1.0" standalone="no"?><!DOCTYPE svg PUBLIC "-//W3C//DTD SVG 1.1//EN" "http://www.w3.org/Graphics/SVG/1.1/DTD/svg11.dtd"><svg t="1670398805648" class="icon" viewBox="0 0 1024 1024" version="1.1" xmlns="http://www.w3.org/2000/svg" p-id="3078" xmlns:xlink="http://www.w3.org/1999/xlink" width="200" height="200"><path d="M517.538462 672.615385m-89.23077 0a89.230769 89.230769 0 1 0 178.461539 0 89.230769 89.230769 0 1 0-178.461539 0Z" fill="#FFF7A6" p-id="3079"></path><path d="M517.538462 775.138462c-56.492308 0-102.523077-46.030769-102.523077-102.523077s46.030769-102.523077 102.523077-102.523077 102.523077 46.030769 102.523076 102.523077-46.030769 102.523077-102.523076 102.523077z m0-178.461539c-41.846154 0-75.938462 34.092308-75.938462 75.938462s34.092308 75.938462 75.938462 75.938461 75.938462-34.092308 75.938461-75.938461-34.092308-75.938462-75.938461-75.938462z" fill="#1C1B55" p-id="3080"></path><path d="M432 654.769231h171.076923c2.461538 7.138462 3.692308 14.4 3.692308 21.538461s-1.230769 14.4-3.692308 21.538462H432c-2.461538-7.138462-3.692308-14.4-3.692308-21.538462s1.230769-14.4 3.692308-21.538461z" fill="#FFFFFF" p-id="3081"></path><path d="M612.553846 711.138462H422.523077l-3.076923-8.984616c-2.953846-8.492308-4.430769-17.230769-4.430769-25.846154s1.476923-17.353846 4.430769-25.846154l3.076923-8.984615h190.030769l3.076923 8.984615c2.953846 8.492308 4.430769 17.230769 4.430769 25.846154s-1.476923 17.353846-4.430769 25.846154l-3.076923 8.984616z m-170.215384-26.584616h150.523076c0.492308-2.707692 0.738462-5.538462 0.738462-8.246154s-0.246154-5.538462-0.738462-8.246154H442.338462c-0.492308 2.707692-0.738462 5.538462-0.738462 8.246154s0.246154 5.538462 0.738462 8.246154z" fill="#1C1B55" p-id="3082"></path><path d="M517.538462 216m-58.461539 0a58.461538 58.461538 0 1 0 116.923077 0 58.461538 58.461538 0 1 0-116.923077 0Z" fill="#80CFF5" p-id="3083"></path><path d="M517.538462 287.753846c-39.507692 0-71.753846-32.246154-71.753847-71.753846s32.246154-71.753846 71.753847-71.753846 71.753846 32.246154 71.753846 71.753846-32.246154 71.753846-71.753846 71.753846z m0-116.923077c-24.861538 0-45.169231 20.307692-45.169231 45.169231s20.307692 45.169231 45.169231 45.169231 45.169231-20.307692 45.16923-45.169231-20.307692-45.169231-45.16923-45.169231z" fill="#1C1B55" p-id="3084"></path><path d="M486.153846 268.307692v314.953846h60.307692V268.307692c-10.092308 3.938462-20.061538 6.030769-30.153846 6.03077s-20.061538-2.092308-30.153846-6.03077z" fill="#FFFFFF" p-id="3085"></path><path d="M559.753846 596.553846h-86.892308V248.738462L491.076923 256c8.492308 3.323077 16.984615 5.046154 25.230769 5.046154 8.369231 0 16.861538-1.723077 25.23077-5.046154l18.215384-7.261538v347.815384z m-60.307692-26.584615h33.723077V286.030769c-11.2 2.092308-22.523077 2.092308-33.723077 0v283.938462z" fill="#1C1B55" p-id="3086"></path><path d="M445.907692 735.138462l-94.523077 181.661538" fill="#FFFFFF" p-id="3087"></path><path d="M339.507692 910.752l94.572308-181.787077 23.582769 12.269539-94.572307 181.787076z" fill="#1C1B55" p-id="3088"></path><path d="M394.461538 832.615385m-35.076923 0a35.076923 35.076923 0 1 0 70.153847 0 35.076923 35.076923 0 1 0-70.153847 0Z" fill="#FFFFFF" p-id="3089"></path><path d="M394.461538 880.984615c-26.707692 0-48.369231-21.661538-48.36923-48.36923s21.661538-48.369231 48.36923-48.369231 48.369231 21.661538 48.369231 48.369231-21.661538 48.369231-48.369231 48.36923z m0-70.153846c-12.061538 0-21.784615 9.723077-21.784615 21.784616s9.723077 21.784615 21.784615 21.784615 21.784615-9.723077 21.784616-21.784615-9.723077-21.784615-21.784616-21.784616z" fill="#1C1B55" p-id="3090"></path><path d="M586.707692 733.907692l95.261539 184.738462" fill="#FFFFFF" p-id="3091"></path><path d="M574.939077 740.008615l23.628308-12.187077 95.291077 184.761847-23.628308 12.185846z" fill="#1C1B55" p-id="3092"></path><path d="M639.384615 832.615385m-35.076923 0a35.076923 35.076923 0 1 0 70.153846 0 35.076923 35.076923 0 1 0-70.153846 0Z" fill="#FFFFFF" p-id="3093"></path><path d="M639.384615 880.984615c-26.707692 0-48.369231-21.661538-48.36923-48.36923s21.661538-48.369231 48.36923-48.369231 48.369231 21.661538 48.369231 48.369231-21.661538 48.369231-48.369231 48.36923z m0-70.153846c-12.061538 0-21.784615 9.723077-21.784615 21.784616s9.723077 21.784615 21.784615 21.784615 21.784615-9.723077 21.784616-21.784615-9.723077-21.784615-21.784616-21.784616z" fill="#1C1B55" p-id="3094"></path><path d="M471.384615 941.415385V749.538462c12.8 8.861538 28.8 13.046154 48 12.676923 19.2-0.369231 35.2-4.676923 48-12.676923v191.876923" fill="#FFFFFF" p-id="3095"></path><path d="M580.676923 941.415385h-26.584615V770.215385c-10.338462 3.323077-21.907692 5.169231-34.461539 5.415384-12.8 0.246154-24.492308-1.353846-34.953846-4.8V941.538462h-26.584615V724.184615l20.8 14.4c10.461538 7.261538 24 10.707692 40.123077 10.338462 16.615385-0.369231 30.523077-3.938462 41.230769-10.707692l20.430769-12.8v216z" fill="#1C1B55" p-id="3096"></path><path d="M472.615385 216.615385h89.476923c0-7.138462-0.492308-12.307692-1.723077-15.63077-6.769231-18.953846-22.523077-29.784615-42.953846-29.907692-20.184615-0.123077-35.446154 11.446154-42.215385 29.907692-1.353846 3.446154-2.215385 8.615385-2.584615 15.63077z" fill="#D4F1FF" p-id="3097"></path><path d="M520.615385 146.953846V31.384615" fill="#FFFFFF" p-id="3098"></path><path d="M507.323077 31.384615h26.584615v115.569231h-26.584615z" fill="#1C1B55" p-id="3099"></path><path d="M518.153846 763.076923v179.2" fill="#FFFFFF" p-id="3100"></path><path d="M504.861538 763.076923h26.584616v179.2h-26.584616z" fill="#1C1B55" p-id="3101"></path><path d="M495.630769 379.323077h42.953846" fill="#FFFFFF" p-id="3102"></path><path d="M495.630769 366.030769h42.953846V392.615385h-42.953846z" fill="#1C1B55" p-id="3103"></path><path d="M495.630769 428.553846h42.953846" fill="#FFFFFF" p-id="3104"></path><path d="M495.630769 415.261538h42.953846V441.846154h-42.953846z" fill="#1C1B55" p-id="3105"></path><path d="M495.630769 477.784615h42.953846" fill="#FFFFFF" p-id="3106"></path><path d="M495.630769 464.492308h42.953846V491.076923h-42.953846z" fill="#1C1B55" p-id="3107"></path><path d="M495.630769 330.092308h42.953846" fill="#FFFFFF" p-id="3108"></path><path d="M495.630769 316.8h42.953846V343.384615h-42.953846z" fill="#1C1B55" p-id="3109"></path><path d="M564.184615 884.923077l-44.553846-21.169231-44.430769 18.092308-9.969231-24.615385 55.261539-22.523077 55.138461 26.338462z" fill="#1C1B55" p-id="3110"></path><path d="M782.646154 197.661538l42.953846 2.092308 52.307692 2.584616c7.876923 0.246154 14.4-5.538462 15.138462-13.415385 0.246154-7.876923-5.538462-14.4-13.415385-15.138462l-52.307692-2.584615-40.369231-71.876923c-2.338462-4.061538-6.523077-6.769231-11.2-6.892308l-2.092308-0.123077c-4.061538-0.123077-7.630769 3.076923-7.753846 7.138462 0 0.615385 0 1.230769 0.123077 1.846154l14.523077 68.061538-48.861538-2.830769-9.723077-14.153846c-2.338462-3.446154-6.153846-5.661538-10.338462-5.907693h-0.615384c-2.953846-0.123077-5.661538 2.092308-5.784616 5.169231 0 0.492308 0 0.984615 0.123077 1.476923l7.138462 33.723077c0.861538 4.307692 4.553846 7.507692 8.984615 7.753846l8.369231 0.492308 52.8 2.584615z" fill="#FFF7A6" p-id="3111"></path><path d="M878.4 211.323077h-0.861538l-95.261539-4.676923-52.923077-2.461539-8.369231-0.492307c-8.369231-0.492308-15.507692-6.646154-17.230769-14.892308L696.615385 155.076923c-0.246154-1.230769-0.369231-2.584615-0.246154-3.815385 0.246154-3.815385 1.969231-7.384615 4.8-9.96923 2.830769-2.584615 6.646154-3.815385 10.461538-3.569231h0.492308c7.015385 0.369231 13.292308 3.938462 17.230769 9.723077l7.138462 10.461538 32.738461 1.846154-12.061538-56.615384c-0.246154-1.353846-0.369231-2.707692-0.369231-4.061539 0.123077-4.430769 2.092308-8.492308 5.292308-11.446154 3.2-2.953846 7.384615-4.553846 11.815384-4.307692l2.092308 0.123077c7.876923 0.369231 14.892308 4.676923 18.707692 11.446154l37.907693 67.56923 47.753846 2.338462c12.8 1.230769 22.030769 11.692308 21.661538 24.492308v0.492307c-1.353846 12.430769-11.323077 21.538462-23.630769 21.538462z m-148.061538-25.107692l52.676923 2.461538 95.138461 4.676923c2.953846 0.123077 5.415385-1.969231 5.784616-5.046154 0-2.953846-2.092308-5.292308-5.169231-5.661538l-56.984616-2.830769L779.076923 103.630769c-0.738462-1.353846-2.215385-2.215385-3.815385-2.338461h-0.123076l16.492307 77.661538-65.107692-3.692308-10.830769-15.753846 5.415384 25.476923c0.123077 0.369231 0.369231 0.615385 0.738462 0.738462l8.492308 0.492308z" fill="#1C1B55" p-id="3112"></path><path d="M178.461538 934.153846l1.23077-280.615384c0-2.707692 2.215385-4.923077 4.923077-4.923077h134.153846c2.707692 0 4.923077 2.215385 4.923077 4.923077v246.4c-29.661538 0.738462-50.215385 2.707692-61.538462 5.784615-11.323077 3.076923-39.138462 12.676923-83.692308 28.430769z" fill="#FFFFFF" p-id="3113"></path><path d="M178.461538 946.707692c-2.584615 0-5.169231-0.738462-7.261538-2.338461-3.323077-2.338462-5.292308-6.153846-5.292308-10.338462l1.23077-280.738461c0-9.6 7.876923-17.353846 17.476923-17.353846h134.153846c9.6 0 17.476923 7.876923 17.476923 17.476923v246.4c0 6.769231-5.415385 12.430769-12.307692 12.553846-35.569231 0.861538-51.446154 3.323077-58.461539 5.292307-10.953846 3.076923-38.892308 12.553846-82.830769 28.184616-1.353846 0.615385-2.707692 0.861538-4.184616 0.861538z m13.784616-285.538461l-1.107692 255.261538c35.323077-12.430769 57.6-19.938462 67.692307-22.769231 10.707692-2.953846 27.938462-4.923077 52.307693-5.907692V661.169231h-118.892308z" fill="#1C1B55" p-id="3114"></path><path d="M310.276923 664.123077l-97.6 232.984615c28.8-12.923077 46.646154-19.569231 53.292308-19.815384s21.538462-0.492308 44.307692-0.492308V664.123077z" fill="#D4F1FF" p-id="3115"></path><path d="M187.692308 710.153846h129.230769" fill="#FFFFFF" p-id="3116"></path><path d="M316.923077 722.707692h-129.230769c-6.892308 0-12.553846-5.661538-12.553846-12.553846s5.661538-12.553846 12.553846-12.553846h129.230769c6.892308 0 12.553846 5.661538 12.553846 12.553846s-5.538462 12.553846-12.553846 12.553846z" fill="#1C1B55" p-id="3117"></path><path d="M187.692308 771.692308h129.230769" fill="#FFFFFF" p-id="3118"></path><path d="M316.923077 784.246154h-129.230769c-6.892308 0-12.553846-5.661538-12.553846-12.553846s5.661538-12.553846 12.553846-12.553846h129.230769c6.892308 0 12.553846 5.661538 12.553846 12.553846s-5.538462 12.553846-12.553846 12.553846z" fill="#1C1B55" p-id="3119"></path><path d="M187.692308 832h129.230769" fill="#FFFFFF" p-id="3120"></path><path d="M316.923077 844.553846h-129.230769c-6.892308 0-12.553846-5.661538-12.553846-12.553846s5.661538-12.553846 12.553846-12.553846h129.230769c6.892308 0 12.553846 5.661538 12.553846 12.553846s-5.538462 12.553846-12.553846 12.553846z" fill="#1C1B55" p-id="3121"></path><path d="M327.876923 893.784615c100.8 66.953846 317.415385 42.461538 409.476923-9.96923s-49.107692-75.076923-24.492308-162.584616c13.292308-47.630769 61.046154-47.630769 143.138462 0-53.169231-30.276923-80.984615-24.492308-83.323077 17.353846-3.569231 62.892308 132.061538 107.938462 83.323077 175.876923-83.323077 116.307692-487.384615 80.123077-528.123077 35.938462-27.2-29.415385-76.676923-35.2-148.676923-17.476923 65.846154-40.738462 115.323077-53.784615 148.676923-39.138462z" fill="#80CFF5" p-id="3122"></path><path d="M576.492308 1005.907692c-47.015385 0-95.507692-3.2-139.076923-9.230769-36.430769-5.046154-100.430769-16.738462-119.261539-37.169231-23.507692-25.476923-69.169231-30.030769-135.630769-13.538461-6.4 1.6-12.923077-1.723077-15.384615-7.753846-2.584615-6.030769-0.369231-13.046154 5.292307-16.492308 70.4-43.692308 123.076923-56.738462 160.984616-40 0.738462 0.246154 1.353846 0.615385 1.96923 1.107692 42.953846 28.553846 115.815385 42.215385 200 37.661539 75.938462-4.184615 150.892308-22.523077 195.692308-48 20.184615-11.569231 24.246154-19.076923 24.738462-22.646154 1.107692-7.261538-8.984615-18.338462-19.692308-30.153846-20.8-22.892308-49.230769-54.153846-35.938462-101.907693 5.661538-20.430769 16.984615-34.092308 33.6-40.861538 28.553846-11.569231 70.769231-0.861538 128.984616 32.984615 6.276923 3.692308 8.492308 11.815385 4.8 18.092308-3.692308 6.4-11.692308 8.492308-18.092308 4.923077-36.923077-21.046154-50.707692-17.969231-54.892308-15.753846-6.276923 3.446154-8.123077 14.030769-8.615384 22.276923-1.230769 21.046154 21.292308 43.076923 43.076923 64.369231 16.492308 16.123077 33.6 32.861538 43.076923 51.323077 11.938462 23.138462 10.092308 45.661538-5.292308 67.2-23.138462 32.246154-82.215385 72.738462-231.876923 81.96923-18.953846 0.984615-38.646154 1.6-58.461538 1.6z m-321.476923-96.246154c5.907692 0.123077 11.446154 0.492308 16.861538 1.107693 27.938462 3.323077 49.969231 13.538462 65.723077 30.646154 16.615385 18.092308 149.784615 45.169231 295.630769 36.184615 108.676923-6.646154 184-31.876923 211.938462-70.892308 18.953846-26.461538 3.2-46.769231-34.707693-83.938461-25.969231-25.476923-52.923077-51.815385-51.076923-84.923077 0.984615-16.615385 5.538462-29.292308 13.661539-37.538462-13.907692-2.584615-23.261538-1.353846-29.415385 1.107693-8.738462 3.569231-14.646154 11.2-17.969231 23.384615-9.353846 33.476923 10.584615 55.507692 30.03077 76.8 15.138462 16.615385 29.415385 32.369231 26.215384 52.184615-2.338462 15.015385-14.4 28.184615-37.907692 41.6-48.123077 27.323077-127.507692 47.015385-207.384615 51.446154-12.061538 0.615385-23.507692 0.984615-34.338462 0.984616-99.569231 0-154.953846-25.476923-180.676923-42.338462-16.738462-6.892308-39.015385-5.415385-66.584615 4.184615z" fill="#1C1B55" p-id="3123"></path><path d="M240 256h-71.384615c-22.4 0-40.615385-18.215385-40.615385-40.615385 0-22.030769 17.476923-39.876923 39.261538-40.615384h28.553847c9.353846-14.153846 25.353846-23.384615 43.56923-23.384616 28.923077 0 52.307692 23.384615 52.307693 52.307693 0 28.676923-23.138462 51.938462-51.692308 52.307692z" fill="#FFFFFF" p-id="3124"></path><path d="M240 270.769231h-71.384615c-30.523077 0-55.384615-24.861538-55.384616-55.384616 0-29.784615 23.015385-53.784615 52.553846-55.261538 0.492308 0 0.984615-0.123077 1.476923-0.123077h21.169231c12.676923-14.769231 31.138462-23.384615 50.953846-23.384615 37.046154 0 67.076923 30.030769 67.076923 67.076923 0 36.430769-29.538462 66.461538-65.96923 67.076923h-0.492308z m0-14.769231z m-71.876923-66.461538h-0.369231c-14.030769 0.492308-24.984615 11.815385-24.984615 25.846153 0 14.276923 11.569231 25.846154 25.846154 25.846154H239.753846c20.430769-0.246154 37.046154-17.107692 37.046154-37.538461 0-20.676923-16.861538-37.538462-37.538462-37.538462-12.553846 0-24.246154 6.276923-31.261538 16.738462-2.707692 4.061538-7.384615 6.646154-12.307692 6.646154h-27.569231z" fill="#1C1B55" p-id="3125"></path><path d="M726.153846 515.692308h-71.384615c-22.4 0-40.615385-18.215385-40.615385-40.615385 0-22.030769 17.476923-39.876923 39.261539-40.615385h28.553846c9.353846-14.153846 25.353846-23.384615 43.569231-23.384615 28.923077 0 52.307692 23.384615 52.307692 52.307692 0 28.676923-23.138462 51.938462-51.692308 52.307693z" fill="#FFFFFF" p-id="3126"></path><path d="M726.153846 530.461538h-71.384615c-30.523077 0-55.384615-24.861538-55.384616-55.384615a55.138462 55.138462 0 0 1 52.553847-55.261538c0.492308 0 0.984615-0.123077 1.476923-0.123077h21.16923c12.676923-14.769231 31.138462-23.384615 50.953847-23.384616 37.046154 0 67.076923 30.030769 67.076923 67.076923 0 36.430769-29.538462 66.461538-65.969231 67.076923h-0.492308z m0-14.76923z m-71.876923-66.461539h-0.369231c-14.030769 0.492308-24.984615 11.815385-24.984615 25.846154 0 14.276923 11.569231 25.846154 25.846154 25.846154H725.907692c20.430769-0.246154 37.046154-17.107692 37.046154-37.538462 0-20.676923-16.861538-37.538462-37.538461-37.538461-12.553846 0-24.246154 6.276923-31.261539 16.738461-2.707692 4.061538-7.384615 6.646154-12.307692 6.646154h-27.569231z" fill="#1C1B55" p-id="3127"></path><path d="M659.076923 484.923077h71.384615c3.076923 0 5.538462 2.461538 5.538462 5.538461s-2.461538 5.538462-5.538462 5.538462h-71.384615c-3.076923 0-5.538462-2.461538-5.538461-5.538462s2.461538-5.538462 5.538461-5.538461zM174.153846 225.230769h71.384616c3.076923 0 5.538462 2.461538 5.538461 5.538462s-2.461538 5.538462-5.538461 5.538461h-71.384616c-3.076923 0-5.538462-2.461538-5.538461-5.538461s2.461538-5.538462 5.538461-5.538462z" fill="#D4F1FF" p-id="3128"></path><path d="M673.230769 154.830769h-40.861538" fill="#FFFFFF" p-id="3129"></path><path d="M673.230769 163.2h-40.861538c-4.676923 0-8.369231-3.692308-8.369231-8.369231s3.692308-8.369231 8.369231-8.369231H673.230769c4.676923 0 8.369231 3.692308 8.369231 8.369231s-3.815385 8.369231-8.369231 8.369231z" fill="#1C1B55" p-id="3130"></path><path d="M673.230769 191.753846h-62.4" fill="#FFFFFF" p-id="3131"></path><path d="M673.230769 200.123077h-62.4c-4.676923 0-8.369231-3.692308-8.369231-8.369231s3.692308-8.369231 8.369231-8.369231H673.230769c4.676923 0 8.369231 3.692308 8.369231 8.369231s-3.815385 8.369231-8.369231 8.369231z" fill="#1C1B55" p-id="3132"></path><path d="M458.953846 947.446154c53.292308 4.430769 93.415385 5.907692 120.369231 4.430769 86.276923-4.676923 159.138462-24.369231 187.569231-48 36.553846-30.4 36.553846-59.815385 0-88.492308 31.138462 30.523077 17.6 59.938462-40.369231 88.492308-26.584615 13.046154-76.184615 27.569231-115.692308 34.830769-31.507692 5.661538-82.092308 8.615385-151.876923 8.738462z" fill="#D4F1FF" p-id="3133"></path><path d="M248.615385 654.4v237.292308" fill="#FFFFFF" p-id="3134"></path><path d="M248.615385 904.246154c-6.892308 0-12.553846-5.661538-12.553847-12.553846V654.4c0-6.892308 5.661538-12.553846 12.553847-12.553846s12.553846 5.661538 12.553846 12.553846v237.292308c0 6.892308-5.661538 12.553846-12.553846 12.553846z" fill="#1C1B55" p-id="3135"></path></svg>