<?xml version="1.0" standalone="no"?><!DOCTYPE svg PUBLIC "-//W3C//DTD SVG 1.1//EN" "http://www.w3.org/Graphics/SVG/1.1/DTD/svg11.dtd"><svg t="1670398367739" class="icon" viewBox="0 0 1024 1024" version="1.1" xmlns="http://www.w3.org/2000/svg" p-id="1713" xmlns:xlink="http://www.w3.org/1999/xlink" width="200" height="200"><path d="M312 377.353846v-0.738461c0-35.938462 11.323077-70.276923 32.615385-99.076923 12.430769-16.738462 30.892308-23.015385 50.461538-29.661539 7.630769-2.584615 15.507692-5.169231 23.015385-8.492308 7.261538-3.2 14.153846-8 20.923077-12.676923 11.938462-8.369231 24.369231-16.984615 39.753846-16.984615 59.938462 0 115.569231 32.369231 145.230769 84.676923l0.246154 0.492308-0.492308 0.36923-97.723077 66.83077h-0.246154c-60.923077 0-132.553846 5.046154-213.16923 15.138461l-0.615385 0.123077zM478.769231 211.076923c-15.015385 0-27.2 8.492308-39.015385 16.738462-6.769231 4.676923-13.661538 9.476923-21.046154 12.8-7.630769 3.323077-15.507692 6.030769-23.138461 8.615384-19.446154 6.523077-37.784615 12.676923-49.969231 29.169231-21.046154 28.430769-32.246154 62.153846-32.369231 97.6 80.246154-9.969231 151.630769-15.015385 212.430769-15.015385l96.984616-66.338461c-29.538462-51.569231-84.553846-83.569231-143.876923-83.569231z" fill="#979797" p-id="1714"></path><path d="M319.036308 345.809231c1.353846-9.969231 3.2-17.353846 5.415384-22.276923 2.338462-4.8 9.230769-16.123077 20.923077-33.846154 38.276923-10.584615 66.461538-19.938462 84.8-27.938462 18.338462-8 42.830769-21.538462 73.476923-40.861538 23.138462 3.446154 42.830769 8.615385 59.076923 15.630769 16.246154 7.015385 31.876923 19.2 46.769231 36.307692-21.538462 10.953846-37.046154 19.815385-46.769231 26.707693-9.723077 6.892308-22.892308 18.461538-39.507692 34.584615-46.646154-0.123077-79.015385-0.123077-97.107692 0-20.061538 0.123077-37.292308-0.861538-51.569231 0-18.338462 0.984615-31.384615 4.8-40.738462 7.015385-5.046154 1.230769-10.092308 2.830769-14.76923 4.676923z" fill="#FFF7A6" p-id="1715"></path><path d="M311.282462 392.332308h-26.584616c0-49.353846 18.215385-96.738462 51.076923-133.415385l19.815385 17.723077c-28.553846 31.876923-44.307692 72.984615-44.307692 115.692308z m310.030769-105.353846C588.820923 244.886154 540.944 221.624615 486.420923 221.624615V195.04c63.015385 0 118.276923 26.953846 155.938462 75.692308l-21.046154 16.246154z" fill="#1C1B55" p-id="1716"></path><path d="M401.005538 313.070769a21.661538 21.661538 0 1 0 43.323077 0 21.661538 21.661538 0 1 0-43.323077 0Z" fill="#1C1B55" p-id="1717"></path><path d="M422.667077 335.224615c-12.184615 0-22.153846-9.969231-22.153846-22.153846s9.969231-22.153846 22.153846-22.153846 22.153846 9.969231 22.153846 22.153846-9.846154 22.153846-22.153846 22.153846z m0-43.2c-11.569231 0-21.046154 9.476923-21.046154 21.046154s9.476923 21.046154 21.046154 21.046154 21.046154-9.476923 21.046154-21.046154-9.353846-21.046154-21.046154-21.046154z" fill="#979797" p-id="1718"></path><path d="M489.744 279.84a21.661538 21.661538 0 1 0 43.323077 0 21.661538 21.661538 0 1 0-43.323077 0Z" fill="#1C1B55" p-id="1719"></path><path d="M715.836308 759.224615c133.415385 0 241.6-108.184615 241.6-241.6S849.374769 275.901538 715.836308 275.901538c-73.353846 0-139.076923 32.615385-183.384616 84.184616H387.836308c-109.661538 0.615385-198.276923 89.723077-198.276923 199.507692s88.615385 198.892308 198.276923 199.507692l328 0.123077z" fill="#FFFFFF" p-id="1720"></path><path d="M715.836308 785.809231H387.713231c-60.184615-0.369231-116.676923-24-159.015385-66.707693-42.338462-42.707692-65.723077-99.323077-65.723077-159.384615 0-60.184615 23.384615-116.8 65.723077-159.384615 42.461538-42.707692 98.830769-66.338462 159.015385-66.707693h133.046154C571.344 279.963077 642.113231 249.44 715.959385 249.44c71.630769 0 138.953846 27.938462 189.661538 78.523077 50.707692 50.707692 78.523077 118.030769 78.523077 189.661538 0 71.630769-27.938462 138.953846-78.523077 189.661539-50.707692 50.707692-118.030769 78.523077-189.784615 78.523077zM387.836308 360.209231c-53.046154 0.369231-102.892308 21.169231-140.307693 58.830769-37.415385 37.661538-57.969231 87.630769-57.96923 140.676923 0 53.046154 20.553846 103.015385 57.96923 140.676923 37.415385 37.661538 87.261538 58.584615 140.307693 58.830769h328.123077c133.292308 0 241.6-108.430769 241.6-241.6 0-133.292308-108.430769-241.6-241.6-241.6-68.307692 0-133.784615 29.046154-179.446154 79.876923l-3.938462 4.43077H387.836308z" fill="#1C1B55" p-id="1721"></path><path d="M193.128615 779.409231c-2.215385 0-4.553846-0.615385-6.646153-1.723077l-73.23077-41.846154 13.169231-23.138462 66.584615 38.03077 55.63077-32.984616 13.538461 22.892308-62.276923 36.923077c-2.092308 1.230769-4.430769 1.846154-6.769231 1.846154zM218.851692 696.455385h-46.76923c-4.061538 0-7.876923-1.846154-10.461539-5.046154L127.897846 648.824615l20.8-16.492307 29.661539 37.538461h40.36923v26.584616z" fill="#1C1B55" p-id="1722"></path><path d="M339.298462 232.163692c-24.435692 14.249846-39.056 26.740923-36.508308 32.744616 4.184615 9.857231 53.028923-1.383385 109.108923-25.187693s98.096-51.132308 93.912615-60.989538c-2.692923-6.343385-23.629538-4.008615-52.96 4.697846" fill="#FFFFFF" p-id="1723"></path><path d="M313.595077 295.086769c-5.737846 0.028308-10.712615-0.668308-15.2-2.104615-9.298462-3.006769-16.355692-9.236923-19.913846-17.620923-2.886154-6.797538-4.642462-17.550769 3.027692-30.032 2.764308-4.516923 6.674462-8.849231 11.926154-13.485539 7.766154-6.905846 18.764308-14.382769 32.561231-22.512l1.37723-0.852923 116.498462-49.985231 1.521231-0.512c16.516923-4.871385 30.491077-7.860923 41.532307-8.937846 7.323077-0.701538 13.431385-0.487385 18.664616 0.500923 14.987077 2.864 21.76 11.889231 24.740923 18.913231 3.558154 8.382769 3.186462 17.900308-1.159385 26.563692-2.195692 4.275692-5.216 8.498462-9.287384 12.768-5.708308 5.764923-13.422769 11.847385-23.88677 18.695385-18.966154 12.329846-45.177846 25.863385-73.614769 37.932308-28.550154 12.119385-56.379077 21.526154-78.424615 26.604307-12.081231 2.722462-21.879385 4.206769-30.040616 4.195693-0.049231-0.113231-0.161231-0.065231-0.322461-0.130462z m25.703385-62.923077c-12.242462 7.068308-22.091077 13.789538-28.397539 19.409231-3.209846 2.832-5.577846 5.442462-6.926769 7.618462-2.145231 3.451077-1.52 4.924308-1.184 5.716923 0.241231 0.566154 0.770462 1.812923 3.579077 2.760615 1.84 0.555077 4.246154 0.871385 7.334154 0.898462 6.011077-0.012308 14.193231-1.212308 24.156307-3.569231 20.589538-4.728615 46.849231-13.735385 74.039385-25.277539 27.076923-11.494154 51.799385-24.126769 69.616-35.700923 8.568615-5.643077 15.163077-10.580923 19.347692-14.89723 2.124308-2.24 3.618462-4.076308 4.448-5.900308 1.270154-2.678154 0.740923-3.923692 0.500923-4.491077-0.337231-0.792615-1.009231-2.379077-5.208615-3.137231-2.777846-0.558769-6.528-0.571077-11.182769-0.199384-9.264 0.856615-21.846154 3.656615-36.455385 7.986461l-113.666461 48.782769z" fill="#1C1B55" p-id="1724"></path><path d="M429.169231 115.076923l26.338461 57.230769c-17.6 17.969231-27.076923 23.384615-48 33.353846s-32.246154 10.092308-63.630769 15.261539l-25.723077-66.215385 111.015385-39.630769z" fill="#FFFFFF" p-id="1725"></path><path d="M335.261538 248.984615c-5.415385 0-10.338462-3.323077-12.430769-8.492307l-34.584615-88.984616c-1.353846-3.323077-1.230769-7.138462 0.246154-10.338461 1.476923-3.323077 4.184615-5.784615 7.630769-7.015385l135.384615-48.246154c6.523077-2.338462 13.661538 0.738462 16.492308 7.015385l35.2 76.553846c2.338462 5.046154 1.230769 10.953846-2.584615 14.892308l-6.4 6.523077c-18.092308 18.461538-29.046154 26.092308-55.63077 38.76923-7.876923 3.815385-15.015385 6.523077-22.4 8.615385-6.4 1.846154-12.923077 3.2-22.523077 4.8-0.984615 0.123077-4.061538 0.615385-7.876923 1.230769-6.030769 0.984615-14.276923 2.215385-18.092307 2.83077l-10.584616 1.723076c-0.369231 0-1.107692 0.123077-1.846154 0.123077z m-17.230769-94.276923l25.723077 66.215385c3.938462-0.615385 11.938462-1.846154 18.338462-2.830769 3.692308-0.615385 6.646154-0.984615 7.630769-1.23077 8.369231-1.353846 14.030769-2.584615 19.323077-4.061538 5.907692-1.723077 11.815385-3.938462 18.338461-7.138462 23.876923-11.323077 32-16.984615 48-33.353846l-26.338461-57.107692-111.015385 39.507692z" fill="#1C1B55" p-id="1726"></path><path d="M427.339951 112.663354a16.123077 58.461538 69 1 0-109.157096 41.901483 16.123077 58.461538 69 1 0 109.157096-41.901483Z" fill="#FFFFFF" p-id="1727"></path><path d="M334.884923 184.598154c-0.777846 0.034462-1.44 0.024615-2.262154-0.055385-27.533538-0.636308-36.388923-13.057231-39.212307-20.411077-2.822154-7.353846-4.552615-22.509538 15.483076-41.405538 11.927385-11.170462 29.191385-21.489231 48.610462-28.942769 19.417846-7.454769 39.152-11.337846 55.490462-11.017847 27.534769 0.636308 36.388923 13.057231 39.212307 20.411077 2.822154 7.353846 4.553846 22.509538-15.483077 41.405539-11.926154 11.170462-29.191385 21.489231-48.60923 28.942769-18.614154 7.145846-37.411692 11.064615-53.229539 11.073231z m-16.539077-30.036923c3.283692 3.748923 25.885538 7.332923 60.241231-5.854769 34.470154-13.232 48.824615-31.133538 48.685538-35.959385-3.284923-3.747692-25.885538-7.332923-60.24123 5.854769-34.515692 13.117538-48.868923 31.019077-48.685539 35.959385z" fill="#1C1B55" p-id="1728"></path><path d="M498.707692 561.723077c70.892308-31.507692 133.907692-31.507692 189.046154 0 21.661538-64.492308 57.107692-105.846154 106.092308-124.061539 48.984615-18.215385 97.6-18.215385 145.6 0 38.030769 88.123077 21.169231 172.676923-50.215385 253.661539-52.307692 49.230769-119.507692 70.153846-201.476923 62.646154-114.461538 2.338462-200.246154 3.569231-257.230769 3.569231-27.938462-0.369231-44.184615-1.6-48.984615-3.569231 7.261538-96.738462 46.276923-160.861538 117.16923-192.246154z" fill="#D4F1FF" p-id="1729"></path><path d="M403.938462 757.415385h335.876923c62.4-1.353846 116.430769-27.569231 162.092307-78.4 45.661538-50.830769 64.492308-109.415385 56.492308-175.876923-23.261538 98.092308-72.861538 165.046154-149.169231 200.738461-76.061538 35.692308-211.2 53.538462-405.292307 53.538462z" fill="#80CFF5" p-id="1730"></path><path d="M843.938462 787.938462c-2.461538 0-4.8-0.615385-7.015385-1.969231l-125.784615-78.4c-2.953846-1.846154-5.169231-4.8-5.907693-8.246154l-21.538461-92.061539c-1.723077-7.138462 2.707692-14.276923 9.846154-16 7.138462-1.723077 14.276923 2.707692 16 9.846154l20.307692 86.646154 121.230769 75.569231c6.276923 3.938462 8.123077 12.061538 4.307692 18.338461-2.707692 4.061538-7.015385 6.276923-11.446153 6.276924z" fill="#1C1B55" p-id="1731"></path><path d="M853.907692 789.784615a18.830769 18.830769 0 1 0 37.661539 0 18.830769 18.830769 0 1 0-37.661539 0Z" fill="#FFFFFF" p-id="1732"></path><path d="M872.738462 835.076923c-24.984615 0-45.415385-20.307692-45.415385-45.415385s20.307692-45.415385 45.415385-45.415384 45.415385 20.307692 45.415384 45.415384-20.430769 45.415385-45.415384 45.415385z m0-64.123077c-10.338462 0-18.830769 8.492308-18.83077 18.830769s8.492308 18.830769 18.83077 18.83077 18.830769-8.492308 18.830769-18.83077-8.492308-18.830769-18.830769-18.830769z" fill="#1C1B55" p-id="1733"></path><path d="M77.784615 704.369231a19.076923 19.076923 0 1 0 38.153847 0 19.076923 19.076923 0 1 0-38.153847 0Z" fill="#FFFFFF" p-id="1734"></path><path d="M96.861538 750.030769c-25.230769 0-45.661538-20.430769-45.661538-45.661538s20.430769-45.661538 45.661538-45.661539 45.661538 20.430769 45.661539 45.661539-20.553846 45.661538-45.661539 45.661538z m0-64.738461c-10.461538 0-19.076923 8.615385-19.076923 19.076923s8.615385 19.076923 19.076923 19.076923 19.076923-8.615385 19.076924-19.076923-8.615385-19.076923-19.076924-19.076923z" fill="#1C1B55" p-id="1735"></path><path d="M110.769231 619.076923a17.107692 17.107692 0 1 0 34.215384 0 17.107692 17.107692 0 1 0-34.215384 0Z" fill="#FFFFFF" p-id="1736"></path><path d="M127.876923 662.769231c-24.123077 0-43.692308-19.569231-43.692308-43.692308s19.569231-43.692308 43.692308-43.692308 43.692308 19.569231 43.692308 43.692308-19.569231 43.692308-43.692308 43.692308z m0-60.8c-9.476923 0-17.107692 7.630769-17.107692 17.107692s7.630769 17.107692 17.107692 17.107692 17.107692-7.630769 17.107692-17.107692-7.753846-17.107692-17.107692-17.107692z" fill="#1C1B55" p-id="1737"></path><path d="M729.732923 882.374154c-1.969231 0-3.938462-0.369231-5.784615-1.353846l-84.923077-40.615385-92.553846 40.861539c-3.446154 1.476923-7.384615 1.476923-10.953847-0.123077l-88.492307-40.492308-69.538462 39.876923c-3.446154 1.969231-7.753846 2.338462-11.446154 0.861538l-103.384615-40.36923-45.046154 38.153846c-4.8 4.061538-11.692308 4.184615-16.615384 0.369231l-60.676924-46.276923-51.446153 45.784615-17.6-19.938462 59.56923-53.046153c4.8-4.184615 11.815385-4.553846 16.861539-0.615385l60.923077 46.523077 42.953846-36.430769c3.692308-3.2 8.861538-4.061538 13.415385-2.215385l104.738461 40.984615 69.907692-40.123077c3.692308-2.092308 8.246154-2.338462 12.184616-0.615384l89.230769 40.861538 92.676923-40.861538c3.569231-1.6 7.630769-1.476923 11.076923 0.123077l81.969231 39.261538 37.538461-36.8c3.938462-3.815385 9.723077-4.923077 14.769231-2.584615l90.830769 40.492308 69.046154-39.876924 13.292308 23.015385-74.953846 43.323077c-3.692308 2.092308-8.123077 2.338462-12.061539 0.615385l-88.36923-39.507693-37.784616 36.923077c-2.584615 2.461538-5.907692 3.815385-9.353846 3.815385z" fill="#1C1B55" p-id="1738"></path><path d="M729.732923 948.835692c-1.969231 0-3.938462-0.369231-5.784615-1.353846l-84.923077-40.615384-92.553846 40.861538c-3.446154 1.476923-7.384615 1.476923-10.953847-0.123077l-88.492307-40.492308-69.538462 39.876923c-3.446154 1.969231-7.753846 2.338462-11.446154 0.861539l-103.384615-40.369231-45.046154 38.153846c-4.8 4.061538-11.692308 4.184615-16.615384 0.369231l-60.676924-46.276923-51.446153 45.784615-17.6-19.815384 59.692307-53.046154c4.8-4.184615 11.815385-4.553846 16.861539-0.615385l60.923077 46.523077 42.953846-36.430769c3.692308-3.2 8.861538-4.061538 13.415384-2.215385l104.738462 40.984616 69.907692-40.123077c3.692308-2.092308 8.246154-2.338462 12.184616-0.615385l89.230769 40.861539 92.676923-40.861539c3.569231-1.6 7.630769-1.476923 11.076923 0.123077l81.969231 39.261539 37.538461-36.8c3.938462-3.815385 9.723077-4.923077 14.769231-2.584616l90.830769 40.492308 69.046154-39.876923 13.292308 23.015384-74.953846 43.323077c-3.692308 2.092308-8.123077 2.338462-12.061539 0.615385l-88.492307-39.630769-37.784616 37.046154c-2.584615 2.461538-5.907692 3.692308-9.353846 3.692307z" fill="#1C1B55" p-id="1739"></path><path d="M830.523077 558.769231c-4.553846 14.523077-4.553846 26.092308 0 34.707692s14.276923 15.753846 29.292308 21.292308" fill="#FFFFFF" p-id="1740"></path><path d="M859.815385 629.661538c-1.723077 0-3.446154-0.246154-5.169231-0.861538-18.707692-6.892308-30.892308-16.246154-37.292308-28.307692-6.4-12.184615-6.769231-27.692308-0.984615-46.03077 2.461538-7.753846 10.707692-12.184615 18.461538-9.723076 7.753846 2.461538 12.184615 10.707692 9.723077 18.461538-3.2 10.461538-3.569231 18.584615-0.984615 23.507692 1.846154 3.569231 7.138462 9.107692 21.292307 14.276923 7.630769 2.830769 11.569231 11.323077 8.738462 18.953847-2.215385 6.030769-7.753846 9.723077-13.784615 9.723076z" fill="#1C1B55" p-id="1741"></path><path d="M821.538462 516.184615c-4.553846-7.630769-8.246154-12.676923-10.83077-14.892307-21.292308-18.338462-40.861538-9.6-39.753846 0.738461 1.6 14.030769 8.861538 13.538462 20.923077 8.984616 8-3.076923 17.846154-1.353846 29.661539 5.16923z" fill="#80CFF5" p-id="1742"></path><path d="M826.584615 503.507692c-2.707692-13.169231-5.415385-21.907692-8.123077-26.461538-21.292308-36.430769-53.415385-33.6-56.861538-18.338462-4.553846 20.676923 6.030769 23.507692 25.353846 23.015385 12.923077-0.492308 26.092308 6.769231 39.630769 21.784615z" fill="#80CFF5" p-id="1743"></path></svg>