<?xml version="1.0" standalone="no"?><!DOCTYPE svg PUBLIC "-//W3C//DTD SVG 1.1//EN" "http://www.w3.org/Graphics/SVG/1.1/DTD/svg11.dtd"><svg t="1670398509181" class="icon" viewBox="0 0 1024 1024" version="1.1" xmlns="http://www.w3.org/2000/svg" p-id="2221" xmlns:xlink="http://www.w3.org/1999/xlink" width="200" height="200"><path d="M973.186462 636.848l-22.946462-15.335385c-52.310154-37.437538-83.574154-61.326769-93.964308-71.880615-10.327385-10.391385-79.079385-93.812923-206.304-250.153846-23.611077-31.394462-38.857846-48.286769-45.804307-50.840616-10.419692-3.831385-43.975385 17.065846-47.554462 26.924308-2.403692 6.609231-9.432615 14.526769-21.297231 23.928616l-36.710154 11.948307-30.775384-5.618461-21.310769-14.473846-29.075693-42.71877-16.775384-48.56-24.243693-0.016-28.40123 32.62277-53.584 73.144615-17.714462 48.562461-34.974769 33.468308-9.522462 39.544616 28.690462 39.046153 40.861538 22.908308 536.8 232.262154 65.07077 0.004923 33.796923-9.337846 18.732307-18.470154 7.528616-28.711385 9.478154-28.248615z" fill="#D4F1FF" p-id="2222"></path><path d="M878.222769 735.758769c-2.036923 0.035692-4.135385-0.091077-6.348307-0.267077-10.171077-0.756923-29.651692-3.905231-59.61477-9.836307l-4.448-0.902154-4.619077-5.964308-2.499692 0.772923-2.999385-0.526769c-13.494154-2.370462-26.939077-6.066462-40.269538-10.923077-12.942769-4.819692-30.258462-12.529231-51.720615-23.027692l-3.209847-1.564308-2.372923-3.750154-3.636923 1.209846-78.256-34.843077-5.031384-6.550153-6.999385 1.193846-61.052308-27.181539-1.684923-4.387692-7.310769 0.382769-69.710769-31.037538-3.981539-6.487385-10.747077-0.070154-81.179076-36.142769-6.331077-7.265231-6.486154 1.558154-3.885539-1.864615c-37.990154-17.858462-64.798769-32.083692-82.04923-43.266462-3.122462-2.064-5.958154-3.864615-8.681847-5.617231-19.910154-12.771692-31.827692-20.502154-39.464615-37.240615-10.145231-22.300308-7.143385-43.867077 9.053538-66.025846 10.119385-13.952 21.996308-23.079385 35.308308-27.256616 2.809846-17.206154 7.593846-33.398154 14.252308-48.35323 7.709538-17.314462 17.979077-32.816 30.334769-46.041846l32.918154-41.255385c12.307692-16.749538 32.500923-34.568615 59.598769-22.504615 15.741538 7.009231 16.942769 21.555692 17.796923 33.252923 1.227077 16.308923 2.950154 38.766769 38.283077 67.431384 3.435077 2.876308 14.654769 6.120615 34.262154 5.958154 16.246154-0.176 29.693538-2.541538 32.830769-3.84l0.588308-0.411077 0.812308-0.312615c2.087385-1.36 6.178462-8.430769 8.893538-13.015385 5.830154-10.067692 13.086769-22.734769 24.963692-30.649846 21.127385-14.169846 31.088-14.450462 47.005539-9.654154 14.743385 4.408615 24.72 16.8 33.534769 27.864616 0.873846 1.062154 1.636923 2.075077 2.397539 3.088 6.180923 7.601231 12.322462 18.014769 18.674461 31.890461l19.703385 24.131692 144.256 178.608c31.956923 33.224615 56.534154 56.696615 73.220923 70.052923 16.462769 13.257846 39.533538 27.705846 68.377846 43.108924l2.711385 1.476923 1.710769 2.512c8.913231 13.265231 12.241231 27.275077 9.744 41.657846-2.131692 12.657231-8.227692 26.649846-18.083693 41.526154-5.480615 10.493538-13.858462 17.811692-24.758153 21.715692-9.111385 3.218462-23.084308 4.946462-42.679385 5.383385-6.187077 2.094769-13.185231 3.289846-21.12 3.260307z m-56.700307-33.329231c26.065231 5.004308 43.657846 7.852308 52.230153 8.569847 7.409231 0.605538 13.384615-0.103385 17.697231-2.225231l2.375385-1.097846 2.585846-0.061539c22.244923-0.334769 32.617846-2.452923 37.230769-4.036923 5.149538-1.883077 8.750769-5.129846 11.44-10.264615l0.301539-0.674462 0.412307-0.624c8.105846-12.153846 13.123692-23.122462 14.742154-32.507077 1.166769-7.159385-0.190769-14.096-4.422154-21.234461-28.795077-15.513846-52.153846-30.225231-69.302154-44.057846-17.486769-13.982769-43.101538-38.455385-75.869538-72.579693l-0.699077-0.850461-144.492308-178.983385-21.577846-26.580923-0.673231-1.513846c-5.677538-12.361846-11.008-21.875692-16.077538-28.039385l-2.621538-3.187692c-6.593231-8.190769-13.948308-17.393231-21.319385-19.596308-8.820923-2.580923-11.394462-3.457231-26.322462 6.467693-7.113846 4.781538-12.329846 13.776-17.396923 22.43323-5.730462 9.842462-11.096615 19.175385-20.172307 23.217231-9.475692 4.942769-30.945231 6.566154-42.617847 6.756923-16.683077 0.252308-39.350154-1.486769-51.590153-11.517538-43.403077-35.356308-45.832615-66.211692-47.207385-84.606769-0.88-11.035077-1.467077-11.836308-3.265231-12.636308-4.385231-1.953231-14.504615-6.457846-29.689846 14.939077l-0.412308 0.624-33.693538 42.391384-0.312615 0.4c-10.679385 11.277538-19.448615 24.617846-26.105847 39.571693-6.707692 15.065846-11.243077 31.908923-13.467077 49.915077l-1.181538 9.309538-9.36 1.355077c-10.348308 1.456-19.537231 7.873231-28.055385 19.438769-8.041846 11.105231-14.523077 23.847385-6.461538 41.447385 4.342154 9.612308 10.711385 14.065231 30.336 26.574769 2.722462 1.751385 5.671385 3.602462 8.793846 5.666462 15.438769 10.108308 40.772923 23.409231 75.228308 39.826461l12.535384-3.04 12.600616 14.365539 71.508923 31.838769 19.232 0.073846 7.190154 11.689846 57.342769 25.529846 19.182769-1.024 4.429539 11.537231 44.973538 20.024615 14.323692-2.515692 10.188308 13.427692 63.638154 28.33477 12.912-4.491077 9.026461 14.526769c19.262769 9.385846 34.829538 16.180923 46.372924 20.513231 10.870154 4.030769 21.915077 7.062154 32.923076 9.267692l12.985847-4.051692 9.627077 11.965538z m-293.575385-408.779076z m0 0z" fill="#1C1B55" p-id="2223"></path><path d="M260.937846 379.552c-12.854154 11.926154-19.096615 22.619077-18.840615 32.028308 0.256 9.410462 2.113231 17.646769 5.732923 24.647384 7.616 10.126769 22.728615 21.571692 45.390769 34.220308 22.658462 12.648615 44.883692 24.16 66.782769 34.584615l13.373539-2.803692 12.150154 14.166154 71.620923 31.889231 19.220923-0.200616 6.190769 11.513846 59.478154 26.481231 17.645538-0.899692 4.055385 10.561231 46.998154 20.925538 13.148307-2.903384 9.788308 13.115076 64.313846 28.635077 12.585846-3.15323 9.113847 12.814769c20.888615 9.972923 36.854154 17.081846 48.011077 21.374769 11.043692 4.243692 21.875692 7.449846 32.384 9.569231l11.512615-4.978462 9.714461 12.676923c24.578462 5.015385 42.833231 7.889231 54.65477 8.571077s17.932308-0.637538 18.60923-3.974154l32.680616-2.28923c-60.432-2.252308-125.764923-20.427077-195.998769-54.52677-21.686154-10.598154-45.323077-21.661538-68.418462-37.870769-35.161846-24.817231-70.392615-57.344-107.441231-83.673846-46.952615-33.433846-99.756308-62.198154-134.285538-79.052308-66.023385-32.360615-109.987692-49.508923-135.936-60.523077-12.305231-5.344-20.401231-8.947692-24.236308-10.925538z" fill="#7FCDF3" p-id="2224"></path><path d="M937.414154 705.393231c-60.221538-0.002462-117.110154-11.724308-169.169231-34.902154-86.8-38.646154-118.636308-65.484308-155.342769-96.512-27.140923-22.861538-57.890462-48.812308-118.038154-84.078769-44.358154-25.947077-123.949538-63.539692-236.737231-111.6l9.675077-22.637539c113.686154 48.461538 194.289231 86.503385 239.497846 112.963693 61.959385 36.343385 93.620923 62.968615 121.398154 86.518153 35.382154 29.764923 65.907692 55.614769 149.560616 92.860308 54.756923 24.379077 115.132308 35.228308 179.516307 32.233846l1.159385 24.631385c-7.310769 0.381538-14.409846 0.590769-21.52 0.523077zM799.368615 547.332923c-3.249231 0.036923-6.448-1.252923-8.932923-3.842461-4.683077-4.913231-4.478769-12.636308 0.486154-17.431385 13.792-13.124923 26.761846-28.637538 30.603077-36.356923-1.212308-0.001231-3.236923 0.308923-6.324923 1.494154l-6.526769 5.581538c-5.201231 4.420923-12.998154 3.778462-17.307077-1.373538-4.419692-5.201231-3.778462-12.998154 1.373538-17.305846l8.065231-6.918154a10.483692 10.483692 0 0 1 3.163077-1.960616c8.274462-3.456 15.436308-4.713846 21.921231-3.846154 7.872 1.079385 14.280615 5.144615 18.662154 11.945847 8.289231 12.851692-3.305846 29.513846-15.649231 44.227692-9.943385 11.741538-20.509538 21.856-20.984616 22.317538-2.424615 2.423385-5.463385 3.495385-8.548923 3.468308zM763.639385 491.412923c-3.249231 0.035692-6.446769-1.254154-8.932923-3.842461-4.683077-4.914462-4.477538-12.637538 0.486153-17.432616 22.934154-21.853538 29.414154-32.172308 31.265231-36.332308-1.048615-0.061538-3.298462 0.147692-7.148308 1.532308l-10.64 8.466462c-5.264 4.258462-13.074462 3.340308-17.331692-1.923693-4.258462-5.264-3.340308-13.073231 1.923692-17.331692l11.965539-9.627077c0.849231-0.699077 1.924923-1.298462 2.950154-1.784615 8.274462-3.456 15.436308-4.713846 21.921231-3.847385 7.872 1.080615 14.280615 5.144615 18.662153 11.947077 10.535385 16.276923-7.097846 38.334769-36.633846 66.545231-2.363077 2.584615-5.400615 3.657846-8.487384 3.630769zM724.307692 443.587692c-3.249231 0.035692-6.449231-1.254154-8.934154-3.842461-4.683077-4.914462-4.477538-12.636308 0.487385-17.432616 22.932923-21.853538 29.412923-32.172308 31.264-36.332307-1.048615-0.061538-3.410462 0.098462-7.473231 1.657846l-10.889846 7.815384a12.288 12.288 0 0 1-17.206154-2.809846 12.288 12.288 0 0 1 2.811077-17.206154l12.114462-8.752c0.750769-0.475077 1.500308-0.948923 2.363077-1.373538 8.274462-3.456 15.436308-4.713846 21.92123-3.847385 7.872 1.080615 14.280615 5.145846 18.662154 11.947077 10.535385 16.276923-7.097846 38.334769-36.633846 66.545231-2.476308 2.535385-5.513846 3.607385-8.487384 3.630769zM684.861538 395.712c-3.249231 0.036923-6.448-1.252923-8.932923-3.841231-4.683077-4.914462-4.477538-12.637538 0.486154-17.432615 22.932923-21.854769 29.412923-32.172308 31.265231-36.332308-1.161846-0.113231-3.574154 0.16-7.848615 1.894154l-9.55077 5.716923c-5.851077 3.458462-13.373538 1.591385-16.830769-4.258461-3.458462-5.852308-1.590154-13.373538 4.259692-16.83077l10.413539-6.141538c0.537846-0.300308 1.025231-0.487385 1.563077-0.787692 8.274462-3.454769 15.436308-4.712615 21.921231-3.846154 7.872 1.079385 14.280615 5.144615 18.662153 11.947077 10.535385 16.276923-7.097846 38.334769-36.633846 66.54523-2.649846 2.322462-5.687385 3.394462-8.775384 3.367385z" fill="#1C1B55" p-id="2225"></path><path d="M361.460923 397.362462c10.073846-39.569231 12.891077-67.684923 8.278154-84.55877-4.611692-16.873846-18.775385-29.241846-42.539077-36.992-11.729231 12.425846-20.009846 24.366769-24.779077 35.986462-4.830769 11.456-8.929231 29.435077-12.356923 53.776l71.396923 31.788308z" fill="#FFF7A6" p-id="2226"></path><path d="M378.097231 431.714462l-114.910769-51.161847 2.486153-18.292923c3.704615-26.777846 8.278154-46.432 14.011077-59.911384 5.92-14.205538 15.901538-28.756923 29.632-43.256616l10.729846-11.389538 14.755693 4.683077c32.034462 10.355692 51.804308 28.588308 58.723692 53.899077 5.870769 21.609846 3.227077 52.361846-8.211692 97.117538l-7.216 28.312616z m-88.033231-66.140308l71.396923 31.788308c10.086154-39.294769 12.828308-67.847385 8.278154-84.55877-4.499692-16.823385-18.887385-29.292308-42.539077-36.992-11.729231 12.425846-20.060308 24.48-24.779077 35.986462-4.780308 11.342769-8.929231 29.435077-12.356923 53.776z" fill="#1C1B55" p-id="2227"></path><path d="M556.134154 605.558154c-3.249231 0.035692-6.498462-1.140923-9.032616-3.618462-5.345231-4.939077-5.614769-13.411692-0.674461-18.756923l36.752-39.277538c4.940308-5.345231 13.412923-5.614769 18.758154-0.674462 5.345231 4.939077 5.614769 13.411692 0.675692 18.756923l-36.753231 39.277539c-2.626462 2.872615-6.088615 4.295385-9.725538 4.292923zM475.180308 569.513846c-3.249231 0.036923-6.498462-1.140923-8.971077-3.453538-5.457231-4.989538-5.777231-13.350154-0.787693-18.808616l52.699077-57.236923c4.989538-5.457231 13.350154-5.777231 18.807385-0.787692 5.457231 4.989538 5.777231 13.350154 0.787692 18.808615l-52.697846 57.236923c-2.689231 2.710154-6.313846 4.194462-9.837538 4.242462zM373.888 523.473231c-2.974769 0.024615-5.885538-1.003077-8.295385-3.154462-5.107692-4.563692-5.403077-12.374154-0.888615-17.369846l54.061538-59.998769c4.564923-5.107692 12.375385-5.403077 17.371077-0.888616 5.107692 4.564923 5.403077 12.375385 0.888616 17.371077l-54.062769 59.99877c-2.363077 2.584615-5.662769 3.944615-9.074462 4.041846zM281.689846 482.424615c-2.973538 0.023385-5.885538-1.003077-8.295384-3.154461-5.107692-4.564923-5.403077-12.375385-0.888616-17.371077l54.225231-60.060308c4.563692-5.107692 12.374154-5.403077 17.369846-0.888615 5.107692 4.564923 5.403077 12.375385 0.888615 17.371077l-54.061538 59.997538c-2.413538 2.697846-5.826462 4.008615-9.238154 4.105846z" fill="#1C1B55" p-id="2228"></path><path d="M954.713846 679.548308c-39.288615-0.113231-68.742154-2.043077-88.359384-5.793231-53.292308-10.119385-102.489846-29.734154-159.140924-61.961846-55.751385-31.827692-93.424-77.027692-164.624-122.875077-28.705231-18.438154-81.185231-46.114462-157.44-83.030154l6.006154-31.949538c83.213538 39.744 140.316308 69.747692 171.419077 90.062769 102.665846 66.861538 161.897846 125.971692 207.545846 148.72 66.322462 32.897231 130.070154 48.883692 191.241847 47.963077-0.189538 3.148308-0.992 6.158769-2.393847 9.307077l-4.254769 9.556923z" fill="#7FCDF3" p-id="2229"></path><path d="M66.215385 661.543385c50.215385-11.692308 90.461538-23.507692 120.36923-35.323077 63.015385-24.861538 161.969231-68.923077 296.861539-132.184616 31.384615-25.107692 53.169231-34.215385 65.6-27.323077 12.430769 6.892308 20.676923 21.415385 24.738461 43.815385 32.123077 38.892308 56.615385 56.861538 73.476923 54.030769 11.323077-1.846154 43.815385-7.507692 62.892308-23.876923 23.261538-19.938462 32.861538-50.707692 41.230769-46.646154 15.138462 7.261538 23.384615-2.584615 30.4 16.492308 4.676923 12.676923 11.569231 40.123077 20.676923 82.461538v71.507693l-3.323076 27.815384 14.646153 13.661539c8.984615 14.892308 12.430769 27.2 10.338462 36.8-3.2 14.4-18.338462 42.215385-21.661539 42.215384s-53.292308 9.476923-57.353846 9.476924H257.969231c-73.723077-0.615385-113.230769-2.338462-118.276923-5.292308s-22.4-10.215385-51.938462-22.153846c-31.876923-21.661538-48-36.061538-48.369231-43.446154s2.338462-23.753846 7.876923-49.353846l18.953847-12.676923z" fill="#FFFFFF" p-id="2230"></path><path d="M246.276923 810.466462c-9.6 0-17.846154-0.246154-24.738461-0.615385-14.030769-0.861538-27.938462-3.076923-41.23077-6.4l-2.953846-0.738462-1.969231-1.723077-6.646153 3.569231-4.43077-0.984615c-29.661538-6.892308-48.861538-11.938462-58.461538-15.261539-9.969231-3.569231-17.846154-8.369231-23.630769-14.276923-17.723077-8.369231-29.784615-15.630769-36.8-22.276923-8.369231-8-13.046154-17.969231-13.784616-29.907692-2.953846-17.6-2.830769-32.861538 0.369231-45.292308 3.569231-14.153846 12.307692-25.6 25.846154-34.092307l2.584615-1.6 3.076923-0.246154c32.615385-2.338462 59.446154-6.153846 80-11.569231 20.553846-5.415385 52.676923-16.861538 95.384616-34.215385l204.307692-104.492307 27.938462-14.153847c11.323077-9.846154 21.169231-16.861538 29.907692-21.292307 1.107692-0.615385 2.338462-1.230769 3.446154-1.846154 12.553846-6.4 26.707692-13.784615 41.96923-11.815385 16.369231 2.092308 25.476923 6.523077 39.015385 27.938462 7.630769 12.061538 9.230769 26.584615 10.338462 38.153846 0.615385 5.415385 1.476923 13.538462 2.830769 15.507692l0.615384 0.615385 0.369231 0.615385c2.338462 2.584615 13.538462 10.215385 28.430769 16.861538 17.846154 8.123077 29.292308 9.6 33.723077 8.492308 43.938462-11.815385 54.523077-31.630769 62.4-46.03077 5.538462-10.338462 12.553846-23.138462 29.784616-23.138461 16.369231 0 37.538462 7.876923 45.169231 45.169231l13.292307 51.076923c6.030769 17.107692 8.984615 35.446154 8.984616 54.4 0 16.246154-2.215385 32.984615-6.646154 49.969231 10.461538 9.230769 17.476923 22.4 21.169231 39.261538 5.784615 26.830769-0.369231 47.753846-18.584616 64-13.661538 12.184615-27.815385 14.4-51.2 17.969231-3.2 0.492308-6.646154 0.984615-10.215384 1.6-20.307692 3.2-50.584615 5.292308-92.553847 6.153846l-4.307692 0.123077-5.292308-4.061539-8.738461 4.061539h-88.861539l-9.846153-4.307692-6.276924 4.307692h-76.307692l-6.523077-3.323077-3.323077 3.323077h-66.830769l-5.907692-3.938462-7.261539 3.938462h-85.661538l-2.830769-2.584616-3.692308 2.461539-3.569231 0.123077c-11.815385 0.369231-22.523077 0.492308-31.876923 0.492308z m-56.984615-30.153847c10.953846 2.584615 22.276923 4.184615 33.846154 4.923077 12.307692 0.738462 29.292308 0.861538 50.707692 0.123077l14.153846-9.6 9.969231 9.353846h69.661538l14.769231-8.123077 12.061538 8.123077h49.23077l8.738461-8.738461 17.107693 8.738461h62.76923l11.323077-7.753846 17.6 7.753846h78.276923l17.353846-8 10.215385 7.876923c38.153846-0.861538 66.707692-2.830769 84.923077-5.784615 3.692308-0.615385 7.138462-1.107692 10.338462-1.6 23.015385-3.569231 30.646154-4.923077 38.523076-11.938461 14.523077-12.923077 13.784615-27.076923 10.953847-40.492308-3.076923-14.153846-8.861538-23.630769-17.723077-29.169231l-8-5.046154 2.707692-8.984615c5.292308-17.353846 8-34.584615 8-51.076923 0-16.369231-2.584615-32.123077-7.753846-46.769231l-0.246154-0.984615-13.784615-52.307693c-5.169231-25.846154-16.246154-25.846154-21.046154-25.846154-1.969231 0-2.830769 0.492308-8.123077 10.215385-8.738462 16.246154-23.507692 43.446154-77.538462 58.092308-15.261538 4.061538-36.553846-3.446154-51.815384-10.461539-10.461538-4.923077-29.538462-15.138462-36.184616-23.384615-6.646154-7.384615-7.753846-18.092308-8.984615-29.415385-1.107692-9.969231-2.092308-20.430769-6.769231-27.56923-9.6-15.138462-12.307692-15.507692-21.415384-16.615385-7.630769-0.984615-18.215385 4.430769-27.446154 9.230769l-3.692308 1.846154c-7.015385 3.569231-15.876923 9.969231-26.092308 19.076923l-1.230769 1.107692-30.4 15.261539-205.169231 104.984615-0.492307 0.246154c-44.553846 18.092308-76.8 29.661538-98.83077 35.446154-21.292308 5.538462-48.492308 9.6-81.230769 12.061538-6.646154 4.8-10.830769 10.584615-12.676923 17.6-2.338462 9.230769-2.338462 21.292308 0.246154 35.692308l0.123077 0.738462v0.738461c0.246154 5.784615 2.338462 10.338462 6.276923 14.030769 3.569231 3.446154 12.184615 9.476923 32.369231 18.83077l2.338461 1.107692 1.723077 1.969231c3.076923 3.569231 8.246154 6.769231 15.261539 9.230769 8.123077 2.953846 25.353846 7.384615 51.2 13.415385l13.661538-7.261539 10.215385 9.107692z m409.476923-257.230769z" fill="#1C1B55" p-id="2231"></path><path d="M808.861538 711.512615c6.892308 16.123077 8.246154 28.430769 4.184616 36.923077-4.061538 8.492308-9.107692 15.261538-15.261539 20.184616-11.076923 6.153846-29.538462 10.461538-55.384615 12.8-25.846154 2.338462-50.830769 3.815385-75.076923 4.430769l-11.076923-8-16.861539 8h-78.4l-17.476923-8-10.338461 8h-65.107693l-15.753846-8-8 8h-51.446154l-10.830769-8-14.276923 8h-70.4l-10.215384-8-13.538462 8c-23.138462 0.615385-40.615385 0.615385-52.553846 0-11.815385-0.615385-23.015385-2.092308-33.476923-4.430769l-8.492308-9.23077-14.030769 7.63077c-24.492308-5.415385-42.338462-10.215385-53.415385-14.4s-16.123077-7.876923-15.384615-11.2l-28.923077-15.384616c56.123077 22.523077 123.2 32.492308 201.230769 29.907693 24.123077-0.861538 50.215385-1.353846 77.907692-6.769231 42.215385-8.369231 87.630769-23.753846 132.184616-32.738462 56.492308-11.446154 116.430769-16.246154 154.830769-17.6 73.476923-2.707692 120.615385-0.492308 148.8 0 13.415385 0.123077 22.276923 0.123077 26.584615-0.123077z" fill="#7FCDF3" p-id="2232"></path><path d="M227.076923 770.958769c-63.753846 0-127.015385-15.507692-188.184615-46.153846l11.076923-22.030769c57.6 28.923077 117.292308 43.569231 177.107692 43.569231 91.569231 0 129.969231-11.076923 174.4-24 35.076923-10.092308 74.830769-21.661538 146.092308-29.661539 52.184615-5.784615 141.169231-7.753846 264.738461-5.784615l-0.36923 24.615384c-122.461538-1.969231-210.584615-0.123077-261.661539 5.661539-69.292308 7.753846-107.938462 18.953846-142.030769 28.8-46.153846 13.415385-86.153846 24.984615-181.169231 24.984615zM253.661538 646.897231c-4.8 0-9.476923-2.830769-11.446153-7.630769-0.246154-0.615385-5.784615-14.153846-10.092308-28.923077-5.292308-18.461538-9.107692-38.4 3.692308-46.769231 6.769231-4.430769 14.276923-5.538462 21.907692-3.323077 6.276923 1.846154 12.307692 5.907692 18.461538 12.430769 0.861538 0.861538 1.6 1.969231 2.092308 3.076923l4.553846 9.6c2.953846 6.153846 0.369231 13.538462-5.784615 16.369231-6.153846 2.953846-13.538462 0.369231-16.369231-5.784615l-3.692308-7.753847c-2.338462-2.338462-4.061538-3.446154-5.16923-3.938461 0.492308 8.615385 6.030769 28.307692 13.16923 45.661538 2.584615 6.276923-0.369231 13.538462-6.646153 16.123077-1.476923 0.492308-3.076923 0.861538-4.676924 0.861539zM309.169231 610.343385c-4.8 0-9.476923-2.830769-11.446154-7.63077-15.507692-37.784615-22.523077-65.107692-6.4-75.692307 6.769231-4.430769 14.276923-5.538462 21.907692-3.323077 6.276923 1.846154 12.307692 5.907692 18.461539 12.430769 0.738462 0.861538 1.476923 1.723077 1.96923 2.830769l7.015385 13.661539c3.076923 6.030769 0.738462 13.415385-5.292308 16.615384-6.030769 3.076923-13.415385 0.738462-16.615384-5.292307l-6.153846-12.184616c-2.953846-2.830769-4.923077-3.938462-5.907693-4.307692 0 4.430769 1.723077 16.615385 13.784616 45.907692 2.584615 6.276923-0.369231 13.538462-6.646154 16.123077-1.6 0.615385-3.2 0.861538-4.676923 0.861539zM364.553846 582.651077c-4.8 0-9.476923-2.830769-11.446154-7.630769-15.507692-37.784615-22.523077-65.107692-6.4-75.692308 6.769231-4.430769 14.276923-5.538462 21.907693-3.323077 6.276923 1.846154 12.307692 5.907692 18.461538 12.430769 0.615385 0.615385 1.230769 1.353846 1.6 2.215385l7.507692 12.923077c3.446154 5.907692 1.476923 13.415385-4.430769 16.861538-5.907692 3.446154-13.415385 1.476923-16.861538-4.430769l-6.769231-11.569231c-3.076923-3.076923-5.046154-4.184615-6.153846-4.553846 0 4.430769 1.723077 16.615385 13.784615 45.907692 2.584615 6.276923-0.369231 13.538462-6.646154 16.123077-1.353846 0.492308-2.953846 0.738462-4.553846 0.738462zM419.938462 554.958769c-4.8 0-9.476923-2.830769-11.446154-7.630769-15.507692-37.784615-22.523077-65.107692-6.4-75.692308 6.769231-4.430769 14.276923-5.538462 21.907692-3.323077 6.276923 1.846154 12.307692 5.907692 18.461538 12.43077 0.369231 0.369231 0.738462 0.861538 1.107693 1.353846l7.015384 9.846154c3.938462 5.538462 2.584615 13.292308-2.953846 17.107692-5.538462 3.938462-13.292308 2.584615-17.107692-2.953846l-6.4-9.107693c-3.2-3.323077-5.415385-4.553846-6.4-4.923076 0 4.430769 1.723077 16.615385 13.784615 45.907692 2.584615 6.276923-0.369231 13.538462-6.646154 16.123077-1.723077 0.615385-3.323077 0.861538-4.923076 0.861538z" fill="#1C1B55" p-id="2233"></path><path d="M712.492308 683.204923c6.523077-38.030769 14.892308-63.384615 25.353846-76.307692 10.461538-12.8 27.446154-17.969231 50.953846-15.507693 5.292308 15.261538 7.876923 28.8 7.630769 40.615385-0.246154 11.815385-3.569231 28.923077-10.092307 51.2h-73.846154z" fill="#FFF7A6" p-id="2234"></path><path d="M804.8 707.820308h-121.6l4.923077-28.8c7.384615-43.323077 17.107692-71.138462 30.523077-87.63077 10.953846-13.415385 32.492308-28.676923 72.615384-24.492307l15.507693 1.6 5.169231 14.769231c6.4 18.215385 9.230769 34.338462 8.984615 49.230769-0.246154 14.030769-3.938462 32.861538-11.076923 57.6l-5.046154 17.723077z m-92.307692-24.615385h73.846154c6.4-22.276923 9.846154-39.507692 10.092307-51.2 0.246154-11.692308-2.338462-25.353846-7.630769-40.615385-23.384615-2.461538-40.492308 2.830769-50.953846 15.507693-10.461538 12.8-18.953846 38.4-25.353846 76.307692z" fill="#1C1B55" p-id="2235"></path><path d="M452.676923 798.035692c-5.046154 0-9.846154-3.2-11.692308-8.246154l-17.6-50.830769c-2.215385-6.4 1.230769-13.415385 7.63077-15.630769 6.4-2.215385 13.415385 1.230769 15.630769 7.630769l17.6 50.830769c2.215385 6.4-1.230769 13.415385-7.630769 15.63077-1.230769 0.369231-2.584615 0.615385-3.938462 0.615384zM541.292308 798.035692c-5.169231 0-9.969231-3.2-11.692308-8.36923l-24.861538-73.723077c-2.215385-6.4 1.353846-13.415385 7.753846-15.63077 6.4-2.215385 13.415385 1.353846 15.630769 7.753847l24.861538 73.723076c2.215385 6.4-1.353846 13.415385-7.753846 15.63077-1.353846 0.492308-2.584615 0.615385-3.938461 0.615384zM652.184615 798.035692c-5.169231 0-9.969231-3.323077-11.692307-8.492307l-25.107693-76.8c-2.092308-6.523077 1.476923-13.415385 7.876923-15.507693 6.523077-2.092308 13.415385 1.476923 15.507693 7.876923l24.984615 76.8c2.092308 6.523077-1.476923 13.415385-7.876923 15.507693-1.230769 0.492308-2.461538 0.615385-3.692308 0.615384zM752.984615 798.035692c-5.169231 0-9.969231-3.323077-11.692307-8.492307l-24.984616-76.8c-2.092308-6.523077 1.476923-13.415385 7.876923-15.507693 6.4-2.092308 13.415385 1.476923 15.507693 7.876923l24.984615 76.8c2.092308 6.523077-1.476923 13.415385-7.876923 15.507693-1.230769 0.492308-2.584615 0.615385-3.815385 0.615384z" fill="#1C1B55" p-id="2236"></path><path d="M53.046154 704.620308c35.938462 15.876923 63.630769 26.092308 83.076923 30.646154 52.8 12.430769 105.723077 14.523077 170.584615 8.123076 63.876923-6.4 116.676923-32.369231 200.369231-45.292307 33.723077-5.169231 92.923077-9.107692 177.6-11.815385l7.507692-31.630769c-92.184615 2.461538-156.553846 6.646154-193.230769 12.553846-120.984615 19.323077-199.138462 49.230769-250.092308 51.446154-73.969231 3.076923-138.707692-8.246154-194.215384-33.969231-1.107692 2.953846-1.6 6.030769-1.6 9.476923v10.461539z" fill="#7FCDF3" p-id="2237"></path><path d="M465.969231 417.969231c-4.061538 0-8-1.969231-10.338462-5.661539-8.369231-13.292308-10.953846-27.938462-7.261538-41.353846 3.446154-12.430769 12.184615-22.892308 24-28.8 10.338462-5.169231 20.8-4.307692 31.753846-3.446154 13.538462 1.107692 30.523077 2.461538 56.246154-5.907692 27.692308-8.984615 44.061538-32.615385 50.338461-72.246154 0.861538-5.046154 4.676923-9.107692 9.723077-10.215384 5.046154-0.984615 10.215385 1.230769 12.923077 5.661538l12.430769 20.307692c12.676923-3.938462 25.723077-2.338462 38.153847 4.8 6.523077 3.692308 10.338462 9.6 10.830769 16.615385 0.984615 14.4-12.553846 30.769231-46.523077 56.492308-5.415385 4.061538-13.169231 3.076923-17.230769-2.338462-4.061538-5.415385-3.076923-13.169231 2.338461-17.230769 25.476923-19.323077 33.353846-29.169231 35.692308-33.476923-7.507692-3.446154-14.523077-3.076923-22.153846 1.353846-5.784615 3.323077-13.169231 1.353846-16.615385-4.307692l-2.584615-4.184616c-11.076923 32-31.138462 52.8-59.815385 62.030769-30.4 9.846154-50.830769 8.246154-65.846154 7.015385-9.6-0.738462-14.892308-1.107692-18.830769 0.984615-5.661538 2.830769-9.723077 7.630769-11.323077 13.415385-1.846154 6.646154-0.369231 14.153846 4.307692 21.538462 3.692308 5.784615 1.969231 13.292308-3.815384 16.984615-1.846154 1.353846-4.184615 1.969231-6.4 1.969231z" fill="#1C1B55" p-id="2238"></path><path d="M530.16 615.556923l-12.791385-20.772923-29.372307 25.128615z" fill="#FFFFFF" p-id="2239"></path><path d="M412.184615 652.412308l110.983385-95.136 48.406154 78.722461L412.184615 652.412308z m105.184-57.628308l-29.372307 25.128615 42.163692-4.355692-12.791385-20.772923z" fill="#1C1B55" p-id="2240"></path></svg>