<svg style="enable-background:new 0 0 16 16" xml:space="preserve" xmlns="http://www.w3.org/2000/svg" width="16" height="16" fill="currentColor" class="qi-1002" viewBox="0 0 16 16">
  <path d="M2.978 4.923c-.093-.28-.093-.509.013-.702.47-.858 1.943-1.779 4.115-2.168 2.435-.437 4.067.05 4.526.662a.63.63 0 0 1 .03.743c.796-.469 1.027-.96.9-1.403-.253-.889-2.7-1.435-5.646-.891-3.032.561-4.842 1.971-4.759 2.866.028.299.338.714.821.893z"/>
  <path d="M10.89 3.659c-.158-.551-1.487-1.323-3.541-.929-2.096.401-2.971 1.601-2.919 2.156.017.185.21.443.51.554-.059-.174-.058-.316.008-.436.291-.533 1.206-1.104 2.554-1.346 1.512-.271 2.525.031 2.81.411a.39.39 0 0 1 .019.461c.494-.291.638-.596.559-.871z"/>
  <path d="M13.534 4.84c.68-.791.975-1.604.92-2.202-.079-.847-1.663-1.324-1.663-1.324.302.285.425.517.478.863.183 1.188-1.908 3.002-5.115 3.521-2.878.466-5.562-.217-6.41-1.12-.284-.302-.253-.91-.253-.91-.338.39-.557.845-.492 1.224.141.808.967 1.743 2.572 2.251.002.155.015.302.044.407.16.563.724 1.161 1.574 1.605a.994.994 0 0 0-.123.481c-.049.654.723 1.395.856 1.517.114.104.549.348.511.61-.015.104-.069.254-.132.435-.095.272-.145.352-.183.494-.074.278-.024.515.016.702.18.848.942 1.759 1.036 1.753.168-.011.085-.393.263-.698.086-.147.306-.182.511-.358.227-.195.293-.555.442-.704.312-.312.533-.141.844-.372.321-.238.332-.563.807-.911.289-.212.757-.009 1.303-.516.163-.151.415-.471.501-.647.48-.979 1.25-.978 1.352-1.652a1.133 1.133 0 0 0-.302-.924c-.015-.016-.032-.022-.047-.036 1.043-.794 1.523-1.765 1.425-2.621-.044-.381-.411-.677-.735-.868zm-1.356 4.502c-.754 1.002-2.002 1.502-3.005 1.591-1.796.161-3.072-.806-3.552-1.36a.789.789 0 0 1-.126-.255c1.029.449 2.422.665 4.066.362 1.194-.22 2.145-.602 2.882-1.064a1.484 1.484 0 0 1-.265.726zM9.346 8.243c-2.331.37-4.066-.067-5.064-.755a.813.813 0 0 1-.195-.202c1.118.262 2.549.332 4.327.064 2.372-.358 3.984-1.302 4.945-2.316.061.113.115.229.133.351.146.984-1.548 2.446-4.146 2.858z"/>
</svg>