<svg style="enable-background:new 0 0 16 16" xml:space="preserve" xmlns="http://www.w3.org/2000/svg" width="16" height="16" fill="currentColor" class="qi-1009" viewBox="0 0 16 16">
  <path d="M6.065 4.663H4.576v-1.49a.7.7 0 1 0-1.4 0v1.49H1.687a.7.7 0 1 0 0 1.4h1.489v1.489a.7.7 0 1 0 1.4 0V6.064h1.489a.7.7 0 1 0 0-1.401zm7.68 3.364V3.749c0-1.626-1.323-2.95-2.95-2.95s-2.95 1.324-2.95 2.95v4.278a4.178 4.178 0 0 0-1.25 2.968c0 2.316 1.885 4.2 4.2 4.2s4.2-1.884 4.2-4.2a4.176 4.176 0 0 0-1.25-2.968zm-2.95 5.768a2.803 2.803 0 0 1-2.8-2.8 2.79 2.79 0 0 1 1.002-2.126.701.701 0 0 0 .248-.534V3.749c0-.854.695-1.55 1.55-1.55s1.55.695 1.55 1.55v4.586a.7.7 0 0 0 .248.534 2.788 2.788 0 0 1 1.002 2.126c0 1.544-1.256 2.8-2.8 2.8z"/>
  <path d="M11.245 9.403V5.275a.5.5 0 0 0-1 0v4.141a1.754 1.754 0 0 0 .522 3.431 1.76 1.76 0 0 0 1.759-1.759c0-.805-.543-1.476-1.281-1.685z"/>
</svg>