<svg style="enable-background:new 0 0 16 16" xml:space="preserve" xmlns="http://www.w3.org/2000/svg" width="16" height="16" fill="currentColor" class="qi-1013" viewBox="0 0 16 16">
  <path d="M5.534 11.701h-.651l.325-.563a.682.682 0 0 0-1.18-.682l-.325.563-.325-.563a.682.682 0 0 0-1.18.682l.325.563h-.651a.681.681 0 0 0 0 1.362h.651l-.325.564a.685.685 0 0 0 .249.931.685.685 0 0 0 .931-.249l.325-.563.325.563a.684.684 0 0 0 .931.249.684.684 0 0 0 .249-.931l-.325-.564h.651a.681.681 0 0 0 0-1.362zm7.747.405h-.299l.15-.259a.682.682 0 0 0-1.18-.682l-.149.259-.149-.259a.682.682 0 0 0-1.18.682l.15.259h-.299a.681.681 0 0 0 0 1.362h.299l-.15.259a.685.685 0 0 0 .249.931.685.685 0 0 0 .931-.249l.149-.259.149.259a.684.684 0 0 0 .931.249.684.684 0 0 0 .249-.931l-.15-.259h.299a.681.681 0 0 0 0-1.362zm1.216-6.041h-.419l.21-.363a.682.682 0 0 0-1.18-.682l-.209.363-.211-.363a.682.682 0 0 0-1.18.682l.21.363h-.419a.681.681 0 0 0 0 1.362h.419l-.21.363a.685.685 0 0 0 .249.931.685.685 0 0 0 .931-.249l.209-.363.209.363a.684.684 0 0 0 .931.249.684.684 0 0 0 .249-.931l-.209-.363h.419a.681.681 0 0 0 .001-1.362zM1.86 5.287h.563l-.282.487a.683.683 0 0 0 .249.93.683.683 0 0 0 .93-.249l.282-.488.282.488a.683.683 0 0 0 .93.249.683.683 0 0 0 .249-.93l-.28-.487h.563a.681.681 0 0 0 0-1.362h-.563l.281-.487a.68.68 0 0 0-1.179-.683l-.282.488-.282-.488a.681.681 0 0 0-1.179.681l.281.487H1.86a.681.681 0 0 0 0 1.364zm7.766 4.769-.512-.676.841-.105a.682.682 0 0 0-.169-1.353l-.841.105.33-.781a.68.68 0 1 0-1.256-.529l-.329.781-.512-.676a.68.68 0 1 0-1.086.822l.512.676-.842.105a.686.686 0 0 0-.592.761c.046.371.39.638.761.592l.841-.105-.33.781a.685.685 0 0 0 .363.892.685.685 0 0 0 .892-.363l.33-.781.512.676a.684.684 0 0 0 .954.132.683.683 0 0 0 .133-.954zM7.472 4.098c.16 0 .391-.035.493-.056l-.16.377a.7.7 0 0 0-.003.522.702.702 0 0 0 .367.371c.249.104.54.048.717-.116a.751.751 0 0 0 .175-.247l.16-.378.248.327a.684.684 0 0 0 .954.132.684.684 0 0 0 .132-.954l-.247-.327.407-.051a.683.683 0 0 0-.169-1.353l-.407.051.16-.378a.68.68 0 1 0-1.257-.529l-.16.378-.247-.327a.68.68 0 1 0-1.087.821l.248.327-.407.052a.682.682 0 0 0 .083 1.358z"/>
</svg>