<svg xmlns="http://www.w3.org/2000/svg" width="16" height="16" fill="currentColor" class="qi-102" viewBox="0 0 16 16">
  <path d="M8.003 2.504a.5.5 0 0 0 .5-.5v-1.5a.5.5 0 1 0-1 0v1.5a.5.5 0 0 0 .5.5zM3.407 4.109a.5.5 0 1 0 .707-.707L3.054 2.34a.5.5 0 1 0-.707.707zM2.5 7.993a.5.5 0 0 0-.5-.5H.5a.5.5 0 0 0 0 1H2a.5.5 0 0 0 .5-.5zm.898 3.889-1.061 1.06a.5.5 0 1 0 .707.707l1.061-1.06a.5.5 0 0 0-.707-.707zm10.095-3.875a.5.5 0 0 0 .5.5h1.5a.5.5 0 0 0 0-1h-1.5a.5.5 0 0 0-.5.5zm-1.252-3.742a.498.498 0 0 0 .354-.147l1.06-1.06a.5.5 0 1 0-.707-.708l-1.06 1.061a.5.5 0 0 0 .353.854zM4.501 8a3.5 3.5 0 1 1 7 0 3.456 3.456 0 0 1-.128.885 4.115 4.115 0 0 1 .978.209 4.493 4.493 0 1 0-6.893 2.615 3.11 3.11 0 0 1 .67-.763A3.493 3.493 0 0 1 4.5 8z"/>
  <path d="M13.878 11.215a2.144 2.144 0 0 0-.264.026 3.144 3.144 0 0 0-5.226 0 2.145 2.145 0 0 0-.264-.026 2.09 2.09 0 1 0 0 4.18 2.146 2.146 0 0 0 .829-.165 3.109 3.109 0 0 0 4.096 0 2.145 2.145 0 0 0 .829.166 2.09 2.09 0 1 0 0-4.18zm0 3.18a1.142 1.142 0 0 1-.443-.088 1 1 0 0 0-1.039.165 2.109 2.109 0 0 1-2.79 0 1 1 0 0 0-1.039-.165 1.142 1.142 0 0 1-.443.089 1.09 1.09 0 1 1-.007-2.181c.026.001.05.006.075.01l.075.009a1 1 0 0 0 .954-.439 2.144 2.144 0 0 1 3.56 0 1 1 0 0 0 .954.439l.075-.01c.025-.003.05-.008.068-.009a1.09 1.09 0 1 1 0 2.18z"/>
</svg>