<svg xmlns="http://www.w3.org/2000/svg" width="16" height="16" fill="currentColor" class="qi-103" viewBox="0 0 16 16">
  <path d="M4.86 10.83a3.57 3.57 0 0 1 1-.41 3.41 3.41 0 1 1 5.4-1.22 4.18 4.18 0 0 1 .92.32 4.48 4.48 0 0 0 .32-1.64 4.38 4.38 0 0 0-8.76 0 4.33 4.33 0 0 0 1.12 2.95z"/>
  <path d="M13.58 10.72a2.4 2.4 0 0 0-.59.08 4.12 4.12 0 0 0-2.87-1.23 4.06 4.06 0 0 0-3 1.36 2.78 2.78 0 0 0-.58-.06 2.94 2.94 0 0 0-2.43 1.23 1.62 1.62 0 0 0-.44-.1 1.68 1.68 0 1 0 .89 3.1 3 3 0 0 0 2 .71 3.14 3.14 0 0 0 1.51-.39 4 4 0 0 0 2.06.55 3.94 3.94 0 0 0 2.32-.75 2.36 2.36 0 0 0 1.14.3A2.41 2.41 0 0 0 16 13.14a2.52 2.52 0 0 0-2.42-2.42zm0 3.83a1.37 1.37 0 0 1-.66-.18 1 1 0 0 0-.47-.12 1 1 0 0 0-.59.19 2.91 2.91 0 0 1-1.74.56 3 3 0 0 1-1.55-.41 1 1 0 0 0-.51-.14.94.94 0 0 0-.48.13 2.16 2.16 0 0 1-1 .26 2.06 2.06 0 0 1-1.34-.47 1 1 0 0 0-.65-.24c-.19 0-.6.25-.89.25a.68.68 0 0 1 0-1.35c.05 0 .4.06.49.06a.82.82 0 0 0 .78-.43 2 2 0 0 1 1.61-.79c.13 0 .49.07.61.07a1 1 0 0 0 .71-.35 3.13 3.13 0 0 1 2.24-1 3.07 3.07 0 0 1 2.16.93 1 1 0 0 0 .72.3c.1 0 .46-.08.56-.08a1.55 1.55 0 0 1 1.42 1.4 1.42 1.42 0 0 1-1.42 1.41zM8 2.52a.5.5 0 0 0 .5-.5V.52A.5.5 0 0 0 8 0a.5.5 0 0 0-.5.5V2a.5.5 0 0 0 .5.52zm-4.58 1.6a.48.48 0 0 0 .7 0 .48.48 0 0 0 0-.7L3.06 2.36a.49.49 0 0 0-.7.7zM2.51 8a.5.5 0 0 0-.5-.5H.51a.5.5 0 1 0 0 1H2a.5.5 0 0 0 .51-.5zm10.95 0a.5.5 0 0 0 .5.5h1.5A.5.5 0 0 0 16 8a.5.5 0 0 0-.5-.5H14a.5.5 0 0 0-.54.5zm-1.21-3.72a.47.47 0 0 0 .35-.15l1.06-1.06a.49.49 0 1 0-.7-.7L11.9 3.43a.48.48 0 0 0 0 .7.47.47 0 0 0 .35.15z"/>
</svg>