<svg style="enable-background:new 0 0 16 16" xml:space="preserve" xmlns="http://www.w3.org/2000/svg" width="16" height="16" fill="currentColor" class="qi-1033" viewBox="0 0 16 16">
  <path d="M3.439 11.904H3.19l.125-.216a.5.5 0 0 0-.866-.5l-.125.216-.124-.216a.5.5 0 0 0-.866.5l.125.216h-.25a.5.5 0 0 0 0 1h.249l-.125.216a.5.5 0 1 0 .867.5l.125-.216.125.216a.5.5 0 1 0 .867-.5l-.127-.216h.249a.5.5 0 0 0 0-1zm5.676 0h-.249l.125-.216a.5.5 0 0 0-.866-.5L8 11.404l-.125-.216a.5.5 0 1 0-.866.5l.125.216h-.249a.5.5 0 0 0 0 1h.249l-.125.216a.5.5 0 1 0 .867.5L8 13.404l.125.216a.5.5 0 1 0 .867-.5l-.125-.216h.249a.5.5 0 1 0-.001-1zm5.676 0h-.249l.125-.216a.5.5 0 0 0-.866-.5l-.125.216-.125-.216a.5.5 0 1 0-.866.5l.125.216h-.249a.5.5 0 0 0 0 1h.249l-.125.216a.5.5 0 1 0 .867.5l.125-.216.123.216a.5.5 0 1 0 .867-.5l-.125-.216h.249a.5.5 0 0 0 0-1zm-.816-6.758a2.928 2.928 0 0 0-1.75-1.13c-.178-1.577-1.452-2.741-2.859-2.762-1.123-.017-2.192.697-2.695 1.804a2.89 2.89 0 0 0-1.362.553 2.887 2.887 0 0 0-.878 1.082c-1.165-.155-1.991.455-2.353 1.182a1.705 1.705 0 0 0-1.207.13c-.49.259-.873.79-.873 1.414-.001.709.491 1.289 1.08 1.51.73.274 1.378-.09 1.468-.143.169.144.792.638 1.717.639a2.667 2.667 0 0 0 1.473-.45 3.9 3.9 0 0 0 2.195.368 3.861 3.861 0 0 0 1.665-.63 3.48 3.48 0 0 0 2.071.63 3.42 3.42 0 0 0 1.597-.449c.122.057.826.374 1.582.056.768-.323 1.194-1.135 1.156-1.874-.05-.969-.898-1.831-2.027-1.93z"/>
</svg>