<svg style="enable-background:new 0 0 16 16" xml:space="preserve" xmlns="http://www.w3.org/2000/svg" width="16" height="16" fill="currentColor" class="qi-1035" viewBox="0 0 16 16">
  <path d="M13.975 5.113a2.933 2.933 0 0 0-1.75-1.13c-.178-1.577-1.452-2.741-2.859-2.762-1.123-.018-2.192.696-2.695 1.804a2.89 2.89 0 0 0-1.362.553 2.887 2.887 0 0 0-.878 1.082c-1.165-.156-1.991.454-2.353 1.181a1.707 1.707 0 0 0-1.207.131c-.49.259-.873.79-.873 1.414-.001.709.491 1.289 1.08 1.51.73.274 1.378-.09 1.468-.143.169.144.792.638 1.717.639a2.667 2.667 0 0 0 1.473-.45 3.9 3.9 0 0 0 2.195.368 3.891 3.891 0 0 0 1.665-.631 3.48 3.48 0 0 0 2.071.63 3.42 3.42 0 0 0 1.597-.449c.122.057.826.374 1.582.056.768-.323 1.194-1.135 1.156-1.874-.05-.968-.898-1.831-2.027-1.929zm-8.359 5.282a.699.699 0 0 0-.937.319l-1.321 2.683a.7.7 0 1 0 1.256.618l1.321-2.683a.7.7 0 0 0-.319-.937zm-2.901.001a.7.7 0 0 0-.938.314l-.723 1.452a.699.699 0 1 0 1.253.624l.723-1.452a.7.7 0 0 0-.315-.938zm8.764-.001a.698.698 0 0 0-.937.319L9.22 13.397a.7.7 0 1 0 1.256.618l1.321-2.683a.7.7 0 0 0-.318-.937zm-2.901.001a.7.7 0 0 0-.938.314l-.723 1.452a.699.699 0 1 0 1.253.624l.723-1.452a.7.7 0 0 0-.315-.938zm5.862 0a.7.7 0 0 0-.938.314l-.723 1.452a.699.699 0 1 0 1.253.624l.723-1.452a.7.7 0 0 0-.315-.938z"/>
</svg>