<svg style="enable-background:new 0 0 16 16" xml:space="preserve" xmlns="http://www.w3.org/2000/svg" width="16" height="16" fill="currentColor" class="qi-1039" viewBox="0 0 16 16">
  <path d="M14.505 9.164h-1.221a.491.491 0 0 0-.325.122l-4.966 4.349-4.967-4.349a.491.491 0 0 0-.325-.122H1.48a.102.102 0 0 0-.067.178l6.376 5.583a.309.309 0 0 0 .407 0l6.376-5.583a.102.102 0 0 0-.067-.178zM5.652 4.022c.126 0 .23-.044.315-.133a.46.46 0 0 0 .127-.332.45.45 0 0 0-.126-.329c-.085-.087-.189-.13-.315-.13s-.232.044-.316.133-.126.198-.126.329.042.24.126.329.189.133.315.133z"/>
  <path d="M7.836 12.376a.237.237 0 0 0 .312 0l6.253-5.475a.304.304 0 0 0-.2-.532h-2.272V1.456a.475.475 0 0 0-.475-.475H4.403a.475.475 0 0 0-.475.475v4.913H1.784a.303.303 0 0 0-.2.532l6.252 5.475zm-.001-8.541c.607-.28 1.17-.18 1.327-.15.145.028.572.125.994.465.244.197.461.464.555.611l-.484.521c-.11-.183-.487-.632-1.042-.774-.779-.199-1.932.258-1.943 1.548-.01 1.27 1.103 1.824 2.033 1.579.506-.133.823-.512.958-.706l.474.505a2.611 2.611 0 0 1-.867.758c-.473.259-.911.246-1.092.242-.194-.005-1.03-.024-1.65-.664-.626-.647-.653-1.455-.653-1.744 0-.648.24-1.205.668-1.67.097-.106.357-.353.722-.521zm-2.81-.894a.868.868 0 0 1 .628-.253.88.88 0 0 1 .64.243.819.819 0 0 1 .249.616.836.836 0 0 1-.249.62.87.87 0 0 1-.629.243.893.893 0 0 1-.64-.249.81.81 0 0 1-.26-.608c0-.239.087-.442.261-.612z"/>
</svg>