<svg style="enable-background:new 0 0 16 16" xml:space="preserve" xmlns="http://www.w3.org/2000/svg" width="16" height="16" fill="currentColor" class="qi-1047" viewBox="0 0 16 16">
  <path d="M2.446 4.676a.613.613 0 0 0 0-1.225.613.613 0 0 0 0 1.225zM.975 8.831a.415.415 0 0 0-.408.418c0 .234.188.418.408.418s.408-.192.408-.418a.415.415 0 0 0-.408-.418zm2.143-2.542c0-.477-.39-.867-.868-.867s-.868.39-.868.867.39.868.868.868.868-.391.868-.868zm-.408 5.562a.41.41 0 0 0-.408.408c0 .229.188.408.408.408s.408-.188.408-.408a.41.41 0 0 0-.408-.408zm3.538-5.102a.58.58 0 0 0 .578-.578.58.58 0 0 0-.578-.578.572.572 0 0 0-.578.578.58.58 0 0 0 .578.578zm1.746-2.552a.59.59 0 0 0 .589-.589c0-.33-.271-.589-.589-.589s-.589.259-.589.589c0 .33.27.589.589.589z"/>
  <circle cx="13.655" cy="3.991" r=".496"/>
  <circle cx="4.394" cy="9.249" r="1.276"/>
  <path d="M4.183 3.544c.477 0 .867-.39.867-.867s-.39-.868-.867-.868-.868.39-.868.868.39.867.868.867zm6.998 5.348a.4.4 0 0 0-.408.408.41.41 0 0 0 .408.408.41.41 0 0 0 .408-.408.41.41 0 0 0-.408-.408zm1.684-1.735a.87.87 0 0 0 .868-.868.869.869 0 0 0-1.736 0c0 .477.391.868.868.868zm.139 4.171c-.477 0-.868.39-.868.867s.39.868.868.868a.869.869 0 0 0 0-1.735zm1.499-3.287a.878.878 0 0 0-.875.875c0 .481.394.875.875.875a.878.878 0 0 0 .875-.875.877.877 0 0 0-.875-.875zm-3.118-4.809c.477 0 .867-.39.867-.868s-.39-.868-.867-.868-.868.39-.868.868.391.868.868.868zM9.497 5.014A1.28 1.28 0 0 0 8.221 6.29c0 .706.57 1.276 1.276 1.276.706 0 1.276-.57 1.276-1.276 0-.707-.57-1.276-1.276-1.276zm-3.785 7.591c-.649 0-1.18.531-1.18 1.18s.531 1.18 1.18 1.18c.649 0 1.18-.531 1.18-1.18s-.531-1.18-1.18-1.18z"/>
  <circle cx="7.762" cy="9.249" r=".868"/>
  <circle cx="9.243" cy="12.195" r=".958"/>
</svg>