<svg style="enable-background:new 0 0 16 16" xml:space="preserve" xmlns="http://www.w3.org/2000/svg" width="16" height="16" fill="currentColor" class="qi-1056" viewBox="0 0 16 16">
  <path d="M13.745 7.827V3.949c0-1.626-1.323-2.95-2.95-2.95s-2.95 1.324-2.95 2.95v3.878a4.178 4.178 0 0 0-1.25 2.968c0 2.316 1.885 4.2 4.2 4.2s4.2-1.884 4.2-4.2a4.176 4.176 0 0 0-1.25-2.968zm-2.95 5.768a2.803 2.803 0 0 1-2.8-2.8 2.79 2.79 0 0 1 1.002-2.126.701.701 0 0 0 .248-.534V3.949c0-.854.695-1.55 1.55-1.55s1.55.695 1.55 1.55v4.186a.7.7 0 0 0 .248.534 2.788 2.788 0 0 1 1.002 2.126c0 1.544-1.256 2.8-2.8 2.8zm-5.32-9.616H1.729a.7.7 0 1 0 0 1.4h3.746a.7.7 0 1 0 0-1.4z"/>
  <path d="M11.245 9.203V7.075a.5.5 0 0 0-1 0v2.141a1.754 1.754 0 0 0 .522 3.431 1.76 1.76 0 0 0 1.759-1.759c0-.805-.543-1.476-1.281-1.685z"/>
</svg>