<svg xmlns="http://www.w3.org/2000/svg" width="16" height="16" fill="currentColor" class="qi-153" viewBox="0 0 16 16">
  <path d="M15.47 7.68h-.14a5.33 5.33 0 0 1-1.39.32 5.51 5.51 0 0 1-1.85-.24 5.47 5.47 0 0 1-3.56-3.38 5.48 5.48 0 0 1-.25-3.07.49.49 0 0 0-.49-.61.39.39 0 0 0-.18 0A6.16 6.16 0 0 0 4 7a6 6 0 0 0 1.09 2.8 4.26 4.26 0 0 1 .85-.51A5 5 0 0 1 5 6.9a5.18 5.18 0 0 1 2.18-4.78 6.68 6.68 0 0 0 .41 2.6 6.48 6.48 0 0 0 4.21 3.94 6.57 6.57 0 0 0 2.2.28c.22 0 .45 0 .66-.06a5.13 5.13 0 0 1-1.47 1.64 3.25 3.25 0 0 1 .66.77 6.27 6.27 0 0 0 2.14-3 .49.49 0 0 0-.52-.61z"/>
  <path d="M11.59 10.71a2.49 2.49 0 0 0-.6.08 4.07 4.07 0 0 0-2.87-1.23 4.07 4.07 0 0 0-3 1.36 2.78 2.78 0 0 0-.58-.05 2.94 2.94 0 0 0-2.44 1.22 1.55 1.55 0 0 0-.42-.09 1.68 1.68 0 1 0 .88 3.1 3.06 3.06 0 0 0 2 .71 3.18 3.18 0 0 0 1.52-.39 4 4 0 0 0 2 .55 4 4 0 0 0 2.33-.74 2.41 2.41 0 0 0 3.59-2.1 2.51 2.51 0 0 0-2.41-2.42zm0 3.83a1.4 1.4 0 0 1-.67-.18 1 1 0 0 0-.47-.11 1 1 0 0 0-.59.18 2.89 2.89 0 0 1-1.74.57 3 3 0 0 1-1.55-.41 1 1 0 0 0-.5-.14 1 1 0 0 0-.49.13 2.13 2.13 0 0 1-1 .26 2.08 2.08 0 0 1-1.34-.47 1 1 0 0 0-.65-.24c-.18 0-.6.26-.88.26a.68.68 0 1 1 0-1.36s.39.06.48.06a.82.82 0 0 0 .78-.43 2 2 0 0 1 1.61-.78c.14 0 .49.06.61.06a.94.94 0 0 0 .72-.35 3.1 3.1 0 0 1 2.24-1 3.06 3.06 0 0 1 2.15.93 1 1 0 0 0 .72.3c.1 0 .46-.08.57-.08A1.55 1.55 0 0 1 13 13.13a1.41 1.41 0 0 1-1.41 1.41z"/>
</svg>