<svg style="enable-background:new 0 0 16 16" xml:space="preserve" xmlns="http://www.w3.org/2000/svg" width="16" height="16" fill="currentColor" class="qi-1604" viewBox="0 0 16 16">
  <circle cx="8" cy="8" r="4.545"/>
  <circle cx="8" cy="8" r=".085" style="fill:#ea0392"/>
  <path d="M8.085 8.107a3.85 3.85 0 0 1-1.299-2.876 3.876 3.876 0 0 1 3.876-3.876c.413 0 .803.082 1.177.202a6.107 6.107 0 0 0-8.539 5.6c0 .923.211 1.795.577 2.579.994-.731 2.468-1.312 4.208-1.629z"/>
  <path d="M8.135 7.98c-1.01.33-2.147.26-3.141-.313a3.876 3.876 0 0 1-1.419-5.295c.207-.358.473-.655.763-.918a6.106 6.106 0 0 0 .582 10.194 6.08 6.08 0 0 0 2.522.79c-.136-1.225.098-2.792.693-4.458z"/>
  <path d="M8.05 7.873a3.852 3.852 0 0 1-1.841 2.563A3.876 3.876 0 0 1 .914 9.017 3.81 3.81 0 0 1 .5 7.898a6.107 6.107 0 0 0 9.119 4.594 6.076 6.076 0 0 0 1.945-1.789c-1.129-.496-2.369-1.482-3.514-2.83z"/>
  <path d="M7.915 7.893a3.85 3.85 0 0 1 1.299 2.876 3.876 3.876 0 0 1-3.876 3.876 3.83 3.83 0 0 1-1.177-.202 6.107 6.107 0 0 0 8.538-5.601c0-.923-.211-1.795-.577-2.579-.993.732-2.467 1.313-4.207 1.63z"/>
  <path d="M7.865 8.02a3.85 3.85 0 0 1 3.141.313 3.876 3.876 0 0 1 1.419 5.295 3.836 3.836 0 0 1-.763.918 6.107 6.107 0 0 0-.581-10.195 6.08 6.08 0 0 0-2.522-.79c.135 1.226-.099 2.793-.694 4.459z"/>
  <path d="M7.95 8.127a3.852 3.852 0 0 1 1.841-2.563 3.876 3.876 0 0 1 5.295 1.419c.207.358.331.737.414 1.12a6.107 6.107 0 0 0-9.119-4.594 6.065 6.065 0 0 0-1.945 1.789c1.129.495 2.369 1.481 3.514 2.829z"/>
</svg>