<svg style="enable-background:new 0 0 16 16" xml:space="preserve" xmlns="http://www.w3.org/2000/svg" width="16" height="16" fill="currentColor" class="qi-2021" viewBox="0 0 16 16">
  <path d="M15.422 5.571 12.227.345a.256.256 0 0 0-.438 0L8.595 5.571a.257.257 0 0 0 .219.391h6.389c.201 0 .324-.22.219-.391zm-3.414-.784a.292.292 0 1 1 0-.585.292.292 0 0 1 0 .585zm.198-.85h-.396l-.161-1.157a.363.363 0 1 1 .72 0l-.163 1.157zM4.7 6.253a.793.793 0 1 0-.001-1.585.793.793 0 0 0 .001 1.585z"/>
  <path d="M15.649 15.871c-.592-2.882-.113-4.102-.938-5.691-.656-1.262-3.212-.883-3.499.122 1.232-.292 1.293 1.814-.793 3.355a49.73 49.73 0 0 0-.904-.416c.967-.835 1.404-1.81 1.112-2.559-.213-.549-.725-.791-1.218-1.025-.998-.475-2.74-.624-3.284-.63a3.079 3.079 0 0 1-.446-.983c.383.121.784.186 1.192.186.755 0 1.53-.207 2.244-.621a.501.501 0 0 0-.502-.865c-1.062.616-2.282.642-3.217.083a.692.692 0 0 0-.514-.234.694.694 0 0 0-.409.155c-.024.001-.046-.006-.07-.001a2.925 2.925 0 0 1-2.942-1.266.501.501 0 0 0-.83.559 3.944 3.944 0 0 0 3.257 1.754c.107 0 .215-.021.323-.03.078.731.364 1.77 1.283 2.695a.696.696 0 0 0 .497.207.683.683 0 0 0 .292-.071c.047-.019.708-.277 1.235.079.052.035.5.354.47.727-.026.331-.428.714-1.031.755-.012.001-.022.008-.034.009a27.111 27.111 0 0 0-1.375-.479c-2.38-.751-4.485-1.192-5.197-1.264.381 1.479 1.599 2.326 2.847 3.052.958.558 2.879 1.357 3.721 1.7-1.31.347-2.484.52-2.968.696l11.698.001zm-6.664-4.39c.034-.422-.117-.772-.307-1.043.108.038.211.078.302.121.347.164.646.307.716.485.126.323-.257 1.036-1.115 1.669-.032.024-.053.056-.078.085l-.239-.1c.407-.305.682-.734.721-1.217z"/>
</svg>