<svg xmlns="http://www.w3.org/2000/svg" width="16" height="16" fill="currentColor" class="qi-303" viewBox="0 0 16 16">
  <path d="M3.685 8.455a3.172 3.172 0 0 0 1.243-.253 4.61 4.61 0 0 0 6.144 0 3.185 3.185 0 1 0 1.243-6.116 3.146 3.146 0 0 0-.396.04 4.675 4.675 0 0 0-7.838 0 3.146 3.146 0 0 0-.397-.04 3.184 3.184 0 1 0 0 6.369zm0-5.37a1.237 1.237 0 0 1 .17.02l.101.013a1 1 0 0 0 .962-.444 3.675 3.675 0 0 1 6.164 0 1 1 0 0 0 .962.444l.102-.014a1.237 1.237 0 0 1 .17-.018 2.184 2.184 0 1 1-.853 4.196 1 1 0 0 0-1.05.167 3.61 3.61 0 0 1-4.827 0 1 1 0 0 0-1.049-.167 2.185 2.185 0 1 1-.852-4.196zM2.998 12.5a1 1 0 1 0 2 0 6.604 6.604 0 0 0-1-2 6.604 6.604 0 0 0-1 2zm-2-1.552a.786.786 0 1 0 1.573 0 5.193 5.193 0 0 0-.787-1.573 5.193 5.193 0 0 0-.786 1.573zm12.429 0a.786.786 0 1 0 1.573 0 5.193 5.193 0 0 0-.786-1.573 5.193 5.193 0 0 0-.787 1.573zM11.026 12.5a1 1 0 0 0 2 0 6.604 6.604 0 0 0-1-2 6.604 6.604 0 0 0-1 2zm-2.352-.86c-.058 0-.096-.051-.07-.095l.858-1.462c.026-.044-.012-.096-.07-.096h-1.71a.167.167 0 0 0-.145.078l-1.514 2.681c-.045.08.024.172.128.172H7.69c.054 0 .091.045.074.088l-.8 1.976c-.03.07.078.12.134.064l3.227-3.297c.042-.043.006-.109-.06-.109z"/>
</svg>