<svg xmlns="http://www.w3.org/2000/svg" width="16" height="16" fill="currentColor" class="qi-308" viewBox="0 0 16 16">
  <path d="M7.99 11.449a6.606 6.606 0 0 0-1 2 1 1 0 0 0 2 0 6.606 6.606 0 0 0-1-2zm-3.052-1.5a6.606 6.606 0 0 0-1 2 1 1 0 0 0 2 0 6.606 6.606 0 0 0-1-2zm6.028 0a6.606 6.606 0 0 0-1 2 1 1 0 0 0 2 0 6.606 6.606 0 0 0-1-2zm-8.961.053a.5.5 0 0 0-.5.5v2.953a.5.5 0 0 0 1 0v-2.953a.5.5 0 0 0-.5-.5zm11.763 0a.5.5 0 0 0-.5.5v2.953a.5.5 0 0 0 1 0v-2.953a.5.5 0 0 0-.5-.5zM7.343 0a4.267 4.267 0 0 0-3.576 1.94 2.853 2.853 0 0 0-.362-.037 2.905 2.905 0 1 0 1.135 5.58 4.285 4.285 0 0 0 2.093 1.003 2.267 2.267 0 0 1-.362-1.108l-.003-.036a2.982 2.982 0 0 1-1.07-.612 1 1 0 0 0-1.049-.167 1.905 1.905 0 1 1-.744-3.66 1.02 1.02 0 0 1 .143.016l.094.012a.982.982 0 0 0 .125.008 1 1 0 0 0 .837-.452 3.265 3.265 0 0 1 5.477 0 1 1 0 0 0 .837.452.982.982 0 0 0 .125-.008l.094-.012a1.02 1.02 0 0 1 .143-.016 1.89 1.89 0 0 1 1.543.806 2.527 2.527 0 0 1 1.34.874 2.896 2.896 0 0 0-2.883-2.68 2.852 2.852 0 0 0-.362.036A4.267 4.267 0 0 0 7.343 0z"/>
  <path d="M11.43 4.87a1.836 1.836 0 0 1 1.539.836 1 1 0 0 0 .961.444l.068-.009.048-.007a.93.93 0 1 1-.363 1.786 1 1 0 0 0-1.05.167 1.794 1.794 0 0 1-2.406 0 1 1 0 0 0-1.049-.167.93.93 0 1 1-.375-1.787l.06.008.068.01a1 1 0 0 0 .961-.445 1.836 1.836 0 0 1 1.539-.836m0-1a2.834 2.834 0 0 0-2.375 1.288 1.904 1.904 0 0 0-.24-.024 1.93 1.93 0 1 0 .753 3.706 2.794 2.794 0 0 0 3.723 0 1.93 1.93 0 1 0 .754-3.706 1.904 1.904 0 0 0-.24.024A2.834 2.834 0 0 0 11.43 3.87z"/>
</svg>