<svg xmlns="http://www.w3.org/2000/svg" width="16" height="16" fill="currentColor" class="qi-315" viewBox="0 0 16 16">
  <path d="M9.435 12.443a1 1 0 0 0 2 0 6.603 6.603 0 0 0-1-2 6.603 6.603 0 0 0-1 2zm2.88-10.357a3.146 3.146 0 0 0-.396.04 4.675 4.675 0 0 0-7.838 0 3.146 3.146 0 0 0-.396-.04 3.184 3.184 0 1 0 1.243 6.116 4.61 4.61 0 0 0 6.144 0 3.185 3.185 0 1 0 1.243-6.116zm0 5.369a2.17 2.17 0 0 1-.852-.173 1 1 0 0 0-1.05.167 3.61 3.61 0 0 1-4.827 0 1 1 0 0 0-1.049-.167 2.185 2.185 0 1 1-.852-4.196 1.236 1.236 0 0 1 .17.018l.101.014a1 1 0 0 0 .962-.444 3.675 3.675 0 0 1 6.164 0 1 1 0 0 0 .962.444l.102-.014a1.236 1.236 0 0 1 .17-.018 2.184 2.184 0 1 1 0 4.369zm-9.917 4.881a.786.786 0 0 0 1.573 0 5.193 5.193 0 0 0-.786-1.572 5.193 5.193 0 0 0-.787 1.572zm9.633-1.179a.786.786 0 1 0 1.573 0 5.193 5.193 0 0 0-.786-1.573 5.193 5.193 0 0 0-.787 1.573zm-4.59-1.007a.502.502 0 0 0-.626.329L5.73 13.958a.5.5 0 0 0 .955.297l1.085-3.478a.5.5 0 0 0-.329-.627z"/>
</svg>