<svg xmlns="http://www.w3.org/2000/svg" width="16" height="16" fill="currentColor" class="qi-317" viewBox="0 0 16 16">
  <path d="M12.768 11.264a1 1 0 1 0 2 0 6.603 6.603 0 0 0-1-2 6.603 6.603 0 0 0-1 2zM15.5 5.27a3.184 3.184 0 0 0-3.185-3.184 3.146 3.146 0 0 0-.396.04 4.675 4.675 0 0 0-7.838 0 3.146 3.146 0 0 0-.396-.04 3.184 3.184 0 1 0 1.243 6.116 4.61 4.61 0 0 0 6.144 0A3.185 3.185 0 0 0 15.5 5.27zm-3.185 2.185a2.17 2.17 0 0 1-.852-.173 1 1 0 0 0-1.05.167 3.61 3.61 0 0 1-4.827 0 1 1 0 0 0-1.049-.167 2.185 2.185 0 1 1-.852-4.196 1.236 1.236 0 0 1 .17.018l.101.014a1 1 0 0 0 .962-.444 3.675 3.675 0 0 1 6.164 0 1 1 0 0 0 .962.444l.102-.014a1.236 1.236 0 0 1 .17-.018 2.184 2.184 0 1 1 0 4.369zM1.583 11.157a.786.786 0 1 0 1.572 0 5.193 5.193 0 0 0-.786-1.573 5.193 5.193 0 0 0-.786 1.573zm6.754-1.007a.499.499 0 0 0-.627.329l-1.086 3.479a.5.5 0 0 0 .955.297l1.086-3.478a.5.5 0 0 0-.328-.626zm-2.707.196a.502.502 0 0 0-.626.328l-.818 2.62a.501.501 0 0 0 .328.626.516.516 0 0 0 .15.023.501.501 0 0 0 .477-.351l.818-2.62a.501.501 0 0 0-.328-.626zm5.406 0a.502.502 0 0 0-.627.328l-.818 2.62a.501.501 0 0 0 .329.626.516.516 0 0 0 .149.023.501.501 0 0 0 .478-.351l.817-2.62a.501.501 0 0 0-.328-.626z"/>
</svg>