<svg xmlns="http://www.w3.org/2000/svg" width="16" height="16" fill="currentColor" class="qi-400" viewBox="0 0 16 16">
  <path d="M12.315 2.086a3.146 3.146 0 0 0-.396.04 4.675 4.675 0 0 0-7.838 0 3.146 3.146 0 0 0-.396-.04 3.184 3.184 0 1 0 1.243 6.116 4.61 4.61 0 0 0 6.144 0 3.185 3.185 0 1 0 1.243-6.116zm0 5.369a2.17 2.17 0 0 1-.852-.173 1 1 0 0 0-1.05.167 3.61 3.61 0 0 1-4.827 0 1 1 0 0 0-1.049-.167 2.185 2.185 0 1 1-.852-4.196 1.236 1.236 0 0 1 .17.018l.101.014a1 1 0 0 0 .962-.444 3.675 3.675 0 0 1 6.164 0 1 1 0 0 0 .962.444l.102-.014a1.236 1.236 0 0 1 .17-.018 2.184 2.184 0 1 1 0 4.369zm-1.055 5.011-.44-.254.434-.251a.35.35 0 0 0-.35-.607l-.435.251v-.508a.35.35 0 1 0-.699 0v.509l-.435-.251a.35.35 0 0 0-.35.606l.434.25-.44.255a.35.35 0 1 0 .35.606l.441-.255v.503a.35.35 0 1 0 .7 0v-.502l.44.254a.35.35 0 0 0 .35-.606zm-4.739 0-.44-.254.434-.251a.35.35 0 0 0-.35-.607l-.434.251v-.508a.35.35 0 1 0-.699 0v.509l-.436-.251a.35.35 0 0 0-.35.606l.435.25-.44.255a.35.35 0 1 0 .35.606l.441-.255v.503a.35.35 0 1 0 .7 0v-.502l.44.254a.35.35 0 0 0 .35-.606z"/>
</svg>