<svg xmlns="http://www.w3.org/2000/svg" width="16" height="16" fill="currentColor" class="qi-403" viewBox="0 0 16 16">
  <path d="M3.685 8.455a3.172 3.172 0 0 0 1.243-.253 4.61 4.61 0 0 0 6.144 0 3.185 3.185 0 1 0 1.243-6.116 3.147 3.147 0 0 0-.396.04 4.675 4.675 0 0 0-7.838 0 3.147 3.147 0 0 0-.397-.04 3.184 3.184 0 1 0 0 6.369zm0-5.37a1.236 1.236 0 0 1 .17.02l.101.013a1 1 0 0 0 .962-.444 3.675 3.675 0 0 1 6.164 0 1 1 0 0 0 .962.444l.102-.014a1.236 1.236 0 0 1 .17-.018 2.184 2.184 0 1 1-.853 4.196 1 1 0 0 0-1.05.167 3.61 3.61 0 0 1-4.827 0 1 1 0 0 0-1.049-.167 2.185 2.185 0 1 1-.852-4.196zm4.759 11.299.514-.297a.303.303 0 0 0-.304-.524l-.513.296v-.6a.302.302 0 1 0-.605 0v.6l-.514-.296a.303.303 0 0 0-.304.524l.514.297-.52.3a.303.303 0 1 0 .304.524l.52-.3v.593a.302.302 0 1 0 .605 0v-.593l.52.3a.302.302 0 0 0 .413-.11.302.302 0 0 0-.11-.414zM4.865 12.35l.514-.298a.303.303 0 0 0-.303-.524l-.514.297v-.6a.302.302 0 0 0-.605 0v.6l-.514-.297a.303.303 0 0 0-.303.524l.514.297-.52.3a.303.303 0 0 0 .303.525l.52-.3v.593a.302.302 0 0 0 .605 0v-.593l.52.3a.303.303 0 0 0 .303-.524zm7.255 0 .514-.298a.303.303 0 0 0-.304-.524l-.513.297v-.6a.302.302 0 0 0-.605 0v.6l-.513-.297a.303.303 0 0 0-.304.525l.514.296-.52.3a.303.303 0 0 0 .303.525l.52-.3v.593a.302.302 0 1 0 .605 0v-.593l.52.3a.303.303 0 0 0 .303-.524zm-4.233.04a.302.302 0 0 0 .302-.302v-.356l.314.18a.302.302 0 0 0 .413-.11.302.302 0 0 0-.11-.414l-.313-.18.309-.179a.303.303 0 0 0-.303-.524l-.31.179v-.363a.302.302 0 0 0-.605 0v.362l-.308-.178a.303.303 0 0 0-.304.524l.309.178-.314.181a.303.303 0 1 0 .304.525l.313-.181v.356a.302.302 0 0 0 .303.303zm7.962-1.983-.52-.3.514-.297a.303.303 0 0 0-.304-.524l-.514.297v-.601a.302.302 0 0 0-.605 0v.6l-.513-.296a.303.303 0 0 0-.304.524l.514.297-.52.3a.303.303 0 0 0 .304.524l.52-.3v.593a.302.302 0 0 0 .604 0v-.593l.52.3a.303.303 0 0 0 .304-.524zm-13.966-.3.514-.297a.303.303 0 0 0-.304-.524l-.514.297v-.601a.302.302 0 0 0-.605 0v.6L.46 9.286a.303.303 0 0 0-.304.524l.514.297-.52.3a.303.303 0 0 0 .304.524l.519-.3v.593a.302.302 0 0 0 .605 0v-.593l.52.3a.303.303 0 0 0 .304-.524z"/>
</svg>