<svg xmlns="http://www.w3.org/2000/svg" width="16" height="16" fill="currentColor" class="qi-406" viewBox="0 0 16 16">
  <path d="M4.436 14.968a1 1 0 0 0 2 0 6.604 6.604 0 0 0-1-2 6.604 6.604 0 0 0-1 2zm6.827-.272-.557-.322.551-.318a.35.35 0 0 0-.35-.606l-.55.319v-.645a.35.35 0 1 0-.7 0v.645l-.552-.319a.35.35 0 0 0-.35.606l.552.319-.557.321a.35.35 0 1 0 .35.607l.557-.322v.636a.35.35 0 1 0 .7 0v-.636l.557.322a.35.35 0 0 0 .35-.607zM5.195 1.904h.007a.5.5 0 0 0 .493-.506L5.683.494a.5.5 0 0 0-.5-.494h-.007a.5.5 0 0 0-.493.506l.012.905a.5.5 0 0 0 .5.493zm-2.892.946a.5.5 0 1 0 .698-.716l-.648-.63a.5.5 0 1 0-.697.715zm-.179 2.203a.5.5 0 0 0-.5-.493h-.007l-.904.011a.5.5 0 0 0 .006 1h.007l.905-.011a.5.5 0 0 0 .493-.507zm5.638-2.12a.5.5 0 0 0 .359-.151l.63-.648a.5.5 0 0 0-.716-.698l-.631.647a.5.5 0 0 0 .358.85zm4.254 2.646a2.938 2.938 0 0 0-.37.037 4.364 4.364 0 0 0-7.315 0 2.937 2.937 0 0 0-.37-.037 2.972 2.972 0 1 0 1.16 5.709 4.302 4.302 0 0 0 5.734 0 2.972 2.972 0 1 0 1.161-5.71zm0 4.944a1.959 1.959 0 0 1-.77-.156 1 1 0 0 0-1.049.168 3.302 3.302 0 0 1-4.418 0 1 1 0 0 0-1.049-.168 1.972 1.972 0 1 1-.77-3.788 1.077 1.077 0 0 1 .15.017l.096.012a1 1 0 0 0 .961-.444 3.364 3.364 0 0 1 5.642 0 1 1 0 0 0 .962.444l.096-.012a1.08 1.08 0 0 1 .149-.017 1.972 1.972 0 1 1 0 3.944zM2.47 5.315a3.53 3.53 0 0 1 1.018-.288 1.831 1.831 0 0 1 1.811-1.603 1.809 1.809 0 0 1 .553.095 4.926 4.926 0 0 1 1.282-.405 2.82 2.82 0 0 0-4.67 2.145c0 .02.006.037.006.056z"/>
</svg>