<svg xmlns="http://www.w3.org/2000/svg" width="16" height="16" fill="currentColor" class="qi-407" viewBox="0 0 16 16">
  <path d="M5.241 1.904h.007a.5.5 0 0 0 .493-.506L5.73.494A.5.5 0 0 0 5.23 0h-.007a.5.5 0 0 0-.493.506l.011.905a.5.5 0 0 0 .5.493zM2.35 2.85a.5.5 0 1 0 .697-.716l-.647-.63a.5.5 0 1 0-.698.715zm-.18 2.203a.5.5 0 0 0-.5-.493h-.007l-.903.01a.5.5 0 0 0 .007 1h.007l.904-.011a.5.5 0 0 0 .493-.507zm5.639-2.12a.5.5 0 0 0 .358-.151l.631-.648a.5.5 0 0 0-.717-.698l-.63.647a.5.5 0 0 0 .358.85zm4.253 2.646a2.938 2.938 0 0 0-.37.037 4.364 4.364 0 0 0-7.315 0 2.937 2.937 0 0 0-.37-.037 2.972 2.972 0 1 0 1.16 5.709 4.302 4.302 0 0 0 5.735 0 2.972 2.972 0 1 0 1.16-5.71zm0 4.944a1.959 1.959 0 0 1-.77-.156 1 1 0 0 0-1.049.168 3.302 3.302 0 0 1-4.417 0 1 1 0 0 0-1.05-.168 1.972 1.972 0 1 1-.77-3.788 1.077 1.077 0 0 1 .15.017l.096.012a1 1 0 0 0 .961-.444 3.364 3.364 0 0 1 5.643 0 1 1 0 0 0 .961.444l.096-.012a1.08 1.08 0 0 1 .15-.017 1.972 1.972 0 0 1 0 3.944zm-.802 4.273-.44-.254.434-.251a.35.35 0 0 0-.35-.606l-.435.25v-.508a.35.35 0 1 0-.699 0v.509l-.435-.251a.35.35 0 0 0-.35.606l.434.25-.44.255a.35.35 0 1 0 .35.606l.441-.255v.503a.35.35 0 1 0 .7 0v-.502l.44.254a.35.35 0 0 0 .35-.606zm-4.739 0-.44-.254.434-.251a.35.35 0 0 0-.35-.606l-.434.25v-.508a.35.35 0 1 0-.699 0v.509l-.436-.251a.35.35 0 0 0-.35.606l.435.25-.44.255a.35.35 0 1 0 .35.606l.441-.255v.503a.35.35 0 1 0 .7 0v-.502l.44.254a.35.35 0 0 0 .35-.606zM2.516 5.315a3.53 3.53 0 0 1 1.018-.288 1.831 1.831 0 0 1 1.812-1.603 1.809 1.809 0 0 1 .552.095 4.926 4.926 0 0 1 1.282-.405A2.82 2.82 0 0 0 2.51 5.26c0 .02.006.037.006.056z"/>
</svg>