<svg xmlns="http://www.w3.org/2000/svg" width="16" height="16" fill="currentColor" class="qi-408" viewBox="0 0 16 16">
  <path d="m12.035 11.946.51-.294a.3.3 0 0 0-.301-.52l-.509.295v-.595a.3.3 0 1 0-.6 0v.595l-.51-.294a.3.3 0 0 0-.3.52l.51.293-.516.298a.3.3 0 0 0 .3.52l.516-.298v.588a.3.3 0 0 0 .6 0v-.588l.515.298a.3.3 0 0 0 .3-.52zm-7.25 0 .306-.177a.3.3 0 0 0-.3-.52l-.307.177v-.359a.3.3 0 0 0-.6 0v.359l-.305-.177a.3.3 0 0 0-.301.52l.306.177-.31.179a.3.3 0 0 0 .15.56.303.303 0 0 0 .15-.04l.31-.18v.354a.3.3 0 0 0 .6 0v-.354l.31.18a.3.3 0 0 0 .41-.11.3.3 0 0 0-.109-.41zm7.53-9.86a3.146 3.146 0 0 0-.396.04 4.675 4.675 0 0 0-7.838 0 3.146 3.146 0 0 0-.396-.04 3.184 3.184 0 1 0 1.243 6.116 4.61 4.61 0 0 0 6.144 0 3.185 3.185 0 1 0 1.243-6.116zm0 5.369a2.17 2.17 0 0 1-.852-.173 1 1 0 0 0-1.05.167 3.61 3.61 0 0 1-4.827 0 1 1 0 0 0-1.049-.167 2.185 2.185 0 1 1-.852-4.196 1.236 1.236 0 0 1 .17.018l.101.014a1 1 0 0 0 .962-.444 3.675 3.675 0 0 1 6.164 0 1 1 0 0 0 .962.444l.102-.014a1.236 1.236 0 0 1 .17-.018 2.184 2.184 0 1 1 0 4.369zM8.441 10.15a.501.501 0 0 0-.626.329L6.73 13.957a.5.5 0 0 0 .955.298l1.085-3.478a.5.5 0 0 0-.329-.627z"/>
</svg>