<svg xmlns="http://www.w3.org/2000/svg" width="16" height="16" fill="currentColor" class="qi-456" viewBox="0 0 16 16">
  <path d="M4.436 14.941a1 1 0 0 0 2 0 6.605 6.605 0 0 0-1-2 6.605 6.605 0 0 0-1 2zm6.827-.245-.557-.322.551-.318a.35.35 0 0 0-.35-.606l-.55.319v-.645a.35.35 0 1 0-.7 0v.645l-.552-.319a.35.35 0 0 0-.35.606l.552.319-.557.321a.35.35 0 1 0 .35.607l.557-.322v.636a.35.35 0 1 0 .7 0v-.636l.557.322a.35.35 0 0 0 .35-.607zm4.209-10.481a.31.31 0 0 0-.08.01 3.066 3.066 0 0 1-.807.109 3.201 3.201 0 0 1-1.06-.185A3.183 3.183 0 0 1 11.498.364.289.289 0 0 0 11.226 0a.279.279 0 0 0-.104.02A3.546 3.546 0 0 0 8.91 3.117a4.928 4.928 0 0 1 .991.293 2.56 2.56 0 0 1 .54-1.671 4.42 4.42 0 0 0 .164.707 4.166 4.166 0 0 0 2.59 2.649 4.328 4.328 0 0 0 .846.203 2.606 2.606 0 0 1-.238.163 3.573 3.573 0 0 1 .822.643 3.553 3.553 0 0 0 1.12-1.504.286.286 0 0 0-.274-.384zm-3.439 1.357a2.937 2.937 0 0 0-.37.037 4.364 4.364 0 0 0-7.315 0 2.938 2.938 0 0 0-.37-.037 2.972 2.972 0 1 0 1.16 5.708 4.302 4.302 0 0 0 5.735 0 2.972 2.972 0 1 0 1.16-5.708zm0 4.944a1.958 1.958 0 0 1-.77-.156 1 1 0 0 0-1.049.168 3.302 3.302 0 0 1-4.417 0 1 1 0 0 0-1.05-.168 1.972 1.972 0 1 1-.77-3.788 1.078 1.078 0 0 1 .15.016l.096.013a1 1 0 0 0 .961-.444 3.364 3.364 0 0 1 5.643 0 1 1 0 0 0 .961.444l.096-.013a1.075 1.075 0 0 1 .15-.016 1.972 1.972 0 1 1 0 3.944z"/>
</svg>