<svg xmlns="http://www.w3.org/2000/svg" width="16" height="16" fill="currentColor" class="qi-457" viewBox="0 0 16 16">
  <path d="M15.497 4.207a.306.306 0 0 0-.08.01 3.072 3.072 0 0 1-.806.109 3.201 3.201 0 0 1-1.06-.185A3.183 3.183 0 0 1 11.523.355a.289.289 0 0 0-.272-.363.28.28 0 0 0-.104.02 3.546 3.546 0 0 0-2.211 3.096 4.936 4.936 0 0 1 .991.293 2.561 2.561 0 0 1 .54-1.672 4.415 4.415 0 0 0 .164.707 4.166 4.166 0 0 0 2.59 2.65 4.311 4.311 0 0 0 .847.203 2.61 2.61 0 0 1-.24.163 3.572 3.572 0 0 1 .824.642 3.553 3.553 0 0 0 1.12-1.503.286.286 0 0 0-.275-.384zm-3.439 1.357a2.937 2.937 0 0 0-.37.037 4.364 4.364 0 0 0-7.315 0 2.938 2.938 0 0 0-.37-.037 2.972 2.972 0 1 0 1.16 5.708 4.303 4.303 0 0 0 5.735 0 2.972 2.972 0 1 0 1.16-5.708zm0 4.944a1.96 1.96 0 0 1-.77-.156 1 1 0 0 0-1.049.168 3.303 3.303 0 0 1-4.417 0 1 1 0 0 0-1.05-.168 1.972 1.972 0 1 1-.77-3.788 1.08 1.08 0 0 1 .15.016l.096.013a.983.983 0 0 0 .125.008 1 1 0 0 0 .836-.452 3.364 3.364 0 0 1 5.643 0 1 1 0 0 0 .836.452.984.984 0 0 0 .125-.008l.096-.013a1.077 1.077 0 0 1 .15-.016 1.972 1.972 0 1 1 0 3.944zm-.798 4.288-.44-.254.434-.251a.35.35 0 0 0-.35-.606l-.435.25v-.508a.35.35 0 1 0-.699 0v.509l-.435-.251a.35.35 0 0 0-.35.606l.434.25-.44.255a.35.35 0 1 0 .35.606l.441-.255v.503a.35.35 0 1 0 .7 0v-.502l.44.254a.35.35 0 0 0 .35-.606zm-4.739 0-.44-.254.434-.251a.35.35 0 0 0-.35-.606l-.434.25v-.508a.35.35 0 1 0-.699 0v.509l-.436-.251a.35.35 0 0 0-.35.606l.435.25-.44.255a.35.35 0 1 0 .35.606l.441-.255v.503a.35.35 0 1 0 .7 0v-.502l.44.254a.35.35 0 0 0 .35-.606z"/>
</svg>