<svg xmlns="http://www.w3.org/2000/svg" width="16" height="16" fill="currentColor" class="qi-499" viewBox="0 0 16 16">
  <path d="M14.483 9.172a.504.504 0 0 0-.612-.354l-2.233.599-.996-.576a2.626 2.626 0 0 0-.057-1.864l1.039-.6 2.108.565a.542.542 0 0 0 .13.017.5.5 0 0 0 .13-.983l-1.143-.306.809-.467a.5.5 0 1 0-.5-.865l-.886.512.338-1.265a.501.501 0 0 0-.353-.613.508.508 0 0 0-.612.353l-.598 2.232-.996.574a2.768 2.768 0 0 0-1.644-.875V4.049l1.542-1.542a.5.5 0 0 0-.707-.707l-.835.835v-.933a.5.5 0 1 0-1 0v1.023L6.48 1.8a.5.5 0 1 0-.707.707l1.633 1.632v1.143a2.777 2.777 0 0 0-1.578.995l-1.047-.605-.565-2.108a.5.5 0 1 0-.966.26l.306 1.141L2.75 4.5a.5.5 0 1 0-.5.865l.886.512-1.265.339A.5.5 0 0 0 2 7.198a.541.541 0 0 0 .13-.016l2.232-.599.996.576a2.626 2.626 0 0 0 .057 1.864l-1.039.6-2.108-.565a.507.507 0 0 0-.613.353.501.501 0 0 0 .354.613l1.142.306-.809.467a.5.5 0 0 0 .25.932.493.493 0 0 0 .25-.067l.886-.512-.338 1.265a.501.501 0 0 0 .353.613.542.542 0 0 0 .13.017.5.5 0 0 0 .482-.37l.598-2.232.996-.574a2.768 2.768 0 0 0 1.644.875v1.207l-1.542 1.542a.5.5 0 0 0 .707.707l.835-.835v.933a.5.5 0 0 0 1 0v-1.023l.926.925a.5.5 0 0 0 .707-.707l-1.633-1.632v-1.143a2.777 2.777 0 0 0 1.578-.995l1.047.605.565 2.107a.5.5 0 0 0 .482.37.541.541 0 0 0 .13-.016.501.501 0 0 0 .354-.613l-.306-1.141.807.466a.493.493 0 0 0 .25.067.5.5 0 0 0 .25-.932l-.886-.512 1.265-.339a.501.501 0 0 0 .354-.613zM8 9.785A1.785 1.785 0 1 1 9.786 8 1.788 1.788 0 0 1 8 9.785z"/>
</svg>