<svg xmlns="http://www.w3.org/2000/svg" width="16" height="16" fill="currentColor" class="qi-501" viewBox="0 0 16 16">
  <path d="M12.815 3.075a3.146 3.146 0 0 0-.396.04 4.675 4.675 0 0 0-7.838 0 3.146 3.146 0 0 0-.396-.04 3.185 3.185 0 1 0 1.243 6.117 4.61 4.61 0 0 0 6.144 0 3.185 3.185 0 1 0 1.243-6.117zm0 5.369a2.171 2.171 0 0 1-.852-.173 1 1 0 0 0-1.05.168 3.61 3.61 0 0 1-4.827 0 1 1 0 0 0-1.049-.168 2.185 2.185 0 1 1-.852-4.196 1.22 1.22 0 0 1 .168.018l.104.014a1 1 0 0 0 .96-.444 3.675 3.675 0 0 1 6.165 0 1 1 0 0 0 .961.444l.104-.014a1.22 1.22 0 0 1 .168-.018 2.185 2.185 0 1 1 0 4.369zm.187 2.846H4.025a.5.5 0 0 0 0 1h8.977a.5.5 0 0 0 0-1zm-3.019 1.813H1.008a.5.5 0 0 0 0 1h8.975a.5.5 0 0 0 0-1z"/>
</svg>