<svg xmlns="http://www.w3.org/2000/svg" width="16" height="16" fill="currentColor" class="qi-503" viewBox="0 0 16 16">
  <circle cx="5.332" cy="7.142" r=".581"/>
  <path d="M4.156 3.654a.581.581 0 1 0-.581-.582.58.58 0 0 0 .58.582zm6.081 2.674a.581.581 0 1 0-.581-.581.581.581 0 0 0 .581.58zM8.97 3.654a.581.581 0 1 0-.582-.582.582.582 0 0 0 .581.582z"/>
  <circle cx="2.412" cy="5.398" r=".581"/>
  <path d="M9.507 10.61a.581.581 0 1 0-.76.317.581.581 0 0 0 .76-.316zm-3.637.218a.581.581 0 1 0-.76.317.581.581 0 0 0 .76-.317zm.845 2.564a.581.581 0 1 0 .316.759.581.581 0 0 0-.316-.76zm.36-7.878a.582.582 0 1 0-.581-.581.582.582 0 0 0 .581.581z"/>
  <path d="M14.438 6.226a2.869 2.869 0 0 0 .239-.984c.13-2.698-3.196-3.84-3.337-3.888a.45.45 0 0 0-.286.854c.028.009 2.821.974 2.724 2.99a2.26 2.26 0 0 1-.863 1.612C11.232 8.268 7.249 8.932 2.77 8.505a.458.458 0 0 0-.492.404.45.45 0 0 0 .406.491c.943.09 1.86.134 2.74.134 3.59 0 6.563-.73 8.08-2.044.01-.008.016-.018.026-.026a5.517 5.517 0 0 1-.168 1.159c-.571 1.837-3.716 3.541-8.41 3.097a.458.458 0 0 0-.491.405.45.45 0 0 0 .405.49c.55.054 1.078.079 1.587.079 3.117 0 5.432-.943 6.727-2.211a3.823 3.823 0 0 1-.176 1.013c-.25.708-1.35 2.996-4.901 2.723a.432.432 0 0 0-.483.415.45.45 0 0 0 .414.483q.321.024.622.024a5.2 5.2 0 0 0 5.196-3.345 6.914 6.914 0 0 0 .205-2.53l-.003-.007a3.356 3.356 0 0 0 .168-.369 10.64 10.64 0 0 0 .234-2.57.52.52 0 0 0-.018-.094z"/>
</svg>