<svg xmlns="http://www.w3.org/2000/svg" width="16" height="16" fill="currentColor" class="qi-508" viewBox="0 0 16 16">
  <path d="M13.62 8.714a.798.798 0 0 0-.107-.076.872.872 0 0 0-.424-.115.862.862 0 0 0-.591.245.814.814 0 0 0-.17.254h-.599a7.172 7.172 0 0 0-2.845-1.285 13.809 13.809 0 0 1-1.192-.336h4.71a.845.845 0 0 0 .7.389.878.878 0 0 0 .425-.116.809.809 0 0 0 .109-.077l1.153-.968a.8.8 0 0 0-.001-1.226l-1.167-.976a.788.788 0 0 0-.108-.076.87.87 0 0 0-.424-.115.862.862 0 0 0-.591.245.812.812 0 0 0-.17.254H4.28a1.745 1.745 0 0 1-.067-.504c.035-1.085 1.128-1.992 2.718-2.259a3.623 3.623 0 0 1 3.877 1.514.5.5 0 1 0 .827-.562A4.62 4.62 0 0 0 6.766.986c-2.073.348-3.5 1.639-3.552 3.212a2.793 2.793 0 0 0 .053.537h-.52a1.333 1.333 0 0 0 0 2.666h2.57A11.19 11.19 0 0 0 8.653 8.71a8.5 8.5 0 0 1 1.02.312H2.746a1.333 1.333 0 0 0 0 2.666h9.177a2.52 2.52 0 0 1-1.645 1.594 5.6 5.6 0 0 1-5.707-.786.5.5 0 0 0-.662.748 6.474 6.474 0 0 0 4.128 1.474 7.213 7.213 0 0 0 2.6-.502 3.542 3.542 0 0 0 2.23-2.177.792.792 0 0 0 .233.038.88.88 0 0 0 .426-.116.799.799 0 0 0 .109-.077l1.153-.968a.8.8 0 0 0-.001-1.226zM5.918 6.6H2.214V5.535h10.449l.4-.405v-.078c0-.01.013-.016.026-.016a.036.036 0 0 1 .019.004l.003.003.001-.001.93.78.233.195-.9.754-.254.214-.008.002-.01.002h-.002c-.014 0-.028-.006-.028-.016v-.011l-.398-.36H5.918zm7.423 4.487-.219.184-.007.002-.01.003H13.1c-.014 0-.028-.007-.028-.017v-.01l-.398-.362h-.77.001-9.692V9.822h10.449l.4-.405V9.34c0-.01.013-.016.026-.016a.036.036 0 0 1 .019.005l.003.003.001-.002.915.768.248.207z"/>
</svg>