<svg xmlns="http://www.w3.org/2000/svg" width="16" height="16" fill="currentColor" class="qi-509" viewBox="0 0 16 16">
  <path d="M12.316 2.086a3.146 3.146 0 0 0-.397.04 4.675 4.675 0 0 0-7.838 0 3.148 3.148 0 0 0-.396-.04 3.185 3.185 0 1 0 1.243 6.116 4.61 4.61 0 0 0 6.144 0 3.185 3.185 0 1 0 1.244-6.116zm0 5.369a2.17 2.17 0 0 1-.853-.173 1 1 0 0 0-1.05.167 3.61 3.61 0 0 1-4.827 0 1 1 0 0 0-1.049-.167 2.185 2.185 0 1 1-.852-4.196 1.22 1.22 0 0 1 .168.018l.104.014a1 1 0 0 0 .96-.444 3.675 3.675 0 0 1 6.165 0 1 1 0 0 0 .961.444l.104-.014a1.219 1.219 0 0 1 .169-.018 2.185 2.185 0 0 1 0 4.369zm1.185 2.845H4.525a.5.5 0 0 0 0 1h8.976a.5.5 0 0 0 0-1zm-2.517 2.313a.5.5 0 0 0-.5-.5H1.508a.5.5 0 1 0 0 1h8.976a.5.5 0 0 0 .5-.5zm1.11 1.344H3.118a.5.5 0 0 0 0 1h8.976a.5.5 0 0 0 0-1z"/>
</svg>