<svg xmlns="http://www.w3.org/2000/svg" width="16" height="16" fill="currentColor" class="qi-512" viewBox="0 0 16 16">
  <circle cx="2.989" cy="2.481" r="1"/>
  <path d="M12.543 4.487c-1.581 0-3.876 1.712-4.57 2.888C7.282 6.2 4.987 4.487 3.406 4.487a3.486 3.486 0 0 0 0 6.97c1.58 0 3.876-1.75 4.569-2.906.693 1.156 2.988 2.906 4.569 2.906a3.486 3.486 0 0 0 0-6.97zm-9.138 5.97a2.486 2.486 0 0 1 0-4.97c1.309 0 3.462 1.745 3.762 2.476-.306.675-2.418 2.494-3.762 2.494zm9.138 0c-1.345 0-3.457-1.82-3.762-2.494.3-.73 2.452-2.476 3.762-2.476a2.486 2.486 0 0 1 0 4.97z"/>
  <circle cx="8.031" cy="2.958" r="1"/>
  <circle cx="8.031" cy="12.98" r="1"/>
  <circle cx="13" cy="2.481" r="1"/>
  <circle cx="2.989" cy="13.457" r="1"/>
  <circle cx="13" cy="13.457" r="1"/>
</svg>