<?xml version="1.0" standalone="no"?><!DOCTYPE svg PUBLIC "-//W3C//DTD SVG 1.1//EN" "http://www.w3.org/Graphics/SVG/1.1/DTD/svg11.dtd"><svg t="1670400783154" class="icon" viewBox="0 0 1069 1024" version="1.1" xmlns="http://www.w3.org/2000/svg" p-id="2295" xmlns:xlink="http://www.w3.org/1999/xlink" width="208.7890625" height="200"><path d="M735.377037 0.000125a333.56048 333.56048 0 0 0-244.029106 105.866485 178.065184 178.065184 0 0 0-312.611636 116.714994v4.489038a222.58148 222.58148 0 0 0 44.391601 440.798617h512.249141a333.934567 333.934567 0 0 0 0-667.869134z" fill="#F2F2F2" p-id="2296"></path><path d="M948.356963 76.563166A333.934567 333.934567 0 0 1 690.860741 623.477658H178.736295a221.833306 221.833306 0 0 1-133.548888-44.640991 222.456784 222.456784 0 0 0 178.065184 89.032592h512.124446A333.934567 333.934567 0 0 0 948.356963 76.563166z" fill="#E2E2E2" p-id="2297"></path><path d="M178.736295 1023.999626a22.1958 22.1958 0 0 1-19.826585-32.171441L292.458597 724.73041a22.1958 22.1958 0 0 1 39.777867 19.826585L198.687576 1011.779466a22.1958 22.1958 0 0 1-19.951281 12.22016z" fill="#5D9CEC" p-id="2298"></path><path d="M312.409878 1023.999626a21.198236 21.198236 0 0 1-9.850945-2.369215 22.1958 22.1958 0 0 1-9.97564-29.802226l133.424192-267.097775a22.1958 22.1958 0 1 1 39.777867 19.826585L332.236464 1011.779466a22.1958 22.1958 0 0 1-19.826586 12.22016z" fill="#4A89DC" p-id="2299"></path><path d="M445.958766 1023.999626a21.697018 21.697018 0 0 1-9.97564-2.369215 22.1958 22.1958 0 0 1-9.975641-29.802226l133.548888-267.097775A22.320496 22.320496 0 0 1 599.209544 744.556995L465.785352 1011.779466a22.1958 22.1958 0 0 1-19.826586 12.22016z" fill="#5D9CEC" p-id="2300"></path><path d="M579.507654 1023.999626a22.320496 22.320496 0 0 1-19.951281-32.171441l133.673583-267.097775a22.1958 22.1958 0 0 1 39.777867 19.826585L599.209544 1011.779466a22.320496 22.320496 0 0 1-19.70189 12.22016z" fill="#4A89DC" p-id="2301"></path></svg>