<?xml version="1.0" standalone="no"?><!DOCTYPE svg PUBLIC "-//W3C//DTD SVG 1.1//EN" "http://www.w3.org/Graphics/SVG/1.1/DTD/svg11.dtd"><svg t="1670400287584" class="icon" viewBox="0 0 1530 1024" version="1.1" xmlns="http://www.w3.org/2000/svg" p-id="1244" xmlns:xlink="http://www.w3.org/1999/xlink" width="298.828125" height="200"><path d="M1143.75145 251.11277a385.461572 385.461572 0 0 0-282.267135 122.476442A206.210336 206.210336 0 0 0 500.12525 508.741787v5.177576a257.629017 257.629017 0 0 0 51.597218 510.080458h592.028982a386.532794 386.532794 0 0 0 0-772.887051z" fill="#D0D3D6" p-id="1245"></path><path d="M1383.169684 334.311053a386.354257 386.354257 0 0 1-303.513049 625.951028H487.27058a255.129498 255.129498 0 0 1-147.828709-46.419642 256.914869 256.914869 0 0 0 211.209375 110.157382h593.100204a386.354257 386.354257 0 0 0 239.418234-689.688768z" fill="#B0B9C1" p-id="1246"></path><path d="M850.415015 0.089626a385.461572 385.461572 0 0 0-282.267135 122.476442 206.210336 206.210336 0 0 0-361.894676 135.152575v5.177575a257.629017 257.629017 0 0 0 51.418681 510.080459h592.74313a386.532794 386.532794 0 1 0 0-772.887051z" fill="#F2F2F2" p-id="1247"></path><path d="M1089.297638 83.287908a386.354257 386.354257 0 0 1-303.513048 625.951028H194.112682a256.20072 256.20072 0 0 1-147.471634-46.419642 257.271943 257.271943 0 0 0 211.209374 110.157383h592.564593A386.354257 386.354257 0 0 0 1089.297638 83.287908z" fill="#E2E2E2" p-id="1248"></path></svg>