<?xml version="1.0" standalone="no"?><!DOCTYPE svg PUBLIC "-//W3C//DTD SVG 1.1//EN" "http://www.w3.org/Graphics/SVG/1.1/DTD/svg11.dtd"><svg t="1670400342819" class="icon" viewBox="0 0 1372 1024" version="1.1" xmlns="http://www.w3.org/2000/svg" p-id="1386" xmlns:xlink="http://www.w3.org/1999/xlink" width="267.96875" height="200"><path d="M455.164075 711.024594a256.019835 256.019835 0 1 1 255.860519-256.019835 256.17915 256.17915 0 0 1-255.860519 256.019835z" fill="#FFCE54" p-id="1387"></path><path d="M455.164075 170.626785a284.53729 284.53729 0 1 0 284.377974 284.377974 284.53729 284.53729 0 0 0-284.377974-284.377974z m160.908545 445.28652a227.661695 227.661695 0 1 1 66.593834-160.908546 226.227856 226.227856 0 0 1-66.593834 160.908546z" fill="#F6BB42" p-id="1388"></path><path d="M193.727517 676.293839l-60.380534 60.380533a28.35814 28.35814 0 1 0 40.147479 40.147479L233.874995 716.919264a28.517455 28.517455 0 0 0-40.147478-40.306795zM776.821851 133.346983a28.198824 28.198824 0 0 0-40.147479 0l-60.380533 60.221218A28.517455 28.517455 0 0 0 716.919264 233.874995l60.221218-60.380533a28.198824 28.198824 0 0 0-0.318631-40.147479z" fill="#FFCE54" p-id="1389"></path><path d="M455.164075 0a28.517455 28.517455 0 0 0-28.517456 28.35814v85.39305a28.517455 28.517455 0 1 0 56.875595 0V28.35814A28.35814 28.35814 0 0 0 455.164075 0z" fill="#F6BB42" p-id="1390"></path><path d="M193.727517 233.874995a27.880194 27.880194 0 0 0 20.073739 8.284401 28.517455 28.517455 0 0 0 20.073739-47.794618l-60.380533-61.017795a28.35814 28.35814 0 1 0-40.147479 40.147479z" fill="#FFCE54" p-id="1391"></path><path d="M142.268645 455.004759a28.517455 28.517455 0 0 0-28.517455-28.35814H28.517455a28.517455 28.517455 0 1 0 0 56.875595h85.233735a28.517455 28.517455 0 0 0 28.517455-28.517455z" fill="#F6BB42" p-id="1392"></path><path d="M1020.415085 334.562323a343.961931 343.961931 0 0 0-251.877635 109.290359A184.009278 184.009278 0 0 0 446.083097 564.135803v4.620146a229.89211 229.89211 0 0 0 46.042149 455.164075h528.289839a344.917823 344.917823 0 1 0 0-689.676332z" fill="#F2F2F2" p-id="1393"></path><path d="M1234.057026 408.484665a344.758508 344.758508 0 0 1-270.836167 558.559764H434.771704A228.139641 228.139641 0 0 1 302.699245 925.622427a229.57348 229.57348 0 0 0 188.470108 98.297597h529.245732a344.758508 344.758508 0 0 0 213.641941-615.435359z" fill="#E2E2E2" p-id="1394"></path></svg>