<?xml version="1.0" standalone="no"?><!DOCTYPE svg PUBLIC "-//W3C//DTD SVG 1.1//EN" "http://www.w3.org/Graphics/SVG/1.1/DTD/svg11.dtd"><svg t="1670400775982" class="icon" viewBox="0 0 1069 1024" version="1.1" xmlns="http://www.w3.org/2000/svg" p-id="2153" xmlns:xlink="http://www.w3.org/1999/xlink" width="208.7890625" height="200"><path d="M735.287588 0.000125a333.519907 333.519907 0 0 0-243.999423 105.853608 178.043524 178.043524 0 0 0-312.573611 116.700797v4.488492a222.554405 222.554405 0 0 0 44.386201 440.745h512.186833a333.893948 333.893948 0 0 0 0-667.787897z" fill="#F2F2F2" p-id="2154"></path><path d="M948.241608 76.553853A333.893948 333.893948 0 0 1 690.776707 623.401821H178.714554a221.556963 221.556963 0 0 1-133.532643-44.635562 222.429725 222.429725 0 0 0 178.043524 89.021763h512.062153A333.893948 333.893948 0 0 0 948.241608 76.553853z" fill="#E2E2E2" p-id="2155"></path><path d="M401.39364 868.149327a22.317781 22.317781 0 1 1-22.317781-22.317781 22.317781 22.317781 0 0 1 22.317781 22.317781zM534.926283 868.149327a22.317781 22.317781 0 1 1-22.31778-22.317781 22.317781 22.317781 0 0 1 22.31778 22.317781zM600.134101 733.868601a22.317781 22.317781 0 1 1-22.317781-22.31778 22.317781 22.317781 0 0 1 22.317781 22.31778zM467.848261 733.868601a22.317781 22.317781 0 1 1-22.193101-22.31778 22.317781 22.317781 0 0 1 22.193101 22.31778zM334.564978 1001.68197A22.317781 22.317781 0 1 1 312.371878 979.364189a22.1931 22.1931 0 0 1 22.1931 22.317781zM468.097622 1001.68197a22.317781 22.317781 0 1 1-22.317781-22.317781 22.1931 22.1931 0 0 1 22.317781 22.317781z" fill="#CCD1D9" p-id="2156"></path><path d="M178.714554 1023.999751a23.813945 23.813945 0 0 1-9.974427-2.368927 22.1931 22.1931 0 0 1-9.849747-29.923281L292.423024 724.642256a22.1931 22.1931 0 0 1 39.773028 19.824174L198.663409 1011.656397a22.317781 22.317781 0 0 1-19.948855 12.343354zM579.437164 1023.999751a23.813945 23.813945 0 0 1-9.974427-2.368927 22.317781 22.317781 0 0 1-9.974427-29.923281l133.532643-267.065287a22.317781 22.317781 0 0 1 29.923282-9.974427 22.06842 22.06842 0 0 1 9.849747 29.798601L599.136658 1011.656397a22.317781 22.317781 0 0 1-19.699494 12.343354z" fill="#5D9CEC" p-id="2157"></path></svg>