<?xml version="1.0" standalone="no"?><!DOCTYPE svg PUBLIC "-//W3C//DTD SVG 1.1//EN" "http://www.w3.org/Graphics/SVG/1.1/DTD/svg11.dtd"><svg t="1670400348235" class="icon" viewBox="0 0 1177 1024" version="1.1" xmlns="http://www.w3.org/2000/svg" p-id="1532" xmlns:xlink="http://www.w3.org/1999/xlink" width="229.8828125" height="200"><path d="M439.39222 374.622392A277.007592 277.007592 0 0 1 180.132773 0a277.007592 277.007592 0 1 0 357.010771 357.010771 279.601552 279.601552 0 0 1-97.751324 17.611621z" fill="#FFCE54" p-id="1533"></path><path d="M326.623235 487.527901A277.007592 277.007592 0 0 1 107.911474 40.957259a277.007592 277.007592 0 1 0 388.684384 388.274811 276.324971 276.324971 0 0 1-169.972623 58.295831z" fill="#F6BB42" p-id="1534"></path><path d="M875.313976 432.645175a294.346165 294.346165 0 0 0-215.844753 93.792122A157.685446 157.685446 0 0 0 383.144252 629.649589a38.363299 38.363299 0 0 0 0 3.959201A197.004414 197.004414 0 0 0 422.190171 1023.931465h453.123805a295.574883 295.574883 0 1 0 0-591.013242z" fill="#F2F2F2" p-id="1535"></path><path d="M1058.529446 496.26545a295.438359 295.438359 0 0 1-232.091132 478.653829H373.451034A196.458317 196.458317 0 0 1 260.272476 939.559512 196.321793 196.321793 0 0 0 422.190171 1023.931465h453.123805a295.438359 295.438359 0 0 0 183.21547-527.666015z" fill="#E2E2E2" p-id="1536"></path></svg>