<?xml version="1.0" standalone="no"?><!DOCTYPE svg PUBLIC "-//W3C//DTD SVG 1.1//EN" "http://www.w3.org/Graphics/SVG/1.1/DTD/svg11.dtd"><svg t="1670400647268" class="icon" viewBox="0 0 1230 1024" version="1.1" xmlns="http://www.w3.org/2000/svg" p-id="1816" xmlns:xlink="http://www.w3.org/1999/xlink" width="240.234375" height="200"><path d="M843.383988 0a382.472381 382.472381 0 0 0-279.774113 121.435696 204.252266 204.252266 0 0 0-358.585736 133.879637v5.149217a255.315333 255.315333 0 0 0 50.920032 505.624483h587.439817a383.044516 383.044516 0 1 0 0-766.089033z" fill="#F2F2F2" p-id="1817"></path><path d="M1087.828752 87.822753A383.044516 383.044516 0 0 1 792.320921 715.169H205.024139a254.171063 254.171063 0 0 1-153.1892-51.206101 254.743198 254.743198 0 0 0 204.252266 102.126134h587.296783A383.044516 383.044516 0 0 0 1087.828752 87.822753z" fill="#E2E2E2" p-id="1818"></path><path d="M766.860905 867.929098a153.1892 153.1892 0 1 1-306.3784 0c0-84.532976 124.010305-306.092332 153.1892-306.092332s153.1892 221.559356 153.1892 306.092332z" fill="#5D9CEC" p-id="1819"></path><path d="M971.113171 944.02308a76.666117 76.666117 0 1 1-153.189199 0c0-42.91014 61.933635-127.443116 76.523083-127.443116s76.666117 85.677246 76.666116 127.443116zM409.276405 944.02308a76.666117 76.666117 0 1 1-153.1892 0c0-42.91014 61.933635-127.443116 76.523083-127.443116s76.666117 85.677246 76.666117 127.443116z" fill="#4A89DC" p-id="1820"></path></svg>