<?xml version="1.0" standalone="no"?><!DOCTYPE svg PUBLIC "-//W3C//DTD SVG 1.1//EN" "http://www.w3.org/Graphics/SVG/1.1/DTD/svg11.dtd"><svg t="1670400769464" class="icon" viewBox="0 0 1069 1024" version="1.1" xmlns="http://www.w3.org/2000/svg" p-id="2007" xmlns:xlink="http://www.w3.org/1999/xlink" width="208.7890625" height="200"><path d="M735.28767 0.000125a333.519907 333.519907 0 0 0-243.999424 105.853608 178.043524 178.043524 0 0 0-312.57361 116.700797v4.488492a222.554405 222.554405 0 0 0 44.386201 440.745h512.186833a333.893948 333.893948 0 0 0 0-667.787897z" fill="#F2F2F2" p-id="2008"></path><path d="M948.24169 76.553853A333.893948 333.893948 0 0 1 690.776789 623.401821H178.714636a221.806323 221.806323 0 0 1-133.532643-44.635562 222.429725 222.429725 0 0 0 178.043524 89.021763h512.062153A333.893948 333.893948 0 0 0 948.24169 76.553853z" fill="#E2E2E2" p-id="2009"></path><path d="M401.393722 868.149327a22.317781 22.317781 0 1 1-22.317781-22.317781 22.317781 22.317781 0 0 1 22.317781 22.317781z" fill="#E6E9ED" p-id="2010"></path><path d="M534.926365 868.149327a22.317781 22.317781 0 1 1-22.317781-22.317781 22.317781 22.317781 0 0 1 22.317781 22.317781z" fill="#CCD1D9" p-id="2011"></path><path d="M601.755027 734.616683a22.317781 22.317781 0 1 1-22.317781-22.31778 22.317781 22.317781 0 0 1 22.317781 22.31778z" fill="#E6E9ED" p-id="2012"></path><path d="M467.848343 734.616683a22.317781 22.317781 0 1 1-22.193101-22.31778 22.1931 22.1931 0 0 1 22.193101 22.31778zM334.56506 1001.68197A22.317781 22.317781 0 1 1 312.37196 979.364189a22.1931 22.1931 0 0 1 22.1931 22.317781zM267.985759 868.149327a22.317781 22.317781 0 1 1-22.193101-22.317781 22.1931 22.1931 0 0 1 22.193101 22.317781z" fill="#CCD1D9" p-id="2013"></path><path d="M334.56506 734.616683A22.317781 22.317781 0 1 1 312.37196 712.298903a22.317781 22.317781 0 0 1 22.1931 22.31778zM201.281777 1001.68197a22.317781 22.317781 0 1 1-22.31778-22.317781 22.1931 22.1931 0 0 1 22.31778 22.317781zM468.097703 1001.68197a22.317781 22.317781 0 1 1-22.1931-22.317781 22.1931 22.1931 0 0 1 22.1931 22.317781zM668.459008 868.149327a22.317781 22.317781 0 1 1-22.31778-22.317781 22.317781 22.317781 0 0 1 22.31778 22.317781z" fill="#E6E9ED" p-id="2014"></path><path d="M735.28767 734.616683a22.317781 22.317781 0 1 1-22.317781-22.31778 22.317781 22.317781 0 0 1 22.317781 22.31778zM601.755027 1001.68197a22.317781 22.317781 0 1 1-22.317781-22.317781 22.1931 22.1931 0 0 1 22.317781 22.317781z" fill="#CCD1D9" p-id="2015"></path></svg>