<?xml version="1.0" standalone="no"?><!DOCTYPE svg PUBLIC "-//W3C//DTD SVG 1.1//EN" "http://www.w3.org/Graphics/SVG/1.1/DTD/svg11.dtd"><svg t="1670400988217" class="icon" viewBox="0 0 1294 1024" version="1.1" xmlns="http://www.w3.org/2000/svg" p-id="2439" xmlns:xlink="http://www.w3.org/1999/xlink" width="252.734375" height="200"><path d="M890.019793 0.000151a403.320695 403.320695 0 0 0-295.245239 128.150924 215.547138 215.547138 0 0 0-378.415039 141.282998v5.433962a269.433923 269.433923 0 0 0 53.735842 533.584827h619.924436a404.226356 404.226356 0 0 0 0-808.452711z" fill="#F2F2F2" p-id="2440"></path><path d="M1147.98202 92.679383A404.226356 404.226356 0 0 1 836.133009 754.717021H216.359515a268.226376 268.226376 0 0 1-161.660353-54.037728 269.282979 269.282979 0 0 0 215.547138 107.773569h619.773493A404.226356 404.226356 0 0 0 1147.98202 92.679383z" fill="#E2E2E2" p-id="2441"></path><path d="M807.453768 916.226431a27.169807 27.169807 0 0 1-13.43396-3.622641L420.5859 697.056652a27.018864 27.018864 0 0 1 27.018864-46.641503l373.433908 215.547138a27.018864 27.018864 0 0 1-13.584904 50.264144z" fill="#4A89DC" p-id="2442"></path><path d="M504.20853 741.132117a27.018864 27.018864 0 0 1-26.113204-20.075469l-19.773582-73.660366a27.018864 27.018864 0 0 1 52.075464-13.43396l19.773582 73.660366A27.018864 27.018864 0 0 1 511.151925 739.622683a28.377354 28.377354 0 0 1-6.943395 1.509434z" fill="#4A89DC" p-id="2443"></path><path d="M430.548163 760.754756a27.018864 27.018864 0 0 1-7.094339-52.981124l73.509424-19.622639a27.018864 27.018864 0 0 1 14.188677 51.47169l-73.660367 19.622639a27.471694 27.471694 0 0 1-6.943395 1.509434zM757.189624 949.433973a26.867921 26.867921 0 0 1-25.96226-19.924525l-19.773582-73.660367a27.018864 27.018864 0 1 1 52.075464-14.037733l19.773582 73.660366a27.169807 27.169807 0 0 1-19.018865 33.056599 28.528298 28.528298 0 0 1-7.094339 0.90566z" fill="#4A89DC" p-id="2444"></path><path d="M737.566986 875.47172a27.018864 27.018864 0 0 1-7.094339-52.981124l73.660367-19.773582a27.018864 27.018864 0 0 1 14.037733 52.226407L744.510381 875.47172a28.377354 28.377354 0 0 1-6.943395 0zM434.170804 916.226431a27.018864 27.018864 0 0 1-13.584904-50.264144l373.433908-215.547138a26.716977 26.716977 0 0 1 36.830183 9.81132 27.018864 27.018864 0 0 1-9.811319 36.830183L447.604764 912.60379a27.169807 27.169807 0 0 1-13.43396 3.622641z" fill="#4A89DC" p-id="2445"></path><path d="M504.20853 875.47172a28.528298 28.528298 0 0 1-7.094339-0.90566L423.453824 855.245308a27.018864 27.018864 0 0 1 13.886791-52.226408l73.660366 19.773582a27.018864 27.018864 0 0 1-6.792451 52.679238z" fill="#4A89DC" p-id="2446"></path><path d="M483.831174 949.433973a27.471694 27.471694 0 0 1-6.943395-0.90566 27.018864 27.018864 0 0 1-19.169809-33.056599l19.773582-73.660366a27.018864 27.018864 0 1 1 52.075464 14.037733l-19.773582 73.660367A26.867921 26.867921 0 0 1 483.831174 949.433973zM811.227352 760.754756a28.528298 28.528298 0 0 1-7.094338-0.90566L730.472647 739.622683a27.018864 27.018864 0 0 1 14.037734-52.075464l73.660366 19.622639a27.018864 27.018864 0 0 1-6.943395 52.981124z" fill="#4A89DC" p-id="2447"></path><path d="M737.566986 741.132117a28.528298 28.528298 0 0 1-7.094339-0.90566 27.169807 27.169807 0 0 1-19.018865-33.056599L731.227364 633.962322a27.018864 27.018864 0 0 1 52.075464 13.88679l-19.773582 73.660367a26.867921 26.867921 0 0 1-25.96226 19.622638z" fill="#4A89DC" p-id="2448"></path><path d="M620.887758 1024a27.018864 27.018864 0 0 1-27.018864-27.018864V565.88686a27.018864 27.018864 0 1 1 53.886784 0v431.094276a27.018864 27.018864 0 0 1-26.86792 27.018864z" fill="#5D9CEC" p-id="2449"></path><path d="M620.887758 673.660429a27.018864 27.018864 0 0 1-19.169809-7.849055 27.169807 27.169807 0 0 1 0-38.188674L655.755677 573.584972a27.018864 27.018864 0 1 1 38.03773 38.188674l-53.886784 53.886784a26.867921 26.867921 0 0 1-19.018865 7.999999z" fill="#5D9CEC" p-id="2450"></path><path d="M620.887758 673.660429a27.018864 27.018864 0 0 1-19.169809-7.849055l-53.886784-53.886785a27.018864 27.018864 0 0 1 0-38.188674 27.169807 27.169807 0 0 1 38.188673 0l53.886785 53.886785a27.169807 27.169807 0 0 1 0 38.188674 26.867921 26.867921 0 0 1-19.018865 7.849055zM567.000973 996.981136a26.867921 26.867921 0 0 1-19.169808-45.283012l53.886784-53.886785A27.018864 27.018864 0 0 1 639.906623 935.84907l-53.886785 53.886784a26.867921 26.867921 0 0 1-19.018865 7.245282z" fill="#5D9CEC" p-id="2451"></path><path d="M674.774542 996.981136a26.41509 26.41509 0 0 1-19.018865-7.849055L601.717949 935.84907a27.018864 27.018864 0 0 1 38.188674-38.037731L693.793407 950.943407a26.867921 26.867921 0 0 1-19.018865 45.283012z" fill="#5D9CEC" p-id="2452"></path></svg>