<?xml version="1.0" standalone="no"?><!DOCTYPE svg PUBLIC "-//W3C//DTD SVG 1.1//EN" "http://www.w3.org/Graphics/SVG/1.1/DTD/svg11.dtd"><svg t="1670399694681" class="icon" viewBox="0 0 1024 1024" version="1.1" xmlns="http://www.w3.org/2000/svg" p-id="1244" xmlns:xlink="http://www.w3.org/1999/xlink" width="200" height="200"><path d="M511.202476 171.956106a21.354783 21.354783 0 0 1-21.354782-21.235482V22.94983a21.354783 21.354783 0 1 1 42.590265 0V150.720624a21.235482 21.235482 0 0 1-21.235483 21.235482zM511.202476 1024a21.354783 21.354783 0 0 1-21.354782-21.354783V874.874423a21.354783 21.354783 0 0 1 21.354782-21.354782 21.235482 21.235482 0 0 1 21.235483 21.354782v127.770794a21.235482 21.235482 0 0 1-21.235483 21.354783z" fill="#F6BB42" p-id="1245"></path><path d="M270.215545 271.810592a21.116182 21.116182 0 0 1-30.063717 0l-90.429749-90.42975a21.354783 21.354783 0 0 1 30.183017-30.063716l90.310449 90.42975a21.116182 21.116182 0 0 1 0 30.063716zM872.682874 874.277921a21.474083 21.474083 0 0 1-30.183017 0l-90.310449-90.429749a21.116182 21.116182 0 0 1 0-30.063717 21.116182 21.116182 0 0 1 30.063716 0l90.42975 90.310449a21.474083 21.474083 0 0 1 0 30.183017z" fill="#FFCE54" p-id="1246"></path><path d="M170.361059 512.797524a21.235482 21.235482 0 0 1-21.235482 21.235482H21.354783a21.354783 21.354783 0 1 1 0-42.590265H149.125577a21.354783 21.354783 0 0 1 21.235482 21.354783zM1022.404953 512.797524a21.235482 21.235482 0 0 1-21.354783 21.235482H873.279376a21.235482 21.235482 0 0 1-21.354782-21.235482 21.354783 21.354783 0 0 1 21.354782-21.354783h127.770794a21.354783 21.354783 0 0 1 21.354783 21.354783z" fill="#F6BB42" p-id="1247"></path><path d="M270.215545 753.784455a21.116182 21.116182 0 0 1 0 30.063717l-90.310449 90.429749a21.474083 21.474083 0 0 1-30.183017 0 21.354783 21.354783 0 0 1 0-30.183017l90.429749-90.310449a21.116182 21.116182 0 0 1 30.063717 0zM872.682874 151.317126a21.354783 21.354783 0 0 1 0 30.063716l-90.42975 90.42975a21.116182 21.116182 0 0 1-30.063716 0 21.116182 21.116182 0 0 1 0-30.063716l90.310449-90.42975a21.354783 21.354783 0 0 1 30.183017 0zM511.202476 789.693894a276.896371 276.896371 0 1 1 276.896371-276.89637 277.134971 277.134971 0 0 1-276.896371 276.89637z" fill="#FFCE54" p-id="1248"></path><path d="M511.202476 214.54637a298.251153 298.251153 0 1 0 298.251154 298.251154 298.251153 298.251153 0 0 0-298.251154-298.251154zM691.942675 693.537722a255.780189 255.780189 0 1 1 74.801389-180.740198A254.348583 254.348583 0 0 1 691.942675 693.537722z" fill="#F6BB42" p-id="1249"></path></svg>