<?xml version="1.0" standalone="no"?><!DOCTYPE svg PUBLIC "-//W3C//DTD SVG 1.1//EN" "http://www.w3.org/Graphics/SVG/1.1/DTD/svg11.dtd"><svg t="1670400526674" class="icon" viewBox="0 0 1069 1024" version="1.1" xmlns="http://www.w3.org/2000/svg" p-id="1674" xmlns:xlink="http://www.w3.org/1999/xlink" width="208.7890625" height="200"><path d="M735.163176 0a333.395349 333.395349 0 0 0-243.874832 105.853647 178.043589 178.043589 0 0 0-312.573725 116.70084v4.488494a222.554487 222.554487 0 0 0 44.386217 440.74516h512.06234a333.89407 333.89407 0 1 0 0-667.788141z" fill="#F2F2F2" p-id="1675"></path><path d="M948.241954 76.553756A333.89407 333.89407 0 0 1 690.776959 623.401924H178.714619a221.557044 221.557044 0 0 1-133.532692-44.635578 222.429806 222.429806 0 0 0 178.04359 89.021795h511.937659A333.89407 333.89407 0 0 0 948.241954 76.553756z" fill="#E2E2E2" p-id="1676"></path><path d="M445.904684 1024a22.317789 22.317789 0 0 1-19.948862-32.29222l50.744917-101.988554h-98.123463a22.193108 22.193108 0 0 1-19.824181-32.29222l66.953366-133.532692a22.317789 22.317789 0 0 1 39.897724 19.948861l-50.869597 101.365153h97.874102a22.193108 22.193108 0 0 1 19.948861 32.16754l-66.704006 134.156094a22.56715 22.56715 0 0 1-19.948861 12.468038z" fill="#F6BB42" p-id="1677"></path><path d="M178.714619 1024a23.813953 23.813953 0 0 1-9.974431-2.368927 22.193108 22.193108 0 0 1-9.84975-29.923293L292.42313 724.642396a22.193108 22.193108 0 0 1 39.773043 19.824181L198.663481 1011.656642a22.317789 22.317789 0 0 1-19.948862 12.343358zM579.437376 1024a23.813953 23.813953 0 0 1-9.974431-2.368927 22.317789 22.317789 0 0 1-9.974431-29.923293l133.532692-267.065384a22.317789 22.317789 0 0 1 29.923293-9.974431 22.068428 22.068428 0 0 1 9.84975 29.798612L599.136877 1011.656642a22.317789 22.317789 0 0 1-19.699501 12.343358z" fill="#5D9CEC" p-id="1678"></path></svg>